<svg width="111" height="812" viewBox="0 0 111 812" fill="none" xmlns="http://www.w3.org/2000/svg">
<path opacity="0.2" d="M77.6 -6.40975C84.032 -6.40975 89.696 -4.72975 94.592 -1.36975C99.584 1.99025 103.472 6.59825 106.256 12.4543C109.136 18.4063 110.576 25.1743 110.576 32.7583C110.576 40.4383 109.232 47.0623 106.544 52.6303C103.856 58.1983 100.064 62.4703 95.168 65.4463C90.272 68.5183 84.464 70.0543 77.744 70.0543V46.8703C81.488 46.8703 84.416 45.5743 86.528 42.9823C88.736 40.3903 89.84 36.8863 89.84 32.4703C89.84 27.7663 88.832 23.9743 86.816 21.0943C84.8 18.3103 82.016 16.9183 78.464 16.9183C75.2 16.9183 72.704 17.7823 70.976 19.5103C69.248 21.2383 68 23.9743 67.232 27.7183L63.92 43.7023C62 53.2063 58.64 60.2623 53.84 64.8703C49.136 69.4783 42.56 71.7823 34.112 71.7823C27.296 71.7823 21.296 70.1023 16.112 66.7423C11.024 63.3823 7.088 58.6303 4.304 52.4863C1.52 46.4383 0.128 39.3343 0.128 31.1743C0.128 23.3023 1.472 16.3903 4.16 10.4383C6.848 4.58225 10.64 0.0222508 15.536 -3.24175C20.528 -6.40975 26.336 -7.99375 32.96 -7.99375V15.1903C29.12 15.1903 26.144 16.5823 24.032 19.3663C21.92 22.1503 20.864 26.1343 20.864 31.3183C20.864 36.5983 21.824 40.7743 23.744 43.8463C25.76 46.9183 28.448 48.4543 31.808 48.4543C34.784 48.4543 37.088 47.6863 38.72 46.1503C40.352 44.7103 41.504 42.2143 42.176 38.6623L45.488 22.3903C47.408 12.8863 51.056 5.68625 56.432 0.79025C61.808 -4.00975 68.864 -6.40975 77.6 -6.40975ZM2 110.572L2 87.2443L108.56 87.2443L108.56 110.572L66.512 110.572V151.756H108.56V175.084L2 175.084V151.756H44.912V110.572L2 110.572ZM2 211.757V187.421L108.56 225.437V248.189L2 286.061V261.293L24.464 253.805V219.389L2 211.757ZM66.8 233.789L44.048 226.157V247.181L66.8 239.549C68.624 238.973 70.496 238.397 72.416 237.821C74.336 237.245 75.92 236.861 77.168 236.669C75.92 236.477 74.336 236.093 72.416 235.517C70.592 235.037 68.72 234.461 66.8 233.789ZM2 321.791V298.463H108.56V339.647C108.56 352.607 105.536 362.591 99.488 369.599C93.536 376.703 85.04 380.255 74 380.255C67.088 380.255 61.184 378.767 56.288 375.791C51.392 372.911 47.408 368.495 44.336 362.543L2 381.263V355.775L39.296 339.791L39.296 321.791H2ZM87.824 321.791H59.744L59.744 339.503C59.744 344.591 60.992 348.527 63.488 351.311C65.984 354.191 69.488 355.631 74 355.631C78.512 355.631 81.92 354.239 84.224 351.455C86.624 348.767 87.824 344.831 87.824 339.647V321.791ZM2 439.364L2 397.604H108.56L108.56 437.924C108.56 448.388 106.304 457.556 101.792 465.428C97.28 473.396 90.992 479.636 82.928 484.148C74.864 488.66 65.552 490.916 54.992 490.916C44.624 490.916 35.456 488.708 27.488 484.292C19.52 479.972 13.28 473.924 8.768 466.148C4.256 458.468 2 449.54 2 439.364ZM97.904 420.932H12.368L23.6 409.844L23.6 437.06C23.6 443.204 24.848 448.436 27.344 452.756C29.84 457.172 33.44 460.532 38.144 462.836C42.848 465.14 48.464 466.292 54.992 466.292C61.712 466.292 67.424 465.044 72.128 462.548C76.928 460.148 80.576 456.644 83.072 452.036C85.664 447.524 86.96 442.052 86.96 435.62V409.844L97.904 420.932ZM2 574.831L2 507.151H108.56L108.56 574.831H86.96L86.96 523.999L93.008 530.479H66.08L66.08 569.791H45.632L45.632 530.479H17.552L23.6 523.999L23.6 574.831H2ZM42.032 593.196H108.56V616.524H43.616C36.896 616.524 31.76 618.3 28.208 621.852C24.656 625.404 22.88 630.444 22.88 636.972C22.88 643.596 24.704 648.684 28.352 652.236C32 655.884 37.088 657.708 43.616 657.708H108.56V681.036H42.032C33.584 681.036 26.24 679.212 20 675.564C13.76 672.012 8.912 666.924 5.456 660.3C2 653.676 0.272 645.9 0.272 636.972C0.272 628.14 1.952 620.412 5.312 613.788C8.768 607.26 13.616 602.172 19.856 598.524C26.192 594.972 33.584 593.196 42.032 593.196ZM2 725.087L2 702.479H108.56L108.56 725.087L29.072 756.767L108.56 788.591L108.56 811.487H2L2 788.879H24.32C30.08 788.879 34.832 788.879 38.576 788.879C42.32 788.879 45.44 788.927 47.936 789.023C50.432 789.119 52.592 789.215 54.416 789.311C56.336 789.503 58.304 789.743 60.32 790.031L2 767.423V746.111L60.32 723.647C56.384 724.319 52.112 724.703 47.504 724.799C42.896 724.991 37.664 725.087 31.808 725.087H2Z" fill="url(#paint0_linear_150_895)"/>
<defs>
<linearGradient id="paint0_linear_150_895" x1="-15.2142" y1="-12" x2="-15.2142" y2="651" gradientUnits="userSpaceOnUse">
<stop stop-color="white" stop-opacity="0"/>
<stop offset="1" stop-color="white"/>
</linearGradient>
</defs>
</svg>
