<svg width="241" height="28" viewBox="0 0 241 28" fill="none" xmlns="http://www.w3.org/2000/svg">
<path fill-rule="evenodd" clip-rule="evenodd" d="M7.26591 21.6411L3.6333 28H28.363L24.7304 21.6411H7.26591Z" fill="black"/>
<path fill-rule="evenodd" clip-rule="evenodd" d="M12.3669 0L0 21.6411H7.267L15.9995 6.35918L12.3669 0Z" fill="black"/>
<path fill-rule="evenodd" clip-rule="evenodd" d="M19.6336 0L16.001 6.35918L24.7332 21.6411H32.0005L19.6336 0Z" fill="black"/>
<path fill-rule="evenodd" clip-rule="evenodd" d="M15.9984 12.5991C18.1709 12.5991 19.9319 14.3785 19.9319 16.5736C19.9319 18.7687 18.1709 20.548 15.9984 20.548C13.8259 20.548 12.0649 18.7687 12.0649 16.5736C12.0649 14.3785 13.8259 12.5991 15.9984 12.5991Z" fill="black"/>
<path d="M51.1367 10.1207C50.9565 7.20825 48.95 5.41406 45.8389 5.41406C42.4798 5.41406 40.2253 7.37157 40.2253 10.2608C40.2253 12.6838 41.6007 14.2683 44.2609 14.8974L46.9436 15.5262C48.4991 15.899 49.198 16.738 49.198 18.0661C49.198 19.7437 47.8229 20.7923 45.6587 20.7923C43.6071 20.7923 42.2996 19.7671 42.2545 18.1591H40C40.1353 21.0487 42.3444 22.8423 45.6587 22.8423C49.1305 22.8423 51.4073 20.9088 51.4073 17.8796C51.4073 15.5033 50.0547 14.012 47.3944 13.3827L44.7118 12.7305C43.1787 12.3577 42.4349 11.5421 42.4349 10.1905C42.4349 8.53645 43.7649 7.46457 45.8165 7.46457C47.6425 7.46457 48.7922 8.44319 48.9049 10.1207H51.1367Z" fill="black"/>
<path d="M52.6915 5.41434V22.5399H54.8106V16.342C54.8106 14.3848 55.9153 12.8469 57.9669 12.8469C59.5449 12.8469 60.6044 13.7789 60.6044 16.0857V22.5631H62.7238V15.5965C62.7238 12.6841 61.3711 10.8433 58.5531 10.8433C56.8398 10.8433 55.5095 11.6818 54.8106 12.9167V5.41434H52.6915Z" fill="black"/>
<path fill-rule="evenodd" clip-rule="evenodd" d="M63.9864 19.3942C63.9864 17.2975 65.4969 15.9923 68.0893 15.7828L71.5611 15.5033V15.1767C71.5611 13.2663 70.4564 12.5906 68.9687 12.5906C67.1875 12.5906 66.1731 13.4062 66.1731 14.781H64.3244C64.3244 12.4041 66.2182 10.8431 69.0589 10.8431C71.7867 10.8431 73.6353 12.3343 73.6353 15.4101V22.5629H71.8318L71.6062 20.7223C71.0426 22.0274 69.5322 22.8424 67.7511 22.8424C65.384 22.8424 63.9864 21.4681 63.9864 19.3942ZM71.5845 17.6467V17.0413L68.7665 17.2739C66.8954 17.4604 66.1288 18.2059 66.1288 19.3244C66.1288 20.5362 66.9854 21.1416 68.3605 21.1416C70.3672 21.1416 71.5845 19.7904 71.5845 17.6467Z" fill="black"/>
<path d="M80.8019 13.0803H81.7488V11.0764C81.3203 10.9832 81.0048 10.9365 80.6215 10.9365C79.1113 10.9365 78.0063 11.7287 77.5557 12.9167L77.4204 11.1928H75.4363V22.5631H77.5557V16.5285C77.5557 14.3382 78.7955 13.0803 80.8019 13.0803Z" fill="black"/>
<path fill-rule="evenodd" clip-rule="evenodd" d="M81.48 16.9013C81.48 13.4061 83.4415 10.8433 86.7104 10.8433C88.4011 10.8433 89.8215 11.6122 90.5656 13.01V5.41406H92.662V22.5631H90.7682L90.588 20.4894C89.8664 22.0505 88.3786 22.8423 86.6202 22.8423C83.4189 22.8423 81.48 20.3727 81.48 16.9013ZM90.5434 16.8315C90.5434 14.5013 89.2132 12.824 87.0489 12.824C84.8847 12.824 83.6223 14.5013 83.6223 16.8315C83.6223 19.1844 84.8847 20.8622 87.0489 20.8622C89.2132 20.8622 90.5434 19.2079 90.5434 16.8315Z" fill="black"/>
<path fill-rule="evenodd" clip-rule="evenodd" d="M99.2656 10.8432C96.0645 10.8432 93.8776 13.3128 93.8776 16.8777C93.8776 20.4192 96.1096 22.8422 99.3558 22.8422C102.084 22.8422 103.933 21.4679 104.473 19.0212H102.49C102.129 20.326 101.047 21.0251 99.4009 21.0251C97.3045 21.0251 96.0869 19.6969 95.9291 17.2974L104.451 17.2739V16.4584C104.451 13.0802 102.399 10.8432 99.2656 10.8432ZM102.333 15.8292H95.9753C96.2459 13.8253 97.4181 12.6838 99.2666 12.6838C101.138 12.6838 102.333 13.9417 102.333 15.8292Z" fill="black"/>
<path d="M115.408 11.1693V22.563H113.514L113.288 20.8387C112.657 22.0275 111.192 22.8425 109.569 22.8425C106.999 22.8425 105.556 21.0489 105.556 18.2526V11.1693H107.675V17.5303C107.675 19.977 108.689 20.909 110.313 20.909C112.252 20.909 113.311 19.6274 113.311 17.1807V11.1693H115.408Z" fill="black"/>
<path d="M117.344 11.1692V22.5629H119.463V15.8063C119.463 13.9884 120.523 12.847 122.124 12.847C123.612 12.847 124.559 13.8256 124.559 15.6195V22.5629H126.655V15.8063C126.655 13.9884 127.715 12.8238 129.315 12.8238C130.803 12.8238 131.773 13.849 131.773 15.6427V22.5629H133.847V15.1069C133.847 12.4742 132.314 10.8431 129.789 10.8431C128.075 10.8431 126.745 11.7285 126.227 13.1499C125.663 11.7285 124.446 10.8431 122.732 10.8431C121.177 10.8431 120.004 11.5888 119.441 12.6605L119.238 11.1692H117.344Z" fill="black"/>
<path d="M141.733 16.52L143.435 5.871H145.574L143.895 16.52C143.695 17.808 143.902 18.82 144.516 19.556C145.144 20.292 146.103 20.66 147.391 20.66C148.663 20.66 149.691 20.3073 150.473 19.602C151.27 18.8813 151.776 17.854 151.991 16.52L153.67 5.871H155.832L154.107 16.635C153.8 18.5823 153.056 20.0927 151.876 21.166C150.71 22.2393 149.162 22.776 147.23 22.776C146.003 22.776 144.937 22.5153 144.033 21.994C143.143 21.4573 142.492 20.7213 142.078 19.786C141.664 18.8353 141.549 17.7467 141.733 16.52ZM158.666 22.5H156.596L158.39 11.253H160.23L160.184 13.047C160.69 12.3263 161.242 11.7973 161.84 11.46C162.453 11.1073 163.166 10.931 163.979 10.931C164.837 10.931 165.566 11.138 166.164 11.552C166.762 11.9507 167.199 12.5027 167.475 13.208C167.751 13.9133 167.812 14.7183 167.659 15.623L166.578 22.5H164.508L165.52 16.106C165.704 15.048 165.596 14.2353 165.198 13.668C164.799 13.1007 164.155 12.817 163.266 12.817C162.315 12.817 161.51 13.1543 160.851 13.829C160.207 14.4883 159.793 15.4007 159.609 16.566L158.666 22.5ZM169.578 22.5L171.372 11.253H173.419L171.648 22.5H169.578ZM172.821 8.539C172.484 8.539 172.2 8.43167 171.97 8.217C171.74 7.987 171.625 7.70333 171.625 7.366C171.625 7.09 171.702 6.82933 171.855 6.584C172.008 6.33867 172.208 6.13933 172.453 5.986C172.698 5.81733 172.959 5.733 173.235 5.733C173.588 5.733 173.871 5.848 174.086 6.078C174.301 6.308 174.408 6.584 174.408 6.906C174.408 7.182 174.331 7.45033 174.178 7.711C174.04 7.95633 173.848 8.15567 173.603 8.309C173.358 8.46233 173.097 8.539 172.821 8.539ZM177.803 22.5L175.135 11.253H177.228L178.654 17.647C178.746 18.0917 178.83 18.521 178.907 18.935C178.984 19.349 179.06 19.8013 179.137 20.292C179.336 19.878 179.536 19.4487 179.735 19.004C179.95 18.5593 180.18 18.107 180.425 17.647L183.944 11.253H186.221L179.85 22.5H177.803ZM190.742 22.776C189.745 22.776 188.871 22.569 188.12 22.155C187.384 21.741 186.809 21.1583 186.395 20.407C185.996 19.6557 185.797 18.774 185.797 17.762C185.797 16.474 186.065 15.3163 186.602 14.289C187.154 13.2617 187.89 12.449 188.81 11.851C189.745 11.253 190.788 10.954 191.938 10.954C193.011 10.954 193.916 11.1917 194.652 11.667C195.388 12.1423 195.917 12.794 196.239 13.622C196.576 14.45 196.66 15.4007 196.492 16.474L196.377 17.256L186.901 17.279L187.154 15.876H194.514C194.667 14.91 194.491 14.1433 193.985 13.576C193.494 12.9933 192.781 12.702 191.846 12.702C191.094 12.702 190.412 12.9243 189.799 13.369C189.185 13.7983 188.702 14.3887 188.35 15.14C187.997 15.876 187.821 16.7117 187.821 17.647C187.821 18.705 188.081 19.533 188.603 20.131C189.139 20.729 189.875 21.028 190.811 21.028C191.547 21.028 192.206 20.8517 192.789 20.499C193.371 20.1463 193.785 19.6557 194.031 19.027H196.101C195.84 19.7937 195.441 20.4607 194.905 21.028C194.383 21.5953 193.762 22.0323 193.042 22.339C192.336 22.6303 191.57 22.776 190.742 22.776ZM205.974 11.161L205.675 13.07H204.732C204.088 13.07 203.498 13.208 202.961 13.484C202.424 13.7447 201.98 14.128 201.627 14.634C201.29 15.14 201.067 15.7533 200.96 16.474L199.994 22.5H197.924L199.718 11.253H201.604L201.443 13.507H201.259C201.535 12.771 201.987 12.173 202.616 11.713C203.245 11.253 203.981 11.023 204.824 11.023C205.008 11.023 205.2 11.0383 205.399 11.069C205.598 11.0843 205.79 11.115 205.974 11.161ZM205.977 19.28H208.001C208.016 19.8473 208.231 20.2997 208.645 20.637C209.059 20.9743 209.603 21.143 210.278 21.143C210.983 21.143 211.55 20.982 211.98 20.66C212.424 20.338 212.647 19.924 212.647 19.418C212.647 19.0193 212.547 18.7127 212.348 18.498C212.164 18.268 211.826 18.0687 211.336 17.9L209.473 17.279C208.691 17.003 208.093 16.6273 207.679 16.152C207.265 15.6767 207.058 15.0787 207.058 14.358C207.058 13.3307 207.441 12.5103 208.208 11.897C208.99 11.2683 210.017 10.954 211.29 10.954C212.102 10.954 212.792 11.0997 213.36 11.391C213.942 11.6823 214.395 12.0887 214.717 12.61C215.039 13.1313 215.2 13.7447 215.2 14.45H213.176C213.16 13.8367 212.984 13.3767 212.647 13.07C212.309 12.748 211.811 12.587 211.152 12.587C210.508 12.587 209.994 12.7327 209.611 13.024C209.243 13.3 209.059 13.691 209.059 14.197C209.059 14.9177 209.526 15.4467 210.462 15.784L212.302 16.405C213.13 16.681 213.728 17.049 214.096 17.509C214.479 17.9537 214.671 18.5287 214.671 19.234C214.671 19.9393 214.479 20.5603 214.096 21.097C213.728 21.6183 213.206 22.0323 212.532 22.339C211.857 22.6303 211.067 22.776 210.163 22.776C208.921 22.776 207.909 22.454 207.127 21.81C206.36 21.166 205.977 20.3227 205.977 19.28ZM216.521 22.5L218.315 11.253H220.362L218.591 22.5H216.521ZM219.764 8.539C219.427 8.539 219.143 8.43167 218.913 8.217C218.683 7.987 218.568 7.70333 218.568 7.366C218.568 7.09 218.645 6.82933 218.798 6.584C218.952 6.33867 219.151 6.13933 219.396 5.986C219.642 5.81733 219.902 5.733 220.178 5.733C220.531 5.733 220.815 5.848 221.029 6.078C221.244 6.308 221.351 6.584 221.351 6.906C221.351 7.182 221.275 7.45033 221.121 7.711C220.983 7.95633 220.792 8.15567 220.546 8.309C220.301 8.46233 220.04 8.539 219.764 8.539ZM222.286 11.253H228.68L228.404 13.001H222.01L222.286 11.253ZM224.724 22.5H222.677L225 7.734H227.07L224.724 22.5ZM231.292 11.253L233.454 22.27L231.982 24.018L229.199 11.253H231.292ZM226.945 27.514L227.221 25.789H228.601C228.907 25.789 229.206 25.7507 229.498 25.674C229.789 25.6127 230.065 25.467 230.326 25.237C230.602 25.007 230.855 24.662 231.085 24.202L237.778 11.253H240.032L232.649 25.03C232.189 25.858 231.652 26.5097 231.039 26.985C230.441 27.4757 229.666 27.721 228.716 27.721C228.363 27.721 228.049 27.7057 227.773 27.675C227.481 27.6443 227.205 27.5907 226.945 27.514Z" fill="black"/>
</svg>
