<svg width="23" height="24" viewBox="0 0 23 24" fill="none" xmlns="http://www.w3.org/2000/svg">
<rect y="0.5" width="23" height="23" rx="11.5" fill="#FF4C0F"/>
<path d="M15.3675 17.0475L16.9775 18.4475L15.91 19.6375L14.09 18.045C13.1625 18.5875 12.13 18.7975 11.15 18.7975C7.4225 18.7975 5.165 15.84 5.165 12.2525C5.165 8.7 7.4225 5.7075 11.15 5.7075C14.8775 5.7075 17.135 8.7 17.135 12.2525C17.135 13.9325 16.6275 15.8925 15.3675 17.0475ZM12.55 16.715L11.29 15.6125L12.34 14.405L13.8625 15.735C14.65 14.7725 14.9475 13.5125 14.9475 12.2525C14.9475 9.855 13.8275 7.4925 11.15 7.4925C8.4725 7.4925 7.3525 9.855 7.3525 12.2525C7.3525 14.65 8.4725 17.0125 11.15 17.0125C11.6225 17.0125 12.1125 16.925 12.55 16.715Z" fill="white"/>
</svg>
