<svg xmlns="http://www.w3.org/2000/svg" width="1440" height="858" viewBox="0 0 1440 858" fill="none">
  <path opacity="0.4" fill-rule="evenodd" clip-rule="evenodd"
    d="M-9.66351 -104.667L1448.99 -104.667V-106.055L-9.66351 -106.055L-9.66351 -104.667ZM1448.99 -35.2728L-9.66351 -35.2728L-9.66351 -36.6607L1448.99 -36.6606V-35.2728ZM-9.66351 1283.21V1352.61L-9.66357 1442.14H-8.27569L-8.27569 1352.61H59.7301V1442.14H61.118L61.118 1352.61H129.125V1442.14H130.513V1352.61H198.519V1442.14H199.906V1352.61H267.913V1442.14H269.301V1352.61H337.307V1442.14H338.695V1352.61H406.702V1442.14H408.09V1352.61H476.095V1442.14H477.483V1352.61H545.489V1442.14H546.877V1352.61H614.884V1442.14H616.272V1352.61H684.276V1442.14H685.664V1352.61H753.671V1442.14H755.059V1352.61H823.066V1442.14H824.454V1352.61H892.46V1442.14H893.847V1352.61H961.853V1442.14H963.241V1352.61H1031.25V1442.14H1032.64V1352.61H1100.64V1442.14H1102.03V1352.61H1170.04V1442.14H1171.42V1352.61H1239.43V1442.14H1240.82V1352.61H1308.82V1442.14H1310.21V1352.61H1378.22V1442.14H1379.61V1352.61H1447.61V1442.14H1449V-29.0143H1447.61V32.7328H1379.61V-29.0143H1378.22V32.7328H1310.21V-29.0143H1308.82V32.7328L1240.82 32.7328V-29.0143H1239.43V32.7328H1171.42V-29.0143H1170.04V32.7328H1102.03V-29.014H1100.64V32.7328H1032.64V-29.0143H1031.25V32.7328H963.241V-29.0143H961.853V32.7328L893.847 32.7328V-29.0143H892.46V32.7328H824.454V-29.014H823.066V32.7328H755.059V-29.0143H753.671V32.7328H685.664V-29.014H684.276V32.7328H616.272V-29.014H614.884V32.7328H546.877V-29.014H545.489V32.7328L477.483 32.7327V-29.0143H476.095V32.7327H408.09V-29.0143H406.702V32.7327H338.695V-29.0143H337.307V32.7327H269.301V-29.0143H267.913V32.7327H199.906V-29.0143H198.519V32.7327L130.513 32.7327V-29.014H129.125V32.7327H61.1181V-29.0143H59.7302V32.7327H-8.27563L-8.27563 -29.0143H-9.66351V34.1206V103.515V172.909V242.303V311.697V381.091V450.485V519.879V589.273V658.668V728.062V797.456V866.85V936.244V1005.64V1075.03V1144.43V1213.82V1283.21ZM-8.27563 34.1206L-8.27564 102.127H59.7302L59.7302 34.1206H-8.27563ZM61.1181 34.1206L61.1181 102.127H129.125L129.125 34.1206H61.1181ZM130.513 34.1206L130.513 102.127L198.519 102.127L198.519 34.1206L130.513 34.1206ZM199.906 34.1206L199.906 102.127H267.913L267.913 34.1206H199.906ZM269.301 34.1206L269.301 102.127H337.307L337.307 34.1206H269.301ZM338.695 34.1206L338.695 102.127H406.702L406.702 34.1206H338.695ZM408.09 34.1206L408.09 102.127H476.095L476.095 34.1206H408.09ZM477.483 34.1206L477.483 102.127L545.489 102.127L545.489 34.1206L477.483 34.1206ZM546.877 34.1206L546.877 102.127H614.884L614.884 34.1206H546.877ZM616.272 34.1206L616.272 102.127H684.276L684.276 34.1206H616.272ZM685.664 34.1206L685.664 102.127H753.671L753.671 34.1206H685.664ZM755.059 34.1206L755.059 102.127H823.066L823.066 34.1206H755.059ZM824.454 34.1206L824.454 102.127H892.46L892.46 34.1206H824.454ZM893.847 34.1206L893.847 102.127L961.853 102.127L961.853 34.1207L893.847 34.1206ZM963.241 34.1207L963.241 102.127H1031.25L1031.25 34.1207H963.241ZM1032.64 34.1207V102.127H1100.64L1100.64 34.1207H1032.64ZM1102.03 34.1207V102.127H1170.04L1170.04 34.1207H1102.03ZM1171.42 34.1207V102.127H1239.43L1239.43 34.1207H1171.42ZM1240.82 34.1207V102.127L1308.82 102.127L1308.82 34.1207L1240.82 34.1207ZM1310.21 34.1207V102.127H1378.22L1378.22 34.1207H1310.21ZM1379.61 34.1207V102.127H1447.61L1447.61 34.1207H1379.61ZM1379.61 103.515H1447.61V171.521H1379.61V103.515ZM1310.21 103.515H1378.22V171.521H1310.21V103.515ZM1240.82 103.515L1308.82 103.515V171.521H1240.82V103.515ZM1171.42 103.515H1239.43V171.521H1171.42V103.515ZM1102.03 103.515H1170.04V171.521H1102.03V103.515ZM1032.64 103.515H1100.64V171.521L1032.64 171.521V103.515ZM963.241 103.515H1031.25V171.521H963.241V103.515ZM893.847 103.515L961.853 103.515V171.521H893.847V103.515ZM824.454 103.515H892.46V171.521H824.454V103.515ZM755.059 103.515H823.066V171.521H755.059V103.515ZM685.664 103.515H753.671V171.521H685.664V103.515ZM616.272 103.515H684.276V171.521H616.272V103.515ZM546.877 103.515H614.884V171.521H546.877V103.515ZM477.483 103.515L545.489 103.515V171.521H477.483V103.515ZM408.09 103.515H476.095V171.521H408.09V103.515ZM338.695 103.515H406.702V171.521L338.695 171.521V103.515ZM269.301 103.515H337.307V171.521H269.301V103.515ZM199.906 103.515H267.913V171.521H199.906V103.515ZM130.513 103.515L198.519 103.515V171.521H130.513V103.515ZM61.1181 103.515H129.125V171.521H61.1181V103.515ZM-8.27564 103.515H59.7302V171.521H-8.27564L-8.27564 103.515ZM-8.27564 172.909L-8.27564 240.915H59.7302L59.7302 172.909H-8.27564ZM61.1181 172.909L61.1181 240.915H129.125L129.125 172.909H61.1181ZM130.513 172.909L130.513 240.915H198.519L198.519 172.909H130.513ZM199.906 172.909L199.906 240.915H267.913L267.913 172.909H199.906ZM269.301 172.909L269.301 240.915H337.307L337.307 172.909H269.301ZM338.695 172.909L338.695 240.915L406.702 240.915L406.702 172.909L338.695 172.909ZM408.09 172.909L408.09 240.915H476.095L476.095 172.909H408.09ZM477.483 172.909L477.483 240.915H545.489V172.909H477.483ZM546.877 172.909V240.915H614.884V172.909H546.877ZM616.272 172.909V240.915H684.276V172.909H616.272ZM685.664 172.909V240.915H753.671V172.909H685.664ZM755.059 172.909V240.915H823.066V172.909H755.059ZM824.454 172.909V240.915H892.46V172.909H824.454ZM893.847 172.909V240.915H961.853V172.909H893.847ZM963.241 172.909V240.915H1031.25V172.909H963.241ZM1032.64 172.909V240.915L1100.64 240.915V172.909L1032.64 172.909ZM1102.03 172.909V240.915H1170.04V172.909H1102.03ZM1171.42 172.909V240.915H1239.43V172.909H1171.42ZM1240.82 172.909V240.915H1308.82V172.909H1240.82ZM1310.21 172.909V240.915H1378.22V172.909H1310.21ZM1379.61 172.909V240.915H1447.61V172.909H1379.61ZM1379.61 242.303H1447.61V310.309H1379.61V242.303ZM1310.21 242.303H1378.22V310.309H1310.21V242.303ZM1240.82 242.303H1308.82V310.309H1240.82V242.303ZM1171.42 242.303H1239.43V310.309H1171.42V242.303ZM1102.03 242.303H1170.04V310.309H1102.03V242.303ZM1032.64 242.303L1100.64 242.303V310.309L1032.64 310.309V242.303ZM963.241 242.303H1031.25V310.309H963.241V242.303ZM893.847 242.303H961.853V310.309H893.847V242.303ZM824.454 242.303H892.46V310.309H824.454V242.303ZM755.059 242.303H823.066V310.309H755.059V242.303ZM685.664 242.303H753.671V310.309H685.664V242.303ZM616.272 242.303H684.276V310.309H616.272V242.303ZM546.877 242.303H614.884V310.309H546.877V242.303ZM477.483 242.303H545.489V310.309H477.483V242.303ZM408.09 242.303H476.095V310.309H408.09V242.303ZM338.695 242.303L406.702 242.303V310.309L338.695 310.309V242.303ZM269.301 242.303H337.307V310.309H269.301V242.303ZM199.906 242.303H267.913V310.309H199.906V242.303ZM130.513 242.303H198.519V310.309H130.513V242.303ZM61.1181 242.303H129.125V310.309H61.1181V242.303ZM-8.27564 242.303H59.7302V310.309H-8.27564L-8.27564 242.303ZM-8.27564 311.697L-8.27565 379.703H59.7302V311.697H-8.27564ZM61.118 311.697V379.703H129.125V311.697H61.118ZM130.513 311.697V379.703H198.519V311.697H130.513ZM199.906 311.697V379.703H267.913V311.697H199.906ZM269.301 311.697V379.703H337.307V311.697H269.301ZM338.695 311.697V379.703L406.702 379.703V311.697L338.695 311.697ZM408.09 311.697V379.703H476.095V311.697H408.09ZM477.483 311.697V379.703H545.489V311.697H477.483ZM546.877 311.697V379.703H614.884V311.697H546.877ZM616.272 311.697V379.703H684.276V311.697H616.272ZM685.664 311.697V379.703H753.671V311.697H685.664ZM755.059 311.697V379.703H823.066V311.697H755.059ZM824.454 311.697V379.703H892.46V311.697H824.454ZM893.847 311.697V379.703H961.853V311.697H893.847ZM963.241 311.697V379.703H1031.25V311.697H963.241ZM1032.64 311.697V379.703L1100.64 379.703V311.697L1032.64 311.697ZM1102.03 311.697V379.703H1170.04V311.697H1102.03ZM1171.42 311.697V379.703H1239.43V311.697H1171.42ZM1240.82 311.697V379.703H1308.82V311.697H1240.82ZM1310.21 311.697V379.703H1378.22V311.697H1310.21ZM1379.61 311.697V379.703H1447.61V311.697H1379.61ZM1379.61 381.091H1447.61V449.097H1379.61V381.091ZM1310.21 381.091H1378.22V449.097H1310.21V381.091ZM1240.82 381.091H1308.82V449.097H1240.82V381.091ZM1171.42 381.091H1239.43V449.097H1171.42V381.091ZM1102.03 381.091H1170.04V449.097H1102.03V381.091ZM1032.64 381.091L1100.64 381.091V449.097H1032.64V381.091ZM963.241 381.091H1031.25V449.097H963.241V381.091ZM893.847 381.091H961.853V449.097H893.847V381.091ZM824.454 381.091H892.46V449.097H824.454V381.091ZM755.059 381.091H823.066V449.097H755.059V381.091ZM685.664 381.091H753.671V449.097L685.664 449.097V381.091ZM616.272 381.091H684.276V449.097H616.272V381.091ZM546.877 381.091H614.884V449.097H546.877V381.091ZM477.483 381.091H545.489V449.097H477.483V381.091ZM408.09 381.091H476.095V449.097H408.09V381.091ZM338.695 381.091L406.702 381.091V449.097H338.695V381.091ZM269.301 381.091H337.307V449.097H269.301V381.091ZM199.906 381.091H267.913V449.097H199.906V381.091ZM130.513 381.091H198.519V449.097H130.513V381.091ZM61.118 381.091H129.125V449.097H61.118V381.091ZM-8.27565 381.091H59.7302V449.097H-8.27565L-8.27565 381.091ZM-8.27565 450.485L-8.27565 518.491H59.7302V450.485H-8.27565ZM61.118 450.485V518.491H129.125V450.485H61.118ZM130.513 450.485V518.491H198.519V450.485H130.513ZM199.906 450.485V518.491H267.913V450.485H199.906ZM269.301 450.485V518.491H337.307V450.485H269.301ZM338.695 450.485V518.491H406.702V450.485H338.695ZM408.09 450.485V518.491H476.095V450.485H408.09ZM477.483 450.485V518.491H545.489V450.485H477.483ZM546.877 450.485V518.491H614.884V450.485H546.877ZM616.272 450.485V518.491H684.276V450.485H616.272ZM685.664 450.485V518.491L753.671 518.491V450.485L685.664 450.485ZM755.059 450.485V518.491H823.066V450.485H755.059ZM824.454 450.485V518.491H892.46V450.485H824.454ZM893.847 450.485V518.491H961.853V450.485H893.847ZM963.241 450.485V518.491H1031.25V450.485H963.241ZM1032.64 450.485V518.491H1100.64V450.485H1032.64ZM1102.03 450.485V518.491H1170.04V450.485H1102.03ZM1171.42 450.485V518.491H1239.43V450.485H1171.42ZM1240.82 450.485V518.491H1308.82V450.485H1240.82ZM1310.21 450.485V518.491H1378.22V450.485H1310.21ZM1379.61 450.485V518.491H1447.61V450.485H1379.61ZM1379.61 519.879H1447.61V587.885H1379.61V519.879ZM1310.21 519.879H1378.22V587.885H1310.21V519.879ZM1240.82 519.879H1308.82V587.885H1240.82V519.879ZM1171.42 519.879H1239.43V587.885H1171.42V519.879ZM1102.03 519.879H1170.04V587.885H1102.03V519.879ZM1032.64 519.879H1100.64V587.885H1032.64V519.879ZM963.241 519.879H1031.25V587.885H963.241V519.879ZM893.847 519.879H961.853V587.885H893.847V519.879ZM824.454 519.879H892.46V587.885H824.454V519.879ZM755.059 519.879H823.066V587.885H755.059V519.879ZM685.664 519.879L753.671 519.879V587.885L685.664 587.885V519.879ZM616.272 519.879H684.276V587.885H616.272V519.879ZM546.877 519.879H614.884V587.885H546.877V519.879ZM477.483 519.879H545.489V587.885H477.483V519.879ZM408.09 519.879H476.095V587.885H408.09V519.879ZM338.695 519.879H406.702V587.885H338.695V519.879ZM269.301 519.879H337.307V587.885H269.301V519.879ZM199.906 519.879H267.913V587.885H199.906V519.879ZM130.513 519.879H198.519V587.885H130.513V519.879ZM61.118 519.879H129.125V587.885H61.118V519.879ZM-8.27565 519.879H59.7302V587.885H-8.27566L-8.27565 519.879ZM-8.27566 589.273L-8.27566 657.28H59.7301V589.273H-8.27566ZM61.118 589.273V657.28H129.125V589.273H61.118ZM130.513 589.273V657.28H198.519V589.273H130.513ZM199.906 589.273V657.28H267.913V589.273H199.906ZM269.301 589.273V657.28H337.307V589.273H269.301ZM338.695 589.273V657.28H406.702V589.273H338.695ZM408.09 589.273V657.28H476.095V589.273H408.09ZM477.483 589.273V657.28H545.489V589.273H477.483ZM546.877 589.273V657.28H614.884V589.273H546.877ZM616.272 589.273V657.28H684.276V589.273H616.272ZM685.664 589.273V657.28L753.671 657.28V589.273L685.664 589.273ZM755.059 589.273V657.28H823.066V589.273H755.059ZM824.454 589.273V657.28H892.46V589.273H824.454ZM893.847 589.273V657.28H961.853V589.273H893.847ZM963.241 589.273V657.28H1031.25V589.273H963.241ZM1032.64 589.273V657.28H1100.64V589.273H1032.64ZM1102.03 589.273V657.28H1170.04V589.273H1102.03ZM1171.42 589.273V657.28H1239.43V589.273H1171.42ZM1240.82 589.273V657.28H1308.82V589.273H1240.82ZM1310.21 589.273V657.28H1378.22V589.273H1310.21ZM1379.61 589.273V657.28H1447.61V589.273H1379.61ZM1379.61 658.668H1447.61V726.674H1379.61V658.668ZM1310.21 658.668H1378.22V726.674H1310.21V658.668ZM1240.82 658.668H1308.82V726.674H1240.82V658.668ZM1171.42 658.668H1239.43V726.674H1171.42V658.668ZM1102.03 658.668H1170.04V726.674H1102.03V658.668ZM1032.64 658.668H1100.64V726.674H1032.64V658.668ZM963.241 658.668H1031.25V726.674H963.241V658.668ZM893.847 658.668H961.853V726.674H893.847V658.668ZM824.454 658.668H892.46V726.674H824.454V658.668ZM755.059 658.668H823.066V726.674H755.059V658.668ZM685.664 658.668L753.671 658.668V726.674L685.664 726.674V658.668ZM616.272 658.668H684.276V726.674H616.272V658.668ZM546.877 658.668H614.884V726.674H546.877V658.668ZM477.483 658.668H545.489V726.674H477.483V658.668ZM408.09 658.668H476.095V726.674H408.09V658.668ZM338.695 658.668H406.702V726.674H338.695V658.668ZM269.301 658.668H337.307V726.674H269.301V658.668ZM199.906 658.668H267.913V726.674H199.906V658.668ZM130.513 658.668H198.519V726.674H130.513V658.668ZM61.118 658.668H129.125V726.674H61.118V658.668ZM-8.27566 658.668H59.7301V726.674H-8.27566L-8.27566 658.668ZM-8.27566 728.062L-8.27567 796.068H59.7301V728.062H-8.27566ZM61.118 728.062V796.068H129.125V728.062H61.118ZM130.513 728.062V796.068H198.519V728.062H130.513ZM199.906 728.062V796.068H267.913V728.062H199.906ZM269.301 728.062V796.068H337.307V728.062H269.301ZM338.695 728.062V796.068H406.702V728.062H338.695ZM408.09 728.062V796.068H476.095V728.062H408.09ZM477.483 728.062V796.068H545.489V728.062H477.483ZM546.877 728.062V796.068H614.884V728.062H546.877ZM616.272 728.062V796.068H684.276V728.062H616.272ZM685.664 728.062V796.068L753.671 796.068V728.062L685.664 728.062ZM755.059 728.062V796.068H823.066V728.062H755.059ZM824.454 728.062V796.068H892.46V728.062H824.454ZM893.847 728.062V796.068H961.853V728.062H893.847ZM963.241 728.062V796.068H1031.25V728.062H963.241ZM1032.64 728.062V796.068H1100.64V728.062H1032.64ZM1102.03 728.062V796.068H1170.04V728.062H1102.03ZM1171.42 728.062V796.068H1239.43V728.062H1171.42ZM1240.82 728.062V796.068H1308.82V728.062H1240.82ZM1310.21 728.062V796.068H1378.22V728.062H1310.21ZM1379.61 728.062V796.068H1447.61V728.062H1379.61ZM1379.61 797.456H1447.61V865.462H1379.61V797.456ZM1310.21 797.456H1378.22V865.462H1310.21V797.456ZM1240.82 797.456H1308.82V865.462H1240.82V797.456ZM1171.42 797.456H1239.43V865.462H1171.42V797.456ZM1102.03 797.456H1170.04V865.462H1102.03V797.456ZM1032.64 797.456H1100.64V865.462H1032.64V797.456ZM963.241 797.456H1031.25V865.462H963.241V797.456ZM893.847 797.456H961.853V865.462H893.847V797.456ZM824.454 797.456H892.46V865.462H824.454V797.456ZM755.059 797.456H823.066V865.462H755.059V797.456ZM685.664 797.456L753.671 797.456V865.462L685.664 865.462V797.456ZM616.272 797.456H684.276V865.462H616.272V797.456ZM546.877 797.456H614.884V865.462H546.877V797.456ZM477.483 797.456H545.489V865.462H477.483V797.456ZM408.09 797.456H476.095V865.462H408.09V797.456ZM338.695 797.456H406.702V865.462H338.695V797.456ZM269.301 797.456H337.307V865.462H269.301V797.456ZM199.906 797.456H267.913V865.462H199.906V797.456ZM130.513 797.456H198.519V865.462H130.513V797.456ZM61.118 797.456H129.125V865.462H61.118V797.456ZM-8.27567 797.456H59.7301V865.462H-8.27567L-8.27567 797.456ZM-8.27567 866.85L-8.27567 934.856H59.7301V866.85H-8.27567ZM61.118 866.85V934.856H129.125V866.85H61.118ZM130.513 866.85V934.856H198.519V866.85H130.513ZM199.906 866.85V934.856H267.913V866.85H199.906ZM269.301 866.85V934.856H337.307V866.85H269.301ZM338.695 866.85V934.856H406.702V866.85H338.695ZM408.09 866.85V934.856H476.095V866.85H408.09ZM477.483 866.85V934.856H545.489V866.85H477.483ZM546.877 866.85V934.856H614.884V866.85H546.877ZM616.272 866.85V934.856H684.276V866.85H616.272ZM685.664 866.85V934.856L753.671 934.856V866.85L685.664 866.85ZM755.059 866.85V934.856H823.066V866.85H755.059ZM824.454 866.85V934.856H892.46V866.85H824.454ZM893.847 866.85V934.856H961.853V866.85H893.847ZM963.241 866.85V934.856H1031.25V866.85H963.241ZM1032.64 866.85V934.856H1100.64V866.85H1032.64ZM1102.03 866.85V934.856H1170.04V866.85H1102.03ZM1171.42 866.85V934.856H1239.43V866.85H1171.42ZM1240.82 866.85V934.856H1308.82V866.85H1240.82ZM1310.21 866.85V934.856H1378.22V866.85H1310.21ZM1379.61 866.85V934.856H1447.61V866.85H1379.61ZM1379.61 936.244H1447.61V1004.25H1379.61V936.244ZM1310.21 936.244H1378.22V1004.25H1310.21V936.244ZM1240.82 936.244H1308.82V1004.25H1240.82V936.244ZM1171.42 936.244H1239.43V1004.25H1171.42V936.244ZM1102.03 936.244H1170.04V1004.25H1102.03V936.244ZM1032.64 936.244H1100.64V1004.25H1032.64V936.244ZM963.241 936.244H1031.25V1004.25H963.241V936.244ZM893.847 936.244H961.853V1004.25H893.847V936.244ZM824.454 936.244H892.46V1004.25H824.454V936.244ZM755.059 936.244H823.066V1004.25H755.059V936.244ZM685.664 936.244H753.671V1004.25L685.664 1004.25V936.244ZM616.272 936.244H684.276V1004.25H616.272V936.244ZM546.877 936.244H614.884V1004.25H546.877V936.244ZM477.483 936.244H545.489V1004.25H477.483V936.244ZM408.09 936.244H476.095V1004.25H408.09V936.244ZM338.695 936.244H406.702V1004.25H338.695V936.244ZM269.301 936.244H337.307V1004.25H269.301V936.244ZM199.906 936.244H267.913V1004.25H199.906V936.244ZM130.513 936.244H198.519V1004.25H130.513V936.244ZM61.118 936.244H129.125V1004.25H61.118V936.244ZM-8.27567 936.244H59.7301V1004.25H-8.27568L-8.27567 936.244ZM-8.27568 1005.64L-8.27568 1073.64H59.7301V1005.64H-8.27568ZM61.118 1005.64V1073.64H129.125V1005.64H61.118ZM130.513 1005.64V1073.64H198.519V1005.64H130.513ZM199.906 1005.64V1073.64H267.913V1005.64H199.906ZM269.301 1005.64V1073.64H337.307V1005.64H269.301ZM338.695 1005.64V1073.64H406.702V1005.64H338.695ZM408.09 1005.64V1073.64H476.095V1005.64H408.09ZM477.483 1005.64V1073.64H545.489V1005.64H477.483ZM546.877 1005.64V1073.64H614.884V1005.64H546.877ZM616.272 1005.64V1073.64H684.276V1005.64H616.272ZM685.664 1005.64V1073.64H753.671V1005.64L685.664 1005.64ZM755.059 1005.64V1073.64H823.066V1005.64H755.059ZM824.454 1005.64V1073.64H892.46V1005.64H824.454ZM893.847 1005.64V1073.64H961.853V1005.64H893.847ZM963.241 1005.64V1073.64H1031.25V1005.64H963.241ZM1032.64 1005.64V1073.64H1100.64V1005.64H1032.64ZM1102.03 1005.64V1073.64H1170.04V1005.64H1102.03ZM1171.42 1005.64V1073.64H1239.43V1005.64H1171.42ZM1240.82 1005.64V1073.64H1308.82V1005.64H1240.82ZM1310.21 1005.64V1073.64H1378.22V1005.64H1310.21ZM1379.61 1005.64V1073.64H1447.61V1005.64H1379.61ZM1379.61 1075.03H1447.61V1143.04H1379.61V1075.03ZM1310.21 1075.03H1378.22V1143.04H1310.21V1075.03ZM1240.82 1075.03H1308.82V1143.04H1240.82V1075.03ZM1171.42 1075.03H1239.43V1143.04H1171.42V1075.03ZM1102.03 1075.03H1170.04V1143.04H1102.03V1075.03ZM1032.64 1075.03H1100.64V1143.04H1032.64V1075.03ZM963.241 1075.03H1031.25V1143.04H963.241V1075.03ZM893.847 1075.03H961.853V1143.04H893.847V1075.03ZM824.454 1075.03H892.46V1143.04H824.454V1075.03ZM755.059 1075.03H823.066V1143.04H755.059V1075.03ZM685.664 1075.03L753.671 1075.03V1143.04L685.664 1143.04V1075.03ZM616.272 1075.03H684.276V1143.04H616.272V1075.03ZM546.877 1075.03H614.884V1143.04H546.877V1075.03ZM477.483 1075.03H545.489V1143.04H477.483V1075.03ZM408.09 1075.03H476.095V1143.04H408.09V1075.03ZM338.695 1075.03H406.702V1143.04H338.695V1075.03ZM269.301 1075.03H337.307V1143.04H269.301V1075.03ZM199.906 1075.03H267.913V1143.04H199.906V1075.03ZM130.513 1075.03H198.519V1143.04H130.513V1075.03ZM61.118 1075.03H129.125V1143.04H61.118V1075.03ZM-8.27568 1075.03H59.7301V1143.04H-8.27568L-8.27568 1075.03ZM-8.27568 1144.43L-8.27568 1212.43H59.7301V1144.43H-8.27568ZM61.118 1144.43V1212.43H129.125V1144.43H61.118ZM130.513 1144.43V1212.43H198.519V1144.43H130.513ZM199.906 1144.43V1212.43H267.913V1144.43H199.906ZM269.301 1144.43V1212.43H337.307V1144.43H269.301ZM338.695 1144.43V1212.43H406.702V1144.43H338.695ZM408.09 1144.43V1212.43H476.095V1144.43H408.09ZM477.483 1144.43V1212.43H545.489V1144.43H477.483ZM546.877 1144.43V1212.43H614.884V1144.43H546.877ZM616.272 1144.43V1212.43H684.276V1144.43H616.272ZM685.664 1144.43V1212.43L753.671 1212.43V1144.43H685.664ZM755.059 1144.43V1212.43H823.066V1144.43H755.059ZM824.454 1144.43V1212.43H892.46V1144.43H824.454ZM893.847 1144.43V1212.43H961.853V1144.43H893.847ZM963.241 1144.43V1212.43H1031.25V1144.43H963.241ZM1032.64 1144.43V1212.43H1100.64V1144.43H1032.64ZM1102.03 1144.43V1212.43H1170.04V1144.43H1102.03ZM1171.42 1144.43V1212.43H1239.43V1144.43H1171.42ZM1240.82 1144.43V1212.43H1308.82V1144.43H1240.82ZM1310.21 1144.43V1212.43H1378.22V1144.43H1310.21ZM1379.61 1144.43V1212.43H1447.61V1144.43H1379.61ZM1379.61 1213.82H1447.61V1281.83H1379.61V1213.82ZM1310.21 1213.82H1378.22V1281.83H1310.21V1213.82ZM1240.82 1213.82H1308.82V1281.83H1240.82V1213.82ZM1171.42 1213.82H1239.43V1281.83H1171.42V1213.82ZM1102.03 1213.82H1170.04V1281.83H1102.03V1213.82ZM1032.64 1213.82H1100.64V1281.83H1032.64V1213.82ZM963.241 1213.82H1031.25V1281.83H963.241V1213.82ZM893.847 1213.82H961.853V1281.83H893.847V1213.82ZM824.454 1213.82H892.46V1281.83H824.454V1213.82ZM755.059 1213.82H823.066V1281.83H755.059V1213.82ZM685.664 1213.82H753.671V1281.83H685.664V1213.82ZM616.272 1213.82H684.276V1281.83H616.272V1213.82ZM546.877 1213.82H614.884V1281.83H546.877V1213.82ZM477.483 1213.82H545.489V1281.83H477.483V1213.82ZM408.09 1213.82H476.095V1281.83H408.09V1213.82ZM338.695 1213.82H406.702V1281.83H338.695V1213.82ZM269.301 1213.82H337.307V1281.83H269.301V1213.82ZM199.906 1213.82H267.913V1281.83H199.906V1213.82ZM130.513 1213.82H198.519V1281.83H130.513V1213.82ZM61.118 1213.82H129.125V1281.83H61.118V1213.82ZM-8.27568 1213.82H59.7301V1281.83H-8.27569L-8.27568 1213.82ZM-8.27569 1283.21L-8.27569 1351.22H59.7301V1283.21H-8.27569ZM61.118 1283.21V1351.22H129.125V1283.21H61.118ZM130.513 1283.21V1351.22H198.519V1283.21H130.513ZM199.906 1283.21V1351.22H267.913V1283.21H199.906ZM269.301 1283.21V1351.22H337.307V1283.21H269.301ZM338.695 1283.21V1351.22H406.702V1283.21H338.695ZM408.09 1283.21V1351.22H476.095V1283.21H408.09ZM477.483 1283.21V1351.22H545.489V1283.21H477.483ZM546.877 1283.21V1351.22H614.884V1283.21H546.877ZM616.272 1283.21V1351.22H684.276V1283.21H616.272ZM685.664 1283.21V1351.22L753.671 1351.22V1283.21L685.664 1283.21ZM755.059 1283.21V1351.22H823.066V1283.21H755.059ZM824.454 1283.21V1351.22H892.46V1283.21H824.454ZM893.847 1283.21V1351.22H961.853V1283.21H893.847ZM963.241 1283.21V1351.22H1031.25V1283.21H963.241ZM1032.64 1283.21V1351.22H1100.64V1283.21H1032.64ZM1102.03 1283.21V1351.22H1170.04V1283.21H1102.03ZM1171.42 1283.21V1351.22H1239.43V1283.21H1171.42ZM1240.82 1283.21V1351.22H1308.82V1283.21H1240.82ZM1310.21 1283.21V1351.22H1378.22V1283.21H1310.21ZM1379.61 1283.21V1351.22H1447.61V1283.21H1379.61Z"
    fill="url(#paint0_linear_990_3138)" />
  <defs>
    <linearGradient id="paint0_linear_990_3138" x1="1008.5" y1="76" x2="1008.5" y2="889" gradientUnits="userSpaceOnUse">
      <stop stop-opacity="0" />
      <stop offset="0.14106" stop-color="#040000" stop-opacity="0.28" />
      <stop offset="1" stop-color="#080000" />
    </linearGradient>
  </defs>
</svg>