<svg width="25" height="24" viewBox="0 0 25 24" fill="none" xmlns="http://www.w3.org/2000/svg">
    <rect x="0.5" y="0.000610352" width="24.0006" height="24.0006" rx="12.0003" fill="white" />
    <path
        d="M17.0785 16.4916C17.4092 16.4172 17.6062 16.0436 17.4419 15.725C17.0796 15.0227 16.5089 14.4054 15.7787 13.9351C14.8384 13.3293 13.6862 13.001 12.501 13.001C11.3157 13.001 10.1636 13.3293 9.22322 13.9351C8.4931 14.4054 7.92234 15.0227 7.56005 15.725C7.39571 16.0436 7.59268 16.4172 7.9234 16.4916C10.9427 17.1708 14.0593 17.1708 17.0785 16.4916Z"
        fill="white" />
    <path
        d="M12.501 12.001C14.1578 12.001 15.501 10.6578 15.501 9.00098C15.501 7.34412 14.1578 6.00098 12.501 6.00098C10.8441 6.00098 9.50098 7.34412 9.50098 9.00098C9.50098 10.6578 10.8441 12.001 12.501 12.001Z"
        fill="white" />
    <path
        d="M17.666 7.33331H8.33268C7.68835 7.33331 7.16602 7.85565 7.16602 8.49998V15.5C7.16602 16.1443 7.68835 16.6666 8.33268 16.6666H17.666C18.3103 16.6666 18.8327 16.1443 18.8327 15.5V8.49998C18.8327 7.85565 18.3103 7.33331 17.666 7.33331Z"
        stroke="#3A4CFF" stroke-width="1.16667" stroke-linecap="round" stroke-linejoin="round" />
    <path
        d="M18.8327 9.08331L13.6002 12.4083C13.4201 12.5211 13.2119 12.581 12.9993 12.581C12.7868 12.581 12.5786 12.5211 12.3985 12.4083L7.16602 9.08331"
        stroke="#3A4CFF" stroke-width="1.16667" stroke-linecap="round" stroke-linejoin="round" />
</svg>