<svg width="28" height="24" viewBox="0 0 28 24" fill="none" xmlns="http://www.w3.org/2000/svg">
<g clip-path="url(#clip0_2146_3513)">
<path d="M19.9437 1.58094L19.6755 1H19.0357H10.4643H9.82445L9.55633 1.58094L3.84204 13.9619L3.65039 14.3771L3.83915 14.7937L7.29153 22.4127L7.55763 23H8.20238H21.2976H21.9424L22.2085 22.4127L25.6609 14.7937L25.8496 14.3771L25.658 13.9619L19.9437 1.58094Z" fill="#FBFF1E" stroke="black" stroke-width="2"/>
<path d="M9.55078 0L2.55078 14.8571L6.77995 24" stroke="black" stroke-width="2.67"/>
<path d="M14.25 18V17H11.75V15H16.75V13H12.75C12.4667 13 12.2292 12.9042 12.0375 12.7125C11.8458 12.5208 11.75 12.2833 11.75 12V8C11.75 7.71667 11.8458 7.47917 12.0375 7.2875C12.2292 7.09583 12.4667 7 12.75 7H14.25V6H16.25V7H18.75V9H13.75V11H17.75C18.0333 11 18.2708 11.0958 18.4625 11.2875C18.6542 11.4792 18.75 11.7167 18.75 12V16C18.75 16.2833 18.6542 16.5208 18.4625 16.7125C18.2708 16.9042 18.0333 17 17.75 17H16.25V18H14.25Z" fill="black"/>
</g>
<defs>
<clipPath id="clip0_2146_3513">
<rect width="27" height="24" fill="white" transform="translate(0.75)"/>
</clipPath>
</defs>
</svg>
