<svg width="16" height="16" viewBox="0 0 16 16" fill="none" xmlns="http://www.w3.org/2000/svg">
<g id="Icon" clip-path="url(#clip0_151_172)">
<path id="Subtract" fill-rule="evenodd" clip-rule="evenodd" d="M16.0004 8C16.0004 12.4184 12.4186 16.0002 8.00022 16.0002C3.58182 16.0002 0 12.4184 0 8C0 3.58161 3.58182 -0.000213623 8.00022 -0.000213623C12.4186 -0.000213623 16.0004 3.58161 16.0004 8ZM8.72715 3.19991C8.72715 2.79822 8.40152 2.47259 7.99984 2.47259C7.59815 2.47259 7.27252 2.79822 7.27252 3.19991V8.00004C7.27252 8.27552 7.42817 8.52736 7.67457 8.65056L10.8747 10.2506C11.2339 10.4302 11.6708 10.2846 11.8505 9.92534C12.0301 9.56607 11.8845 9.12919 11.5252 8.94955L8.72715 7.55053V3.19991Z" fill="#121212"/>
</g>
<defs>
<clipPath id="clip0_151_172">
<rect width="16.0004" height="16.0004" fill="white"/>
</clipPath>
</defs>
</svg>
