<svg width="1284" height="164" viewBox="0 0 1284 164" fill="none" xmlns="http://www.w3.org/2000/svg">
<mask id="path-1-outside-1_925_2309" maskUnits="userSpaceOnUse" x="0" y="0" width="1284" height="164" fill="black">
<rect fill="white" width="1284" height="164"/>
<path d="M35.7354 162C29.505 162 23.8065 160.519 18.6398 157.556C13.625 154.593 9.59807 150.667 6.55884 145.778C3.51961 140.741 2 135.185 2 129.111V34.8889C2 28.8148 3.51961 23.3333 6.55884 18.4444C9.59807 13.4074 13.625 9.40741 18.6398 6.44444C23.8065 3.48148 29.505 2 35.7354 2H165.662V36.6667H44.8531C42.4217 36.6667 40.5222 37.2593 39.1546 38.4444C37.9389 39.6296 37.331 41.4815 37.331 44V120C37.331 122.37 37.9389 124.222 39.1546 125.556C40.5222 126.741 42.4217 127.333 44.8531 127.333H165.662V162H35.7354ZM222.709 162C216.63 162 211.007 160.519 205.841 157.556C200.674 154.593 196.571 150.593 193.532 145.556C190.493 140.519 188.973 135.037 188.973 129.111V34.8889C188.973 28.8148 190.493 23.3333 193.532 18.4444C196.571 13.4074 200.674 9.40741 205.841 6.44444C211.007 3.48148 216.63 2 222.709 2H319.356C325.434 2 330.981 3.48148 335.996 6.44444C341.162 9.40741 345.265 13.4074 348.305 18.4444C351.496 23.3333 353.091 28.8148 353.091 34.8889V129.111C353.091 135.037 351.496 140.519 348.305 145.556C345.265 150.593 341.162 154.593 335.996 157.556C330.981 160.519 325.434 162 319.356 162H222.709ZM224.304 127.333H317.305V36.6667H224.304V127.333ZM411.473 162C405.395 162 399.772 160.519 394.605 157.556C389.439 154.593 385.336 150.593 382.297 145.556C379.257 140.519 377.738 135.037 377.738 129.111V2H413.069V127.333H506.069V2H541.856V129.111C541.856 135.037 540.26 140.519 537.069 145.556C534.03 150.593 529.927 154.593 524.76 157.556C519.746 160.519 514.199 162 508.121 162H411.473ZM694.378 162L646.738 106.667H693.01L730.848 150.222V162H694.378ZM566.958 162V2.22222H697.113C703.344 2.22222 708.966 3.7037 713.981 6.66666C719.147 9.62963 723.25 13.6296 726.29 18.6667C729.481 23.7037 731.076 29.1852 731.076 35.1111V76.4444C731.076 82.3704 729.481 87.8519 726.29 92.8889C723.25 97.9259 719.147 101.926 713.981 104.889C708.966 107.852 703.344 109.333 697.113 109.333L602.289 109.556V162H566.958ZM602.289 74.6667H695.289V36.6667H602.289V74.6667ZM788.334 162C782.256 162 776.633 160.519 771.467 157.556C766.3 154.593 762.197 150.593 759.158 145.556C756.119 140.519 754.599 135.037 754.599 129.111V114.222H789.93V127.333H882.93V99.3333H788.334C782.256 99.3333 776.633 97.8519 771.467 94.8889C766.3 91.9259 762.197 88 759.158 83.1111C756.119 78.0741 754.599 72.5185 754.599 66.4444V34.8889C754.599 28.8148 756.119 23.3333 759.158 18.4444C762.197 13.4074 766.3 9.40741 771.467 6.44444C776.633 3.48148 782.256 2 788.334 2H884.982C891.06 2 896.607 3.48148 901.622 6.44444C906.788 9.40741 910.891 13.4074 913.931 18.4444C917.122 23.3333 918.717 28.8148 918.717 34.8889V49.7778H882.93V36.6667H789.93V64.6667H884.982C891.06 64.6667 896.607 66.1481 901.622 69.1111C906.788 72.0741 910.891 76.0741 913.931 81.1111C917.122 86 918.717 91.4815 918.717 97.5555V129.111C918.717 135.037 917.122 140.519 913.931 145.556C910.891 150.593 906.788 154.593 901.622 157.556C896.607 160.519 891.06 162 884.982 162H788.334ZM944.275 162V2H1095.86V36.6667H980.062V64.6667H1073.29V99.3333H980.062V127.333H1095.86V162H944.275ZM1151.62 162C1145.54 162 1139.92 160.519 1134.75 157.556C1129.58 154.593 1125.48 150.593 1122.44 145.556C1119.4 140.519 1117.88 135.037 1117.88 129.111V114.222H1153.21V127.333H1246.21V99.3333H1151.62C1145.54 99.3333 1139.92 97.8519 1134.75 94.8889C1129.58 91.9259 1125.48 88 1122.44 83.1111C1119.4 78.0741 1117.88 72.5185 1117.88 66.4444V34.8889C1117.88 28.8148 1119.4 23.3333 1122.44 18.4444C1125.48 13.4074 1129.58 9.40741 1134.75 6.44444C1139.92 3.48148 1145.54 2 1151.62 2H1248.26C1254.34 2 1259.89 3.48148 1264.9 6.44444C1270.07 9.40741 1274.17 13.4074 1277.21 18.4444C1280.4 23.3333 1282 28.8148 1282 34.8889V49.7778H1246.21V36.6667H1153.21V64.6667H1248.26C1254.34 64.6667 1259.89 66.1481 1264.9 69.1111C1270.07 72.0741 1274.17 76.0741 1277.21 81.1111C1280.4 86 1282 91.4815 1282 97.5555V129.111C1282 135.037 1280.4 140.519 1277.21 145.556C1274.17 150.593 1270.07 154.593 1264.9 157.556C1259.89 160.519 1254.34 162 1248.26 162H1151.62Z"/>
</mask>
<path d="M35.7354 162C29.505 162 23.8065 160.519 18.6398 157.556C13.625 154.593 9.59807 150.667 6.55884 145.778C3.51961 140.741 2 135.185 2 129.111V34.8889C2 28.8148 3.51961 23.3333 6.55884 18.4444C9.59807 13.4074 13.625 9.40741 18.6398 6.44444C23.8065 3.48148 29.505 2 35.7354 2H165.662V36.6667H44.8531C42.4217 36.6667 40.5222 37.2593 39.1546 38.4444C37.9389 39.6296 37.331 41.4815 37.331 44V120C37.331 122.37 37.9389 124.222 39.1546 125.556C40.5222 126.741 42.4217 127.333 44.8531 127.333H165.662V162H35.7354ZM222.709 162C216.63 162 211.007 160.519 205.841 157.556C200.674 154.593 196.571 150.593 193.532 145.556C190.493 140.519 188.973 135.037 188.973 129.111V34.8889C188.973 28.8148 190.493 23.3333 193.532 18.4444C196.571 13.4074 200.674 9.40741 205.841 6.44444C211.007 3.48148 216.63 2 222.709 2H319.356C325.434 2 330.981 3.48148 335.996 6.44444C341.162 9.40741 345.265 13.4074 348.305 18.4444C351.496 23.3333 353.091 28.8148 353.091 34.8889V129.111C353.091 135.037 351.496 140.519 348.305 145.556C345.265 150.593 341.162 154.593 335.996 157.556C330.981 160.519 325.434 162 319.356 162H222.709ZM224.304 127.333H317.305V36.6667H224.304V127.333ZM411.473 162C405.395 162 399.772 160.519 394.605 157.556C389.439 154.593 385.336 150.593 382.297 145.556C379.257 140.519 377.738 135.037 377.738 129.111V2H413.069V127.333H506.069V2H541.856V129.111C541.856 135.037 540.26 140.519 537.069 145.556C534.03 150.593 529.927 154.593 524.76 157.556C519.746 160.519 514.199 162 508.121 162H411.473ZM694.378 162L646.738 106.667H693.01L730.848 150.222V162H694.378ZM566.958 162V2.22222H697.113C703.344 2.22222 708.966 3.7037 713.981 6.66666C719.147 9.62963 723.25 13.6296 726.29 18.6667C729.481 23.7037 731.076 29.1852 731.076 35.1111V76.4444C731.076 82.3704 729.481 87.8519 726.29 92.8889C723.25 97.9259 719.147 101.926 713.981 104.889C708.966 107.852 703.344 109.333 697.113 109.333L602.289 109.556V162H566.958ZM602.289 74.6667H695.289V36.6667H602.289V74.6667ZM788.334 162C782.256 162 776.633 160.519 771.467 157.556C766.3 154.593 762.197 150.593 759.158 145.556C756.119 140.519 754.599 135.037 754.599 129.111V114.222H789.93V127.333H882.93V99.3333H788.334C782.256 99.3333 776.633 97.8519 771.467 94.8889C766.3 91.9259 762.197 88 759.158 83.1111C756.119 78.0741 754.599 72.5185 754.599 66.4444V34.8889C754.599 28.8148 756.119 23.3333 759.158 18.4444C762.197 13.4074 766.3 9.40741 771.467 6.44444C776.633 3.48148 782.256 2 788.334 2H884.982C891.06 2 896.607 3.48148 901.622 6.44444C906.788 9.40741 910.891 13.4074 913.931 18.4444C917.122 23.3333 918.717 28.8148 918.717 34.8889V49.7778H882.93V36.6667H789.93V64.6667H884.982C891.06 64.6667 896.607 66.1481 901.622 69.1111C906.788 72.0741 910.891 76.0741 913.931 81.1111C917.122 86 918.717 91.4815 918.717 97.5555V129.111C918.717 135.037 917.122 140.519 913.931 145.556C910.891 150.593 906.788 154.593 901.622 157.556C896.607 160.519 891.06 162 884.982 162H788.334ZM944.275 162V2H1095.86V36.6667H980.062V64.6667H1073.29V99.3333H980.062V127.333H1095.86V162H944.275ZM1151.62 162C1145.54 162 1139.92 160.519 1134.75 157.556C1129.58 154.593 1125.48 150.593 1122.44 145.556C1119.4 140.519 1117.88 135.037 1117.88 129.111V114.222H1153.21V127.333H1246.21V99.3333H1151.62C1145.54 99.3333 1139.92 97.8519 1134.75 94.8889C1129.58 91.9259 1125.48 88 1122.44 83.1111C1119.4 78.0741 1117.88 72.5185 1117.88 66.4444V34.8889C1117.88 28.8148 1119.4 23.3333 1122.44 18.4444C1125.48 13.4074 1129.58 9.40741 1134.75 6.44444C1139.92 3.48148 1145.54 2 1151.62 2H1248.26C1254.34 2 1259.89 3.48148 1264.9 6.44444C1270.07 9.40741 1274.17 13.4074 1277.21 18.4444C1280.4 23.3333 1282 28.8148 1282 34.8889V49.7778H1246.21V36.6667H1153.21V64.6667H1248.26C1254.34 64.6667 1259.89 66.1481 1264.9 69.1111C1270.07 72.0741 1274.17 76.0741 1277.21 81.1111C1280.4 86 1282 91.4815 1282 97.5555V129.111C1282 135.037 1280.4 140.519 1277.21 145.556C1274.17 150.593 1270.07 154.593 1264.9 157.556C1259.89 160.519 1254.34 162 1248.26 162H1151.62Z" stroke="url(#paint0_linear_925_2309)" stroke-opacity="0.2" stroke-width="4" mask="url(#path-1-outside-1_925_2309)"/>
<defs>
<linearGradient id="paint0_linear_925_2309" x1="571.5" y1="-209.5" x2="571.5" y2="162" gradientUnits="userSpaceOnUse">
<stop stop-color="white"/>
<stop offset="1" stop-color="white" stop-opacity="0"/>
</linearGradient>
</defs>
</svg>
