<svg width="32" height="32" viewBox="0 0 32 32" fill="none" xmlns="http://www.w3.org/2000/svg">
<g id="discord-icon-svgrepo-com 1">
<g id="Group">
<path id="Vector" d="M24.3313 8.21475C22.7777 7.48787 21.1166 6.95961 19.3799 6.65881C19.1666 7.04442 18.9174 7.56308 18.7456 7.97567C16.8995 7.69803 15.0703 7.69803 13.2581 7.97567C13.0864 7.56308 12.8315 7.04442 12.6163 6.65881C10.8778 6.95961 9.21473 7.48981 7.66117 8.21859C4.52762 12.9538 3.67817 17.5714 4.10289 22.1234C6.18123 23.6755 8.19539 24.6183 10.1756 25.2352C10.6645 24.5624 11.1005 23.8471 11.4762 23.0932C10.7607 22.8214 10.0755 22.4859 9.42805 22.0964C9.59982 21.9692 9.76783 21.8361 9.93016 21.6992C13.8792 23.5463 18.1699 23.5463 22.0717 21.6992C22.2359 21.8361 22.4039 21.9692 22.5738 22.0964C21.9245 22.4878 21.2374 22.8233 20.5219 23.0952C20.8976 23.8471 21.3317 24.5643 21.8225 25.2372C23.8046 24.6202 25.8206 23.6774 27.899 22.1234C28.3973 16.8465 27.0476 12.2713 24.3313 8.21475ZM12.0142 19.324C10.8287 19.324 9.85653 18.2173 9.85653 16.8696C9.85653 15.5219 10.8079 14.4133 12.0142 14.4133C13.2204 14.4133 14.1925 15.52 14.1718 16.8696C14.1737 18.2173 13.2204 19.324 12.0142 19.324ZM19.9877 19.324C18.8023 19.324 17.8301 18.2173 17.8301 16.8696C17.8301 15.5219 18.7815 14.4133 19.9877 14.4133C21.1939 14.4133 22.1661 15.52 22.1453 16.8696C22.1453 18.2173 21.1939 19.324 19.9877 19.324Z" fill="white"/>
</g>
</g>
</svg>
