<svg width="24" height="24" viewBox="0 0 24 24" fill="none" xmlns="http://www.w3.org/2000/svg">
    <rect width="24" height="24" rx="4" fill="#5865F2" />
    <path
        d="M18.2477 6.16109C17.0825 5.61593 15.8367 5.21974 14.5342 4.99414C14.3742 5.28335 14.1873 5.67234 14.0585 5.98178C12.6739 5.77355 11.302 5.77355 9.94287 5.98178C9.81404 5.67234 9.62292 5.28335 9.46152 4.99414C8.15761 5.21974 6.91032 5.61739 5.74514 6.16398C3.39498 9.71538 2.75789 13.1786 3.07644 16.5926C4.63519 17.7566 6.14581 18.4637 7.63093 18.9265C7.99762 18.4218 8.32465 17.8853 8.60638 17.3199C8.06981 17.1161 7.5559 16.8645 7.07031 16.5724C7.19913 16.4769 7.32514 16.3771 7.44689 16.2745C10.4086 17.6598 13.6267 17.6598 16.5531 16.2745C16.6762 16.3771 16.8022 16.4769 16.9296 16.5724C16.4426 16.8659 15.9273 17.1175 15.3907 17.3214C15.6724 17.8853 15.9981 18.4233 16.3662 18.9279C17.8527 18.4652 19.3647 17.7581 20.9235 16.5926C21.2973 12.6349 20.285 9.20349 18.2477 6.16109ZM9.00988 14.493C8.12079 14.493 7.39166 13.663 7.39166 12.6522C7.39166 11.6415 8.10522 10.81 9.00988 10.81C9.91457 10.81 10.6437 11.64 10.6281 12.6522C10.6295 13.663 9.91457 14.493 9.00988 14.493ZM14.9901 14.493C14.101 14.493 13.3718 13.663 13.3718 12.6522C13.3718 11.6415 14.0854 10.81 14.9901 10.81C15.8947 10.81 16.6238 11.64 16.6083 12.6522C16.6083 13.663 15.8947 14.493 14.9901 14.493Z"
        fill="white" />
</svg>