<svg width="32" height="32" viewBox="0 0 32 32" fill="none" xmlns="http://www.w3.org/2000/svg">
<g id="github-icon-svgrepo-com 2">
<path id="Vector" fill-rule="evenodd" clip-rule="evenodd" d="M16.001 4.03284C9.37098 4.03284 4.00098 9.40284 4.00098 16.0328C4.00098 21.3428 7.43598 25.8278 12.206 27.4178C12.806 27.5228 13.031 27.1628 13.031 26.8478C13.031 26.5628 13.016 25.6178 13.016 24.6128C10.001 25.1678 9.22098 23.8778 8.98098 23.2028C8.84598 22.8578 8.26098 21.7928 7.75098 21.5078C7.33098 21.2828 6.73098 20.7278 7.73598 20.7128C8.68098 20.6978 9.35598 21.5828 9.58098 21.9428C10.661 23.7578 12.386 23.2478 13.076 22.9328C13.181 22.1528 13.496 21.6278 13.841 21.3278C11.171 21.0278 8.38098 19.9928 8.38098 15.4028C8.38098 14.0978 8.84598 13.0178 9.61098 12.1778C9.49098 11.8778 9.07098 10.6478 9.73098 8.99784C9.73098 8.99784 10.736 8.68284 13.031 10.2278C13.991 9.95784 15.011 9.82284 16.031 9.82284C17.051 9.82284 18.071 9.95784 19.031 10.2278C21.326 8.66784 22.331 8.99784 22.331 8.99784C22.991 10.6478 22.571 11.8778 22.451 12.1778C23.216 13.0178 23.681 14.0828 23.681 15.4028C23.681 20.0078 20.876 21.0278 18.206 21.3278C18.641 21.7028 19.016 22.4228 19.016 23.5478C19.016 25.1528 19.001 26.4428 19.001 26.8478C19.001 27.1628 19.226 27.5378 19.826 27.4178C24.566 25.8278 28.001 21.3278 28.001 16.0328C28.001 9.40284 22.631 4.03284 16.001 4.03284Z" fill="white"/>
</g>
</svg>
