<svg width="24" height="24" viewBox="0 0 24 24" fill="none" xmlns="http://www.w3.org/2000/svg">
<rect width="24" height="24" rx="4" fill="#3A59FE"/>
<path fill-rule="evenodd" clip-rule="evenodd" d="M12 3.02466C7.0275 3.02466 3 7.05216 3 12.0247C3 16.0072 5.57625 19.3709 9.15375 20.5634C9.60375 20.6422 9.7725 20.3722 9.7725 20.1359C9.7725 19.9222 9.76125 19.2134 9.76125 18.4597C7.5 18.8759 6.915 17.9084 6.735 17.4022C6.63375 17.1434 6.195 16.3447 5.8125 16.1309C5.4975 15.9622 5.0475 15.5459 5.80125 15.5347C6.51 15.5234 7.01625 16.1872 7.185 16.4572C7.995 17.8184 9.28875 17.4359 9.80625 17.1997C9.885 16.6147 10.1213 16.2209 10.38 15.9959C8.3775 15.7709 6.285 14.9947 6.285 11.5522C6.285 10.5734 6.63375 9.76341 7.2075 9.13341C7.1175 8.90841 6.8025 7.98591 7.2975 6.74841C7.2975 6.74841 8.05125 6.51216 9.7725 7.67091C10.4925 7.46841 11.2575 7.36716 12.0225 7.36716C12.7875 7.36716 13.5525 7.46841 14.2725 7.67091C15.9938 6.50091 16.7475 6.74841 16.7475 6.74841C17.2425 7.98591 16.9275 8.90841 16.8375 9.13341C17.4113 9.76341 17.76 10.5622 17.76 11.5522C17.76 15.0059 15.6562 15.7709 13.6538 15.9959C13.98 16.2772 14.2613 16.8172 14.2613 17.6609C14.2613 18.8647 14.25 19.8322 14.25 20.1359C14.25 20.3722 14.4188 20.6534 14.8688 20.5634C18.4238 19.3709 21 15.9959 21 12.0247C21 7.05216 16.9725 3.02466 12 3.02466Z" fill="white"/>
</svg>
