<svg width="24" height="24" viewBox="0 0 24 24" fill="none" xmlns="http://www.w3.org/2000/svg">
<rect x="-0.00195312" y="-0.000488281" width="24.0006" height="24.0006" rx="12.0003" fill="black"/>
<path d="M16.5756 16.4906C16.9063 16.4162 17.1033 16.0426 16.939 15.724C16.5767 15.0217 16.0059 14.4045 15.2758 13.9341C14.3354 13.3284 13.1833 13 11.9981 13C10.8128 13 9.66063 13.3284 8.72029 13.9341C7.99017 14.4045 7.41941 15.0217 7.05712 15.724C6.89278 16.0426 7.08975 16.4162 7.42047 16.4906C10.4397 17.1698 13.5563 17.1698 16.5756 16.4906Z" fill="white"/>
<path d="M11.998 12C13.6549 12 14.998 10.6569 14.998 9C14.998 7.34315 13.6549 6 11.998 6C10.3412 6 8.99805 7.34315 8.99805 9C8.99805 10.6569 10.3412 12 11.998 12Z" fill="white"/>
</svg>
