<svg width="111" height="811" viewBox="0 0 111 811" fill="none" xmlns="http://www.w3.org/2000/svg">
<path opacity="0.2" d="M33.4 809.41C26.968 809.41 21.304 807.73 16.408 804.37C11.416 801.01 7.52799 796.402 4.74399 790.546C1.864 784.594 0.423999 777.826 0.423999 770.242C0.423999 762.562 1.768 755.938 4.456 750.37C7.144 744.802 10.936 740.53 15.832 737.554C20.728 734.482 26.536 732.946 33.256 732.946V756.13C29.512 756.13 26.584 757.426 24.472 760.018C22.264 762.61 21.16 766.114 21.16 770.53C21.16 775.234 22.168 779.026 24.184 781.906C26.2 784.69 28.984 786.082 32.536 786.082C35.8 786.082 38.296 785.218 40.024 783.49C41.752 781.762 43 779.026 43.768 775.282L47.08 759.298C49 749.794 52.36 742.738 57.16 738.13C61.864 733.522 68.44 731.218 76.888 731.218C83.704 731.218 89.704 732.898 94.888 736.258C99.976 739.618 103.912 744.37 106.696 750.514C109.48 756.562 110.872 763.666 110.872 771.826C110.872 779.698 109.528 786.61 106.84 792.562C104.152 798.418 100.36 802.978 95.464 806.242C90.472 809.41 84.664 810.994 78.04 810.994V787.81C81.88 787.81 84.856 786.418 86.968 783.634C89.08 780.85 90.136 776.866 90.136 771.682C90.136 766.402 89.176 762.226 87.256 759.154C85.24 756.082 82.552 754.546 79.192 754.546C76.216 754.546 73.912 755.314 72.28 756.85C70.648 758.29 69.496 760.786 68.824 764.338L65.512 780.61C63.592 790.114 59.944 797.314 54.568 802.21C49.192 807.01 42.136 809.41 33.4 809.41ZM109 692.428L109 715.756H2.44V692.428H44.488V651.244H2.44V627.916H109V651.244H66.088V692.428H109ZM109 591.243V615.579L2.44 577.563V554.811L109 516.939V541.707L86.536 549.195V583.611L109 591.243ZM44.2 569.211L66.952 576.843V555.819L44.2 563.451C42.376 564.027 40.504 564.603 38.584 565.179C36.664 565.755 35.08 566.139 33.832 566.331C35.08 566.523 36.664 566.907 38.584 567.483C40.408 567.963 42.28 568.539 44.2 569.211ZM109 481.209V504.537H2.44L2.44 463.353C2.44 450.393 5.464 440.409 11.512 433.401C17.464 426.297 25.96 422.745 37 422.745C43.912 422.745 49.816 424.233 54.712 427.209C59.608 430.089 63.592 434.505 66.664 440.457L109 421.737V447.225L71.704 463.209L71.704 481.209H109ZM23.176 481.209H51.256L51.256 463.497C51.256 458.409 50.008 454.473 47.512 451.689C45.016 448.809 41.512 447.369 37 447.369C32.488 447.369 29.08 448.761 26.776 451.545C24.376 454.233 23.176 458.169 23.176 463.353V481.209ZM109 363.636V405.396H2.44L2.44 365.076C2.44 354.612 4.696 345.444 9.208 337.572C13.72 329.604 20.008 323.364 28.072 318.852C36.136 314.34 45.448 312.084 56.008 312.084C66.376 312.084 75.544 314.292 83.512 318.708C91.48 323.028 97.72 329.076 102.232 336.852C106.744 344.532 109 353.46 109 363.636ZM13.096 382.068H98.632L87.4 393.156V365.94C87.4 359.796 86.152 354.564 83.656 350.244C81.16 345.828 77.56 342.468 72.856 340.164C68.152 337.86 62.536 336.708 56.008 336.708C49.288 336.708 43.576 337.956 38.872 340.452C34.072 342.852 30.424 346.356 27.928 350.964C25.336 355.476 24.04 360.948 24.04 367.38V393.156L13.096 382.068ZM109 228.169L109 295.849H2.44L2.44 228.169H24.04V279.001L17.992 272.521H44.92V233.209H65.368L65.368 272.521H93.448L87.4 279.001L87.4 228.169H109ZM68.968 209.804H2.44L2.44 186.476H67.384C74.104 186.476 79.24 184.7 82.792 181.148C86.344 177.596 88.12 172.556 88.12 166.028C88.12 159.404 86.296 154.316 82.648 150.764C79 147.116 73.912 145.292 67.384 145.292H2.44V121.964H68.968C77.416 121.964 84.76 123.788 91 127.436C97.24 130.988 102.088 136.076 105.544 142.7C109 149.324 110.728 157.1 110.728 166.028C110.728 174.86 109.048 182.588 105.688 189.212C102.232 195.74 97.384 200.828 91.144 204.476C84.808 208.028 77.416 209.804 68.968 209.804ZM109 77.9134V100.521H2.44L2.44 77.9134L81.928 46.2334L2.44 14.4094V-8.48663H109L109 14.1214H86.68C80.92 14.1214 76.168 14.1214 72.424 14.1214C68.68 14.1214 65.56 14.0734 63.064 13.9774C60.568 13.8814 58.408 13.7854 56.584 13.6894C54.664 13.4974 52.696 13.2574 50.68 12.9694L109 35.5774V56.8894L50.68 79.3534C54.616 78.6814 58.888 78.2974 63.496 78.2014C68.104 78.0094 73.336 77.9134 79.192 77.9134H109Z" fill="url(#paint0_linear_150_894)"/>
<defs>
<linearGradient id="paint0_linear_150_894" x1="126.214" y1="663.5" x2="126.214" y2="-44.0288" gradientUnits="userSpaceOnUse">
<stop stop-color="white"/>
<stop offset="1" stop-color="white" stop-opacity="0"/>
</linearGradient>
</defs>
</svg>
