<svg width="84" height="84" viewBox="0 0 84 84" fill="none" xmlns="http://www.w3.org/2000/svg">
<g opacity="0.5">
<path d="M10.1694 55.9129C4.93961 52.2509 3.66861 45.0427 7.33057 39.8129L28.0871 10.1694C31.7491 4.93961 38.9573 3.66861 44.1871 7.33057L73.8306 28.0871C79.0604 31.7491 80.3314 38.9573 76.6694 44.1871L55.9129 73.8306C52.2509 79.0604 45.0427 80.3314 39.8129 76.6694L10.1694 55.9129Z" fill="white" fill-opacity="0.15"/>
<path d="M10.1694 55.9129C4.93961 52.2509 3.66861 45.0427 7.33057 39.8129L28.0871 10.1694C31.7491 4.93961 38.9573 3.66861 44.1871 7.33057L73.8306 28.0871C79.0604 31.7491 80.3314 38.9573 76.6694 44.1871L55.9129 73.8306C52.2509 79.0604 45.0427 80.3314 39.8129 76.6694L10.1694 55.9129Z" stroke="#5D89FF"/>
<path d="M46.2819 44.9982L51.6342 48.7459M47.1391 39.2172L54.6323 44.464M45.8555 31.9372L57.6305 40.1822M39.8614 24.5495L42.636 40.2853C42.651 40.3699 42.6492 40.4566 42.6307 40.5405C42.6121 40.6245 42.5772 40.7039 42.5279 40.7743C42.4786 40.8447 42.4159 40.9047 42.3434 40.9508C42.2709 40.9969 42.19 41.0283 42.1053 41.0431L36.1139 42.0996C35.9432 42.1297 35.7916 42.2263 35.6922 42.3683C35.5928 42.5102 35.5539 42.6858 35.5839 42.8564L37.716 54.9532M42.4265 55.0609L45.6378 57.3095M41.1428 47.7809L48.636 53.0277" stroke="white" stroke-width="2" stroke-linecap="round" stroke-linejoin="round"/>
</g>
</svg>
