<svg width="84" height="84" viewBox="0 0 84 84" fill="none" xmlns="http://www.w3.org/2000/svg">
<g opacity="0.5">
<rect x="-0.7" y="-0.123429" width="59" height="59" rx="11.5" transform="matrix(-0.576571 -0.823429 -0.823429 0.576571 82.7948 48.7771)" fill="white" fill-opacity="0.15"/>
<rect x="-0.7" y="-0.123429" width="59" height="59" rx="11.5" transform="matrix(-0.576571 -0.823429 -0.823429 0.576571 82.7948 48.7771)" stroke="#5D89FF"/>
<path d="M26.3708 40.1844L30.6526 37.1862M27.0126 36.5444L30.0108 40.8262M53.3499 46.8181L55.4908 45.319M53.6708 44.9981L55.1699 47.139M47.2942 41.5871C46.9906 41.9421 46.7878 42.3719 46.7067 42.8318C46.6256 43.2918 46.6692 43.7651 46.833 44.2024L49.738 51.9555C49.7846 52.0898 49.7862 52.2356 49.7425 52.3709C49.6987 52.5062 49.612 52.6235 49.4955 52.7051C49.3791 52.7866 49.2392 52.828 49.0971 52.8228C48.955 52.8177 48.8185 52.7663 48.7082 52.6765L42.4152 47.2958C42.0605 46.9923 41.6309 46.7894 41.1711 46.7082C40.7114 46.627 40.2383 46.6704 39.801 46.8339L32.0479 49.7389C31.9134 49.7861 31.7671 49.7881 31.6314 49.7445C31.4956 49.7009 31.3778 49.614 31.296 49.4972C31.2143 49.3804 31.1729 49.24 31.1784 49.0976C31.1838 48.9551 31.2357 48.8183 31.3261 48.708L36.7084 42.4172C37.0119 42.0622 37.2148 41.6324 37.2959 41.1724C37.377 40.7125 37.3333 40.2392 37.1695 39.8018L34.2635 32.0496C34.2155 31.9148 34.2131 31.7681 34.2567 31.6318C34.3002 31.4956 34.3872 31.3774 34.5043 31.2954C34.6215 31.2133 34.7623 31.172 34.9052 31.1777C35.0481 31.1834 35.1852 31.2359 35.2954 31.327L41.5862 36.7092C41.9412 37.0128 42.371 37.2156 42.831 37.2967C43.2909 37.3778 43.7642 37.3342 44.2016 37.1704L51.9546 34.2654C52.0891 34.2181 52.2354 34.2161 52.3712 34.2598C52.5069 34.3034 52.6247 34.3902 52.7065 34.5071C52.7883 34.6239 52.8296 34.7642 52.8242 34.9067C52.8187 35.0492 52.7668 35.186 52.6764 35.2963L47.2942 41.5871Z" stroke="white" stroke-width="2" stroke-linecap="round" stroke-linejoin="round"/>
</g>
</svg>
