<svg width="60" height="60" viewBox="0 0 60 60" fill="none" xmlns="http://www.w3.org/2000/svg">
<path d="M37.2 22.8L26.4 22.8C25.4452 22.8 24.5295 23.1793 23.8544 23.8544C23.1793 24.5295 22.8 25.4452 22.8 26.4C22.8 27.3548 23.1793 28.2705 23.8544 28.9456C24.5295 29.6207 25.4452 30 26.4 30L33.6 30C34.5548 30 35.4705 30.3793 36.1456 31.0544C36.8207 31.7295 37.2 32.6452 37.2 33.6C37.2 34.5548 36.8207 35.4705 36.1456 36.1456C35.4705 36.8207 34.5548 37.2 33.6 37.2L22.8 37.2M30 40.8L30 19.2M48 30C48 39.9411 39.9411 48 30 48C20.0589 48 12 39.9411 12 30C12 20.0589 20.0589 12 30 12C39.9411 12 48 20.0589 48 30Z" stroke="white" stroke-width="2.5" stroke-linecap="round" stroke-linejoin="round"/>
</svg>
