<svg width="60" height="60" viewBox="0 0 60 60" fill="none" xmlns="http://www.w3.org/2000/svg">
<g opacity="0.5">
<rect x="59.5" y="59.5" width="59" height="59" rx="11.5" transform="rotate(180 59.5 59.5)" fill="white" fill-opacity="0.15"/>
<rect x="59.5" y="59.5" width="59" height="59" rx="11.5" transform="rotate(180 59.5 59.5)" stroke="#5D89FF"/>
<path d="M24.8 35.2L32.6 35.2C33.2896 35.2 33.9509 34.9261 34.4385 34.4385C34.9261 33.9509 35.2 33.2896 35.2 32.6C35.2 31.9104 34.9261 31.2491 34.4385 30.7615C33.9509 30.2739 33.2896 30 32.6 30L27.4 30C26.7104 30 26.0491 29.7261 25.5615 29.2385C25.0739 28.7509 24.8 28.0896 24.8 27.4C24.8 26.7104 25.0739 26.0491 25.5615 25.5615C26.0491 25.0739 26.7104 24.8 27.4 24.8L35.2 24.8M30 22.2L30 37.8M17 30C17 22.8203 22.8203 17 30 17C37.1797 17 43 22.8203 43 30C43 37.1797 37.1797 43 30 43C22.8203 43 17 37.1797 17 30Z" stroke="white" stroke-width="2" stroke-linecap="round" stroke-linejoin="round"/>
</g>
</svg>
