<svg width="84" height="84" viewBox="0 0 84 84" fill="none" xmlns="http://www.w3.org/2000/svg">
<g opacity="0.5">
<rect x="49.2829" y="0.696364" width="59.3133" height="59.3133" rx="11.5" transform="rotate(55 49.2829 0.696364)" fill="white" fill-opacity="0.15"/>
<rect x="49.2829" y="0.696364" width="59.3133" height="59.3133" rx="11.5" transform="rotate(55 49.2829 0.696364)" stroke="#5D89FF"/>
<path d="M57.6291 43.8159L53.3473 46.8141M56.9873 47.4559L53.9891 43.1741M30.65 37.1822L28.5091 38.6813M30.3291 39.0022L28.83 36.8613M36.7058 42.4132C37.0093 42.0582 37.2122 41.6284 37.2933 41.1684C37.3744 40.7085 37.3307 40.2352 37.1669 39.7978L34.2619 32.0448C34.2153 31.9105 34.2137 31.7646 34.2575 31.6293C34.3012 31.4941 34.3879 31.3767 34.5044 31.2952C34.6209 31.2136 34.7608 31.1723 34.9028 31.1774C35.0449 31.1826 35.1815 31.234 35.2917 31.3237L41.5847 36.7045C41.9395 37.0079 42.3691 37.2108 42.8288 37.2921C43.2886 37.3733 43.7617 37.3299 44.199 37.1664L51.952 34.2614C52.0865 34.2141 52.2328 34.2121 52.3686 34.2558C52.5043 34.2994 52.6221 34.3862 52.7039 34.5031C52.7857 34.6199 52.827 34.7602 52.8216 34.9027C52.8161 35.0452 52.7643 35.182 52.6738 35.2922L47.2916 41.5831C46.988 41.938 46.7852 42.3679 46.7041 42.8278C46.623 43.2878 46.6666 43.7611 46.8304 44.1984L49.7365 51.9507C49.7844 52.0855 49.7868 52.2322 49.7433 52.3684C49.6998 52.5047 49.6128 52.6229 49.4956 52.7049C49.3785 52.7869 49.2377 52.8283 49.0948 52.8225C48.9519 52.8168 48.8148 52.7644 48.7046 52.6733L42.4137 47.291C42.0588 46.9875 41.6289 46.7846 41.169 46.7035C40.709 46.6224 40.2357 46.6661 39.7984 46.8299L32.0453 49.7349C31.9108 49.7821 31.7645 49.7841 31.6288 49.7405C31.493 49.6969 31.3752 49.61 31.2935 49.4932C31.2117 49.3764 31.1703 49.236 31.1758 49.0935C31.1812 48.9511 31.2331 48.8143 31.3235 48.704L36.7058 42.4132Z" stroke="white" stroke-width="2" stroke-linecap="round" stroke-linejoin="round"/>
</g>
</svg>
