<svg width="84" height="84" viewBox="0 0 84 84" fill="none" xmlns="http://www.w3.org/2000/svg">
<g opacity="0.5">
<rect x="83.3036" y="34.717" width="59.3133" height="59.3133" rx="11.5" transform="rotate(125 83.3036 34.717)" fill="white" fill-opacity="0.15"/>
<rect x="83.3036" y="34.717" width="59.3133" height="59.3133" rx="11.5" transform="rotate(125 83.3036 34.717)" stroke="#5D89FF"/>
<path d="M37.7182 39.0018L32.3659 35.2541M36.8609 44.7827L29.3677 39.5359M38.1446 52.0627L26.3696 43.8178M44.1387 59.4504L41.3641 43.7147C41.349 43.6301 41.3509 43.5434 41.3694 43.4594C41.388 43.3755 41.4229 43.2961 41.4722 43.2257C41.5215 43.1553 41.5842 43.0953 41.6567 43.0492C41.7292 43.003 41.8101 42.9717 41.8948 42.9568L47.8862 41.9004C48.0568 41.8703 48.2085 41.7736 48.3079 41.6317C48.4072 41.4898 48.4462 41.3142 48.4161 41.1436L46.2841 29.0468M41.5736 28.9391L38.3622 26.6905M42.8573 36.2191L35.3641 30.9723" stroke="white" stroke-width="2" stroke-linecap="round" stroke-linejoin="round"/>
</g>
</svg>
