<svg width="32" height="32" viewBox="0 0 32 32" fill="none" xmlns="http://www.w3.org/2000/svg">
<rect x="0.675" y="0.675" width="30.6509" height="30.6509" rx="15.3254" fill="#A4FF00"/>
<rect x="0.675" y="0.675" width="30.6509" height="30.6509" rx="15.3254" stroke="black" stroke-width="1.35"/>
<path d="M22.0547 11.4436H9.61024C8.75113 11.4436 8.05469 12.14 8.05469 12.9992V20.7769C8.05469 21.636 8.75113 22.3325 9.61024 22.3325H22.0547C22.9138 22.3325 23.6102 21.636 23.6102 20.7769V12.9992C23.6102 12.14 22.9138 11.4436 22.0547 11.4436Z" stroke="black" stroke-width="1.3" stroke-linecap="round" stroke-linejoin="round"/>
<path d="M18.941 22.3323V9.88783C18.941 9.47527 18.7771 9.07961 18.4854 8.78789C18.1936 8.49616 17.798 8.33228 17.3854 8.33228H14.2743C13.8617 8.33228 13.4661 8.49616 13.1744 8.78789C12.8826 9.07961 12.7188 9.47527 12.7188 9.88783V22.3323" stroke="black" stroke-width="1.3" stroke-linecap="round" stroke-linejoin="round"/>
</svg>
