<svg width="16" height="16" viewBox="0 0 16 16" fill="none" xmlns="http://www.w3.org/2000/svg">
    <g id="Icon">
        <path id="Subtract" fill-rule="evenodd" clip-rule="evenodd"
            d="M15.9999 8C15.9999 12.4184 12.4181 16.0002 7.99973 16.0002C3.58133 16.0002 -0.000488281 12.4184 -0.000488281 8C-0.000488281 3.58161 3.58133 -0.000213623 7.99973 -0.000213623C12.4181 -0.000213623 15.9999 3.58161 15.9999 8ZM8.4165 7.33334C8.4165 6.91913 8.08072 6.58334 7.6665 6.58334C7.25229 6.58334 6.9165 6.91913 6.9165 7.33334V10.6667C6.9165 11.0809 7.25229 11.4167 7.6665 11.4167C8.08072 11.4167 8.4165 11.0809 8.4165 10.6667V7.33334ZM10.9995 3.91666C11.4137 3.91666 11.7495 4.25244 11.7495 4.66666V10.6667C11.7495 11.0809 11.4137 11.4167 10.9995 11.4167C10.5853 11.4167 10.2495 11.0809 10.2495 10.6667V4.66666C10.2495 4.25244 10.5853 3.91666 10.9995 3.91666ZM5.08301 9.33331C5.08301 8.9191 4.74722 8.58331 4.33301 8.58331C3.91879 8.58331 3.58301 8.9191 3.58301 9.33331V10.6666C3.58301 11.0809 3.91879 11.4166 4.33301 11.4166C4.74722 11.4166 5.08301 11.0809 5.08301 10.6666V9.33331Z"
            fill="#121212" />
    </g>
</svg>