<svg width="44" height="45" viewBox="0 0 44 45" fill="none" xmlns="http://www.w3.org/2000/svg">
<rect x="-0.000610352" y="0.246582" width="43.9998" height="44" rx="8" fill="#2B2B2B"/>
<path d="M27.4999 17.9966C29.489 17.9966 31.3967 18.7868 32.8032 20.1933C34.2097 21.5998 34.9999 23.5075 34.9999 25.4966V34.2466H29.9999V25.4966C29.9999 24.8335 29.7365 24.1977 29.2676 23.7288C28.7988 23.26 28.1629 22.9966 27.4999 22.9966C26.8368 22.9966 26.201 23.26 25.7321 23.7288C25.2633 24.1977 24.9999 24.8335 24.9999 25.4966V34.2466H19.9999V25.4966C19.9999 23.5075 20.7901 21.5998 22.1966 20.1933C23.6031 18.7868 25.5108 17.9966 27.4999 17.9966Z" fill="#FAFAFA"/>
<path d="M14.9999 19.2466H9.99988V34.2466H14.9999V19.2466Z" fill="#FAFAFA"/>
<path d="M12.4999 15.4966C13.8806 15.4966 14.9999 14.3773 14.9999 12.9966C14.9999 11.6159 13.8806 10.4966 12.4999 10.4966C11.1192 10.4966 9.99988 11.6159 9.99988 12.9966C9.99988 14.3773 11.1192 15.4966 12.4999 15.4966Z" fill="#FAFAFA"/>
</svg>
