<svg width="173" height="144" viewBox="0 0 173 144" fill="none" xmlns="http://www.w3.org/2000/svg">
<path d="M82.6727 142.534L82.6684 143.181H78.8571V137.312H82.6684V137.959H79.6945V139.909H82.103V140.531H79.6945V142.534H82.6727Z" fill="white"/>
<path d="M89.8432 141.002L88.8721 138.615C88.8433 138.544 88.8131 138.462 88.7815 138.369C88.7498 138.273 88.7196 138.172 88.6908 138.066C88.6304 138.287 88.5685 138.471 88.5052 138.619L87.5341 141.002H89.8432ZM91.587 143.181H90.9396C90.8648 143.181 90.8043 143.163 90.7583 143.128C90.7122 143.092 90.6777 143.047 90.6547 142.993L90.0763 141.576H87.301L86.7226 142.993C86.7053 143.042 86.6723 143.086 86.6233 143.124C86.5744 143.162 86.514 143.181 86.442 143.181H85.7946L88.2678 137.312H89.1138L91.587 143.181Z" fill="white"/>
<path d="M96.8335 140.154C97.0752 140.154 97.2881 140.127 97.4723 140.073C97.6593 140.015 97.8147 139.936 97.9384 139.835C98.065 139.731 98.16 139.608 98.2233 139.466C98.2866 139.324 98.3183 139.167 98.3183 138.995C98.3183 138.646 98.1974 138.382 97.9557 138.205C97.714 138.027 97.3514 137.939 96.868 137.939H95.9529V140.154H96.8335ZM99.6908 143.181H98.9484C98.7959 143.181 98.6837 143.125 98.6118 143.013L97.0061 140.916C96.9572 140.851 96.904 140.804 96.8464 140.777C96.7917 140.747 96.7054 140.732 96.5874 140.732H95.9529V143.181H95.1199V137.312H96.868C97.2593 137.312 97.5974 137.35 97.8823 137.427C98.1672 137.501 98.4017 137.608 98.5859 137.75C98.7729 137.892 98.911 138.064 99.0002 138.266C99.0894 138.466 99.134 138.69 99.134 138.938C99.134 139.146 99.0995 139.339 99.0304 139.52C98.9614 139.7 98.8607 139.862 98.7283 140.007C98.5988 140.149 98.4391 140.27 98.2492 140.372C98.0622 140.473 97.8492 140.549 97.6104 140.601C97.7169 140.658 97.8089 140.741 97.8866 140.851L99.6908 143.181Z" fill="white"/>
<path d="M108.262 137.312V143.181H107.844C107.778 143.181 107.721 143.17 107.675 143.148C107.632 143.126 107.589 143.09 107.546 143.038L103.968 138.615C103.974 138.683 103.978 138.75 103.981 138.815C103.984 138.881 103.985 138.942 103.985 139V143.181H103.251V137.312H103.683C103.72 137.312 103.752 137.315 103.778 137.32C103.804 137.323 103.827 137.33 103.847 137.341C103.867 137.349 103.887 137.363 103.907 137.382C103.928 137.398 103.949 137.42 103.972 137.447L107.55 141.866C107.545 141.795 107.539 141.727 107.533 141.662C107.53 141.593 107.529 141.529 107.529 141.469V137.312H108.262Z" fill="white"/>
<path d="M122.28 137.33H122.88V143.181H122.28V137.33Z" fill="white"/>
<path d="M140.846 142.534L140.841 143.181H137.03V137.312H140.841V137.959H137.867V139.909H140.276V140.531H137.867V142.534H140.846Z" fill="white"/>
<path d="M149.449 143.181H148.621C148.557 143.181 148.507 143.166 148.469 143.136C148.435 143.103 148.406 143.068 148.383 143.03L146.726 140.564C146.703 140.63 146.677 140.685 146.648 140.732L145.034 143.03C145.005 143.068 144.973 143.103 144.939 143.136C144.907 143.166 144.863 143.181 144.805 143.181H144.028L146.156 140.167L144.114 137.312H144.947C145.008 137.312 145.052 137.322 145.081 137.341C145.11 137.36 145.136 137.387 145.159 137.423L146.773 139.774C146.793 139.716 146.824 139.653 146.864 139.585L148.387 137.439C148.41 137.401 148.438 137.371 148.469 137.349C148.501 137.324 148.539 137.312 148.582 137.312H149.38L147.33 140.13L149.449 143.181Z" fill="white"/>
<path d="M157.146 141.969C157.192 141.969 157.232 141.987 157.267 142.022L157.599 142.362C157.346 142.64 157.038 142.858 156.676 143.013C156.316 143.169 155.88 143.247 155.368 143.247C154.925 143.247 154.522 143.174 154.159 143.03C153.797 142.882 153.487 142.677 153.231 142.415C152.975 142.15 152.777 141.834 152.636 141.465C152.495 141.096 152.424 140.691 152.424 140.249C152.424 139.806 152.498 139.401 152.644 139.032C152.791 138.664 152.997 138.347 153.261 138.082C153.529 137.817 153.848 137.612 154.22 137.468C154.591 137.32 155.001 137.247 155.45 137.247C155.89 137.247 156.279 137.313 156.615 137.447C156.952 137.581 157.248 137.763 157.504 137.992L157.228 138.356C157.211 138.384 157.188 138.407 157.159 138.426C157.133 138.442 157.097 138.451 157.051 138.451C156.999 138.451 156.936 138.425 156.861 138.373C156.786 138.318 156.689 138.258 156.568 138.193C156.447 138.127 156.296 138.068 156.115 138.017C155.933 137.962 155.71 137.935 155.446 137.935C155.126 137.935 154.834 137.988 154.569 138.094C154.305 138.198 154.076 138.35 153.883 138.549C153.693 138.748 153.545 138.991 153.438 139.278C153.332 139.565 153.279 139.888 153.279 140.249C153.279 140.615 153.333 140.941 153.443 141.227C153.555 141.514 153.706 141.757 153.896 141.956C154.089 142.153 154.315 142.303 154.574 142.407C154.835 142.511 155.117 142.563 155.42 142.563C155.604 142.563 155.769 142.553 155.916 142.534C156.066 142.512 156.202 142.479 156.326 142.436C156.453 142.392 156.569 142.337 156.676 142.272C156.785 142.204 156.893 142.123 156.999 142.03C157.048 141.989 157.097 141.969 157.146 141.969Z" fill="white"/>
<path d="M165.105 142.534L165.101 143.181H161.289V137.312H165.101V137.959H162.127V139.909H164.535V140.531H162.127V142.534H165.105Z" fill="white"/>
<path d="M172.5 142.513V143.181H168.991V137.312H169.824V142.513H172.5Z" fill="white"/>
<path d="M3.81556 142.534L3.81124 143.181H0V137.312H3.81124V137.959H0.83735V139.909H3.24581V140.531H0.83735V142.534H3.81556Z" fill="white"/>
<path d="M11.2106 142.514V143.181H7.70145V137.312H8.53448V142.514H11.2106Z" fill="white"/>
<path d="M18.6705 142.534L18.6662 143.181H14.8549V137.312H18.6662V137.959H15.6923V139.909H18.1007V140.531H15.6923V142.534H18.6705Z" fill="white"/>
<path d="M27.5848 137.312L25.0641 143.181H24.3131L21.7924 137.312H22.4614C22.5363 137.312 22.5967 137.33 22.6427 137.365C22.6888 137.401 22.7233 137.446 22.7463 137.501L24.4901 141.641C24.5275 141.734 24.5634 141.835 24.598 141.944C24.6354 142.053 24.6685 142.168 24.6973 142.288C24.726 142.168 24.7562 142.053 24.7879 141.944C24.8195 141.835 24.8541 141.734 24.8915 141.641L26.6309 137.501C26.6482 137.454 26.6813 137.412 26.7302 137.374C26.782 137.333 26.8439 137.312 26.9158 137.312H27.5848Z" fill="white"/>
<path d="M33.9387 141.002L32.9676 138.615C32.9388 138.544 32.9086 138.462 32.8769 138.369C32.8453 138.273 32.8151 138.172 32.7863 138.066C32.7259 138.287 32.664 138.471 32.6007 138.619L31.6295 141.002H33.9387ZM35.6825 143.181H35.035C34.9602 143.181 34.8998 143.163 34.8538 143.128C34.8077 143.092 34.7732 143.047 34.7502 142.993L34.1718 141.576H31.3965L30.8181 142.993C30.8008 143.042 30.7677 143.086 30.7188 143.124C30.6699 143.162 30.6095 143.181 30.5375 143.181H29.8901L32.3633 137.312H33.2093L35.6825 143.181Z" fill="white"/>
<path d="M42.7909 137.98H40.7881V143.181H39.9551V137.98H37.948V137.312H42.7909V137.98Z" fill="white"/>
<path d="M50.2435 142.534L50.2391 143.181H46.4279V137.312H50.2391V137.959H47.2652V139.909H49.6737V140.531H47.2652V142.534H50.2435Z" fill="white"/>
<path d="M63.9766 137.33H64.5765V143.181H63.9766V137.33Z" fill="white"/>
<path d="M108.561 108.75H110.03C110.255 108.75 110.36 108.876 110.36 109.146V121.854C110.36 122.124 110.255 122.25 110.03 122.25H108.561C108.336 122.25 108.231 122.124 108.231 121.854V109.146C108.231 108.876 108.336 108.75 108.561 108.75Z" fill="white"/>
<path d="M64.2699 112.368H65.6937V109.992C65.6937 109.722 65.8136 109.596 66.0235 109.596H67.5073C67.7171 109.596 67.837 109.722 67.837 109.992V112.368H70.4599C70.6547 112.368 70.7296 112.476 70.7296 112.692V114.168C70.7296 114.384 70.6547 114.492 70.4599 114.492H67.837V118.668C67.837 119.658 68.1068 120.126 69.096 120.126H70.5498C70.7446 120.126 70.8196 120.234 70.8196 120.45V121.926C70.8196 122.142 70.7446 122.25 70.5498 122.25H68.7363C66.3382 122.25 65.6937 121.224 65.6937 118.668V114.492H64.2699C64.09 114.492 64.0001 114.384 64.0001 114.168V112.692C64.0001 112.476 64.09 112.368 64.2699 112.368Z" fill="white"/>
<path d="M0.449635 109.65H7.46394C10.7163 109.65 12.0502 111.216 12.0502 114.726V117.174C12.0502 120.684 10.7163 122.25 7.46394 122.25H3.93588H3.9343V119.748H3.93588H7.40398C9.17255 119.748 9.75707 119.064 9.75707 116.94V114.96C9.75707 112.836 9.17255 112.152 7.40398 112.152H2.48798C2.35309 112.152 2.29314 112.224 2.29314 112.404V119.748V122.25H0.449635C0.149878 122.25 0 122.07 0 121.71V110.19C0 109.83 0.149878 109.65 0.449635 109.65Z" fill="white"/>
<path fill-rule="evenodd" clip-rule="evenodd" d="M17.7113 112.368H22.1027C24.156 112.368 24.6956 113.142 24.6956 115.32V117.03C24.6956 117.804 24.4258 118.056 23.8413 118.056H16.2724V118.488C16.2724 119.622 16.6172 120.09 17.9211 120.09H24.171C24.3509 120.09 24.4408 120.198 24.4408 120.414V121.926C24.4408 122.142 24.3509 122.25 24.171 122.25H17.7113C15.0135 122.25 14.1442 121.224 14.1442 118.614V116.022C14.1442 113.412 15.0135 112.368 17.7113 112.368ZM16.2724 115.968V116.454H22.3425C22.5224 116.454 22.5973 116.382 22.5973 116.148V115.392C22.5973 114.654 22.3725 114.366 21.683 114.366H17.9211C16.6172 114.366 16.2724 114.816 16.2724 115.968Z" fill="white"/>
<path d="M36.1322 112.368H30.1071C27.4093 112.368 26.54 113.412 26.54 116.022V118.614C26.54 121.224 27.4093 122.25 30.1071 122.25H36.1322C36.3121 122.25 36.402 122.142 36.402 121.926V120.414C36.402 120.198 36.3121 120.09 36.1322 120.09H30.317C29.013 120.09 28.6833 119.622 28.6833 118.11V116.508C28.6833 114.996 29.013 114.528 30.317 114.528H36.1322C36.3121 114.528 36.402 114.438 36.402 114.204V112.692C36.402 112.476 36.3121 112.368 36.1322 112.368Z" fill="white"/>
<path fill-rule="evenodd" clip-rule="evenodd" d="M41.6555 112.368H46.0469C48.1003 112.368 48.6398 113.142 48.6398 115.32V117.03C48.6398 117.804 48.37 118.056 47.7855 118.056H40.2167V118.488C40.2167 119.622 40.5614 120.09 41.8653 120.09H48.1152C48.2951 120.09 48.385 120.198 48.385 120.414V121.926C48.385 122.142 48.2951 122.25 48.1152 122.25H41.6555C38.9577 122.25 38.0884 121.224 38.0884 118.614V116.022C38.0884 113.412 38.9577 112.368 41.6555 112.368ZM40.2167 115.968V116.454H46.2867C46.4666 116.454 46.5415 116.382 46.5415 116.148V115.392C46.5415 114.654 46.3167 114.366 45.6273 114.366H41.8653C40.5614 114.366 40.2167 114.816 40.2167 115.968Z" fill="white"/>
<path d="M58.6676 112.368H54.3661C51.6683 112.368 50.799 113.412 50.799 116.022V121.854C50.799 122.124 50.9189 122.25 51.1437 122.25H52.6125C52.8373 122.25 52.9423 122.124 52.9423 121.854V116.634C52.9423 115.122 53.287 114.654 54.5759 114.654H58.5627C59.8516 114.654 60.1064 115.122 60.1064 116.634V121.854C60.1064 122.124 60.2114 122.25 60.4362 122.25H61.905C62.1298 122.25 62.2347 122.124 62.2347 121.854V116.022C62.2347 113.412 61.3654 112.368 58.6676 112.368Z" fill="white"/>
<path d="M80.3553 112.368H76.1587C73.4609 112.368 72.5916 113.412 72.5916 116.022V121.854C72.5916 122.124 72.7115 122.25 72.9364 122.25H74.4052C74.63 122.25 74.7349 122.124 74.7349 121.854V116.508C74.7349 114.996 75.0796 114.528 76.3686 114.528H80.3553C80.5352 114.528 80.6251 114.438 80.6251 114.204V112.692C80.6251 112.476 80.5352 112.368 80.3553 112.368Z" fill="white"/>
<path fill-rule="evenodd" clip-rule="evenodd" d="M82.6077 112.368H89.0825C91.7803 112.368 92.6496 113.412 92.6496 116.022V120.81C92.6496 121.98 92.4098 122.25 91.5405 122.25H84.4063C82.6377 122.25 82.0981 121.476 82.0981 119.694V118.83C82.0981 117.318 82.6377 116.472 84.4063 116.472H90.5063V116.13C90.5063 114.978 90.1766 114.528 88.8726 114.528H82.6077C82.4279 114.528 82.3379 114.438 82.3379 114.204V112.692C82.3379 112.476 82.4279 112.368 82.6077 112.368ZM90.0717 120.27C90.3864 120.27 90.5063 120.108 90.5063 119.658V118.074H85.0208C84.4063 118.074 84.1814 118.38 84.1814 118.956V119.334C84.1814 119.982 84.4063 120.27 85.0208 120.27H90.0717Z" fill="white"/>
<path d="M105.735 109.65H98.9754C95.9478 109.65 94.7788 110.946 94.7788 114.402V117.498C94.7788 120.954 95.9478 122.25 98.9754 122.25H105.735C105.96 122.25 106.065 122.124 106.065 121.854V120.09C106.065 119.82 105.96 119.694 105.735 119.694H99.0653C97.5216 119.694 97.0719 119.136 97.0719 117.228V114.672C97.0719 112.764 97.5216 112.224 99.0653 112.224H105.735C105.96 112.224 106.065 112.08 106.065 111.81V110.046C106.065 109.776 105.96 109.65 105.735 109.65Z" fill="white"/>
<path fill-rule="evenodd" clip-rule="evenodd" d="M119.51 112.368H113.035C112.855 112.368 112.766 112.476 112.766 112.692V114.204C112.766 114.438 112.855 114.528 113.035 114.528H119.3C120.604 114.528 120.934 114.978 120.934 116.13V116.472H114.834C113.065 116.472 112.526 117.318 112.526 118.83V119.694C112.526 121.476 113.065 122.25 114.834 122.25H121.968C122.837 122.25 123.077 121.98 123.077 120.81V116.022C123.077 113.412 122.208 112.368 119.51 112.368ZM120.934 119.658C120.934 120.108 120.814 120.27 120.499 120.27H115.448C114.834 120.27 114.609 119.982 114.609 119.334V118.956C114.609 118.38 114.834 118.074 115.448 118.074H120.934V119.658Z" fill="white"/>
<path d="M127.455 112.368H134.769C134.948 112.368 135.038 112.476 135.038 112.692V114.132C135.038 114.348 134.948 114.456 134.769 114.456H128.009C127.395 114.456 127.185 114.744 127.185 115.266V115.536C127.185 116.022 127.395 116.31 128.009 116.31H133.06C134.739 116.31 135.398 117.174 135.398 118.722V119.73C135.398 121.314 134.814 122.25 133.045 122.25H125.371C125.191 122.25 125.101 122.142 125.101 121.926V120.486C125.101 120.27 125.191 120.162 125.371 120.162H132.475C133.09 120.162 133.315 119.91 133.315 119.298V118.812C133.315 118.344 133.09 118.056 132.475 118.056H127.44C125.761 118.056 125.101 117.21 125.101 115.626V114.834C125.101 113.34 125.686 112.368 127.455 112.368Z" fill="white"/>
<path d="M147.107 112.368H139.793C138.024 112.368 137.439 113.34 137.439 114.834V115.626C137.439 117.21 138.099 118.056 139.778 118.056H144.814C145.428 118.056 145.653 118.344 145.653 118.812V119.298C145.653 119.91 145.428 120.162 144.814 120.162H137.709C137.529 120.162 137.439 120.27 137.439 120.486V121.926C137.439 122.142 137.529 122.25 137.709 122.25H145.383C147.152 122.25 147.736 121.314 147.736 119.73V118.722C147.736 117.174 147.077 116.31 145.398 116.31H140.347C139.733 116.31 139.523 116.022 139.523 115.536V115.266C139.523 114.744 139.733 114.456 140.347 114.456H147.107C147.286 114.456 147.376 114.348 147.376 114.132V112.692C147.376 112.476 147.286 112.368 147.107 112.368Z" fill="white"/>
<path fill-rule="evenodd" clip-rule="evenodd" d="M153.195 112.368H157.586C159.639 112.368 160.179 113.142 160.179 115.32V117.03C160.179 117.804 159.909 118.056 159.325 118.056H151.756V118.488C151.756 119.622 152.101 120.09 153.405 120.09H159.654C159.834 120.09 159.924 120.198 159.924 120.414V121.926C159.924 122.142 159.834 122.25 159.654 122.25H153.195C150.497 122.25 149.628 121.224 149.628 118.614V116.022C149.628 113.412 150.497 112.368 153.195 112.368ZM151.756 115.968V116.454H157.826C158.006 116.454 158.081 116.382 158.081 116.148V115.392C158.081 114.654 157.856 114.366 157.167 114.366H153.405C152.101 114.366 151.756 114.816 151.756 115.968Z" fill="white"/>
<path d="M171.87 112.368H164.556C162.788 112.368 162.203 113.34 162.203 114.834V115.626C162.203 117.21 162.863 118.056 164.541 118.056H169.577C170.192 118.056 170.417 118.344 170.417 118.812V119.298C170.417 119.91 170.192 120.162 169.577 120.162H162.473C162.293 120.162 162.203 120.27 162.203 120.486V121.926C162.203 122.142 162.293 122.25 162.473 122.25H170.147C171.915 122.25 172.5 121.314 172.5 119.73V118.722C172.5 117.174 171.841 116.31 170.162 116.31H165.111C164.496 116.31 164.287 116.022 164.287 115.536V115.266C164.287 114.744 164.496 114.456 165.111 114.456H171.87C172.05 114.456 172.14 114.348 172.14 114.132V112.692C172.14 112.476 172.05 112.368 171.87 112.368Z" fill="white"/>
<path fill-rule="evenodd" clip-rule="evenodd" d="M27.75 23.625L86.25 0L144.75 23.625L139.5 25.7452V65.25L138 66V26.351L86.25 47.25L27.75 23.625ZM42 36.75L53.25 41.25V41.3333L82.5 53.25V64.5V82.4999V93.75L82.4983 93.7492L60.75 84.8888V73.6388L71.25 77.9166V59.9167L53.25 52.5833V81.75L42 77.25V48V36.75ZM101.25 59.9167L130.5 48V36.75L90 53.25V64.5V82.5V93.75L130.5 77.25V66L101.25 77.9167V59.9167Z" fill="url(#paint0_linear_756_749)"/>
<defs>
<linearGradient id="paint0_linear_756_749" x1="93.5625" y1="93.75" x2="93.5625" y2="12.4081" gradientUnits="userSpaceOnUse">
<stop stop-color="#5D89FF"/>
<stop offset="1" stop-color="#3A59FE"/>
</linearGradient>
</defs>
</svg>
