<svg width="87" height="69" viewBox="0 0 87 69" fill="none" xmlns="http://www.w3.org/2000/svg">
<path fill-rule="evenodd" clip-rule="evenodd" d="M0 17.2735L43.5 0L87 17.2735L83.0953 18.824V47.7076L81.9799 48.2559V19.2669L43.5 34.5469L0 17.2735ZM10.5971 26.8698L18.9625 30.16V30.2209L40.7125 38.9338V47.1593L40.7113 47.1588V60.3199L40.7115 60.32V68.5455L40.7113 68.5453L24.5384 62.0667V53.8412L32.3459 56.9688V43.8077L18.9625 38.4464V59.7716L10.5971 56.4814V35.0953V26.8698ZM54.6534 43.8083L76.4038 35.0953V26.8698L46.3282 38.9179L46.288 38.9337V68.5453L46.2885 68.5451V68.5454L76.4038 56.4814V48.256L54.6534 56.969V43.8083Z" fill="url(#paint0_linear_0_102)"/>
<defs>
<linearGradient id="paint0_linear_0_102" x1="48.9375" y1="68.5454" x2="48.9375" y2="9.07219" gradientUnits="userSpaceOnUse">
<stop stop-color="#5D89FF"/>
<stop offset="1" stop-color="#3A59FE"/>
</linearGradient>
</defs>
</svg>
