<svg width="262" height="210" viewBox="0 0 262 210" fill="none" xmlns="http://www.w3.org/2000/svg">
<path fill-rule="evenodd" clip-rule="evenodd" d="M0 52.92L131 0L262 52.92L250.243 57.6694V146.16L246.884 147.84V59.0264L131 105.84L0 52.92ZM31.911 82.3203L57.1033 92.4003V92.587L122.55 119.258L122.603 119.28V119.28L122.603 119.28V144.48L122.603 144.48V184.8L122.603 184.8V210L122.603 210L73.8979 190.151V164.951L97.4106 174.533V134.214L57.1033 117.787V183.12L31.911 173.04V107.52V82.3203ZM164.589 134.214L230.089 107.52V82.3203L139.451 119.258L139.397 119.28V119.28L139.397 119.28V144.48L139.397 144.48V184.8L139.397 184.8V210L139.397 210L230.089 173.04V147.84L164.589 174.533V134.214Z" fill="url(#paint0_linear_502_1697)"/>
<defs>
<linearGradient id="paint0_linear_502_1697" x1="147.375" y1="195.5" x2="147.375" y2="32.9562" gradientUnits="userSpaceOnUse">
<stop stop-color="#5D89FF" stop-opacity="0"/>
<stop offset="1" stop-color="#3A59FE"/>
</linearGradient>
</defs>
</svg>
