<svg width="262" height="36" viewBox="0 0 262 36" fill="none" xmlns="http://www.w3.org/2000/svg">
<path fill-rule="evenodd" clip-rule="evenodd" d="M0 9.072L22.4571 0L44.9143 9.072L42.8989 9.88617V25.056L42.323 25.344V10.1188L22.4571 18.144L0 9.072ZM5.47052 14.112L9.7892 15.84V15.872L21.0178 20.448V24.768L21.0176 24.7679L21.0177 31.68L21.0176 36L12.6682 32.5974V28.2774L16.699 29.92V23.0079L9.7892 20.192V31.392L5.47052 29.664V18.432V14.112ZM28.2154 23.0079L39.4439 18.432V14.112L23.8968 20.448L23.8966 20.448V24.768L23.8968 24.7679V31.6799L23.8966 31.68V36L23.8968 36L23.8977 35.9995L39.4439 29.664V25.344L28.2154 29.9199V23.0079Z" fill="url(#paint0_linear_502_1767)"/>
<path d="M184.31 3H186.094C186.367 3 186.495 3.16908 186.495 3.52259V18.9815C186.495 19.335 186.367 19.5 186.094 19.5H184.31C184.036 19.5 183.909 19.335 183.909 18.9815V3.52259C183.909 3.16908 184.036 3 184.31 3Z" fill="white"/>
<path d="M130.493 6.5613H132.223V3.45035C132.223 3.09683 132.368 3.00772 132.623 3.00772H134.426C134.681 3.00772 134.827 3.09683 134.827 3.45035V6.5613H138.014C138.251 6.5613 138.342 6.7027 138.342 6.98552V8.91807C138.342 9.20089 138.251 9.34229 138.014 9.34229H134.827V14.81C134.827 16.1062 135.155 16.719 136.357 16.719H138.123C138.36 16.719 138.451 16.8604 138.451 17.1432V19.0758C138.451 19.3586 138.36 19.5 138.123 19.5H135.92C133.006 19.5 132.223 18.1566 132.223 14.81V9.34229H130.493C130.274 9.34229 130.165 9.20089 130.165 8.91807V6.98552C130.165 6.7027 130.274 6.5613 130.493 6.5613Z" fill="white"/>
<path d="M52.9464 3.00256H61.4692C65.4211 3.00256 67.0419 5.05296 67.0419 9.64867V12.8539C67.0419 17.4496 65.4211 19.5 61.4692 19.5H57.1824H57.1805V16.2241H57.1824H61.3964C63.5453 16.2241 64.2556 15.3285 64.2556 12.5475V9.95505C64.2556 7.17406 63.5453 6.27848 61.3964 6.27848H55.4231C55.2592 6.27848 55.1864 6.37275 55.1864 6.60843V16.2241V19.5H52.9464C52.5821 19.5 52.4 19.2643 52.4 18.793V3.7096C52.4 3.23824 52.5821 3.00256 52.9464 3.00256Z" fill="white"/>
<path fill-rule="evenodd" clip-rule="evenodd" d="M73.9205 6.5613H79.2564C81.7514 6.5613 82.407 7.57471 82.407 10.4264V12.6653C82.407 13.6788 82.0792 14.0087 81.3689 14.0087H72.1722V14.5743C72.1722 16.0591 72.5911 16.6719 74.1755 16.6719H81.7696C81.9881 16.6719 82.0974 16.8133 82.0974 17.0961V19.0758C82.0974 19.3586 81.9881 19.5 81.7696 19.5H73.9205C70.6425 19.5 69.5862 18.1566 69.5862 14.7393V11.3456C69.5862 7.92823 70.6425 6.5613 73.9205 6.5613ZM72.1722 11.2748V11.9112H79.5478C79.7663 11.9112 79.8574 11.8169 79.8574 11.5105V10.5207C79.8574 9.5544 79.5842 9.17732 78.7465 9.17732H74.1755C72.5911 9.17732 72.1722 9.76651 72.1722 11.2748Z" fill="white"/>
<path d="M96.3033 6.5613H88.9824C85.7044 6.5613 84.6481 7.92823 84.6481 11.3456V14.7393C84.6481 18.1566 85.7044 19.5 88.9824 19.5H96.3033C96.5219 19.5 96.6311 19.3586 96.6311 19.0758V17.0961C96.6311 16.8133 96.5219 16.6719 96.3033 16.6719H89.2373C87.653 16.6719 87.2523 16.0591 87.2523 14.0794V11.9819C87.2523 10.0022 87.653 9.38943 89.2373 9.38943H96.3033C96.5219 9.38943 96.6311 9.27159 96.6311 8.96521V6.98552C96.6311 6.7027 96.5219 6.5613 96.3033 6.5613Z" fill="white"/>
<path fill-rule="evenodd" clip-rule="evenodd" d="M103.014 6.5613H108.35C110.845 6.5613 111.501 7.57471 111.501 10.4264V12.6653C111.501 13.6788 111.173 14.0087 110.463 14.0087H101.266V14.5743C101.266 16.0591 101.685 16.6719 103.269 16.6719H110.864C111.082 16.6719 111.191 16.8133 111.191 17.0961V19.0758C111.191 19.3586 111.082 19.5 110.864 19.5H103.014C99.7364 19.5 98.6802 18.1566 98.6802 14.7393V11.3456C98.6802 7.92823 99.7364 6.5613 103.014 6.5613ZM101.266 11.2748V11.9112H108.642C108.86 11.9112 108.951 11.8169 108.951 11.5105V10.5207C108.951 9.5544 108.678 9.17732 107.84 9.17732H103.269C101.685 9.17732 101.266 9.76651 101.266 11.2748Z" fill="white"/>
<path d="M123.685 6.5613H118.459C115.181 6.5613 114.124 7.92823 114.124 11.3456V18.9815C114.124 19.335 114.27 19.5 114.543 19.5H116.328C116.601 19.5 116.729 19.335 116.729 18.9815V12.1469C116.729 10.1672 117.148 9.5544 118.714 9.5544H123.558C125.124 9.5544 125.434 10.1672 125.434 12.1469V18.9815C125.434 19.335 125.561 19.5 125.834 19.5H127.619C127.892 19.5 128.02 19.335 128.02 18.9815V11.3456C128.02 7.92823 126.963 6.5613 123.685 6.5613Z" fill="white"/>
<path d="M150.038 6.5613H144.938C141.66 6.5613 140.604 7.92823 140.604 11.3456V18.9815C140.604 19.335 140.75 19.5 141.023 19.5H142.808C143.081 19.5 143.208 19.335 143.208 18.9815V11.9819C143.208 10.0022 143.627 9.38943 145.193 9.38943H150.038C150.256 9.38943 150.365 9.27159 150.365 8.96521V6.98552C150.365 6.7027 150.256 6.5613 150.038 6.5613Z" fill="white"/>
<path fill-rule="evenodd" clip-rule="evenodd" d="M152.774 6.5613H160.642C163.92 6.5613 164.976 7.92823 164.976 11.3456V17.6146C164.976 19.1465 164.685 19.5 163.628 19.5H154.96C152.811 19.5 152.155 18.4866 152.155 16.1534V15.0221C152.155 13.0424 152.811 11.9347 154.96 11.9347H162.372V11.487C162.372 9.97862 161.971 9.38943 160.387 9.38943H152.774C152.556 9.38943 152.447 9.27159 152.447 8.96521V6.98552C152.447 6.7027 152.556 6.5613 152.774 6.5613ZM161.844 16.9075C162.226 16.9075 162.372 16.6954 162.372 16.1062V14.0323H155.706C154.96 14.0323 154.687 14.4329 154.687 15.1871V15.682C154.687 16.5305 154.96 16.9075 155.706 16.9075H161.844Z" fill="white"/>
<path d="M180.876 3.00256H172.662C168.984 3.00256 167.563 4.69944 167.563 9.22445V13.2781C167.563 17.8031 168.984 19.5 172.662 19.5H180.876C181.149 19.5 181.276 19.335 181.276 18.9815V16.6719C181.276 16.3184 181.149 16.1534 180.876 16.1534H172.772C170.896 16.1534 170.349 15.4228 170.349 12.9246V9.57797C170.349 7.07979 170.896 6.37275 172.772 6.37275H180.876C181.149 6.37275 181.276 6.18421 181.276 5.83069V3.52105C181.276 3.16754 181.149 3.00256 180.876 3.00256Z" fill="white"/>
<path fill-rule="evenodd" clip-rule="evenodd" d="M197.613 6.5613H189.746C189.528 6.5613 189.418 6.7027 189.418 6.98552V8.96521C189.418 9.27159 189.528 9.38943 189.746 9.38943H197.358C198.943 9.38943 199.344 9.97862 199.344 11.487V11.9347H191.932C189.783 11.9347 189.127 13.0424 189.127 15.0221V16.1534C189.127 18.4866 189.783 19.5 191.932 19.5H200.6C201.656 19.5 201.948 19.1465 201.948 17.6146V11.3456C201.948 7.92823 200.891 6.5613 197.613 6.5613ZM199.344 16.1062C199.344 16.6954 199.198 16.9075 198.815 16.9075H192.678C191.932 16.9075 191.658 16.5305 191.658 15.682V15.1871C191.658 14.4329 191.932 14.0323 192.678 14.0323H199.344V16.1062Z" fill="white"/>
<path d="M207.267 6.5613H216.154C216.372 6.5613 216.481 6.7027 216.481 6.98552V8.87094C216.481 9.15375 216.372 9.29516 216.154 9.29516H207.94C207.194 9.29516 206.939 9.67224 206.939 10.3557V10.7092C206.939 11.3456 207.194 11.7226 207.94 11.7226H214.078C216.117 11.7226 216.919 12.8539 216.919 14.8807V16.2005C216.919 18.2745 216.208 19.5 214.059 19.5H204.735C204.517 19.5 204.407 19.3586 204.407 19.0758V17.1904C204.407 16.9075 204.517 16.7661 204.735 16.7661H213.367C214.114 16.7661 214.387 16.4362 214.387 15.6349V14.9986C214.387 14.3858 214.114 14.0087 213.367 14.0087H207.248C205.209 14.0087 204.407 12.901 204.407 10.8271V9.79008C204.407 7.83395 205.118 6.5613 207.267 6.5613Z" fill="white"/>
<path d="M231.145 6.5613H222.258C220.109 6.5613 219.399 7.83395 219.399 9.79008V10.8271C219.399 12.901 220.2 14.0087 222.24 14.0087H228.359C229.106 14.0087 229.379 14.3858 229.379 14.9986V15.6349C229.379 16.4362 229.106 16.7661 228.359 16.7661H219.727C219.508 16.7661 219.399 16.9075 219.399 17.1904V19.0758C219.399 19.3586 219.508 19.5 219.727 19.5H229.051C231.2 19.5 231.91 18.2745 231.91 16.2005V14.8807C231.91 12.8539 231.109 11.7226 229.069 11.7226H222.932C222.185 11.7226 221.93 11.3456 221.93 10.7092V10.3557C221.93 9.67224 222.185 9.29516 222.932 9.29516H231.145C231.364 9.29516 231.473 9.15375 231.473 8.87094V6.98552C231.473 6.7027 231.364 6.5613 231.145 6.5613Z" fill="white"/>
<path fill-rule="evenodd" clip-rule="evenodd" d="M238.543 6.5613H243.879C246.374 6.5613 247.029 7.57471 247.029 10.4264V12.6653C247.029 13.6788 246.701 14.0087 245.991 14.0087H236.794V14.5743C236.794 16.0591 237.213 16.6719 238.798 16.6719H246.392C246.61 16.6719 246.72 16.8133 246.72 17.0961V19.0758C246.72 19.3586 246.61 19.5 246.392 19.5H238.543C235.265 19.5 234.208 18.1566 234.208 14.7393V11.3456C234.208 7.92823 235.265 6.5613 238.543 6.5613ZM236.794 11.2748V11.9112H244.17C244.389 11.9112 244.48 11.8169 244.48 11.5105V10.5207C244.48 9.5544 244.206 9.17732 243.369 9.17732H238.798C237.213 9.17732 236.794 9.76651 236.794 11.2748Z" fill="white"/>
<path d="M261.235 6.5613H252.348C250.199 6.5613 249.489 7.83395 249.489 9.79008V10.8271C249.489 12.901 250.29 14.0087 252.33 14.0087H258.449C259.196 14.0087 259.469 14.3858 259.469 14.9986V15.6349C259.469 16.4362 259.196 16.7661 258.449 16.7661H249.817C249.598 16.7661 249.489 16.9075 249.489 17.1904V19.0758C249.489 19.3586 249.598 19.5 249.817 19.5H259.141C261.29 19.5 262 18.2745 262 16.2005V14.8807C262 12.8539 261.199 11.7226 259.159 11.7226H253.022C252.275 11.7226 252.02 11.3456 252.02 10.7092V10.3557C252.02 9.67224 252.275 9.29516 253.022 9.29516H261.235C261.454 9.29516 261.563 9.15375 261.563 8.87094V6.98552C261.563 6.7027 261.454 6.5613 261.235 6.5613Z" fill="white"/>
<path d="M152.853 32.1092L152.848 32.9181H148.217V25.5819H152.848V26.3908H149.235V28.8277H152.161V29.6058H149.235V32.1092H152.853Z" fill="#EFEDF5"/>
<path d="M161.566 30.1946L160.386 27.2099C160.351 27.1212 160.314 27.0188 160.276 26.9028C160.237 26.7833 160.201 26.657 160.166 26.5239C160.092 26.8004 160.017 27.0307 159.94 27.215L158.76 30.1946H161.566ZM163.685 32.9181H162.898C162.807 32.9181 162.734 32.8959 162.678 32.8516C162.622 32.8072 162.58 32.7509 162.552 32.6826L161.849 30.9113H158.477L157.774 32.6826C157.753 32.7441 157.713 32.7987 157.654 32.8464C157.594 32.8942 157.521 32.9181 157.433 32.9181H156.647L159.652 25.5819H160.68L163.685 32.9181Z" fill="#EFEDF5"/>
<path d="M170.06 29.1348C170.353 29.1348 170.612 29.1007 170.836 29.0325C171.063 28.9608 171.252 28.8618 171.402 28.7355C171.556 28.6058 171.672 28.4522 171.748 28.2748C171.825 28.0973 171.864 27.9011 171.864 27.686C171.864 27.2492 171.717 26.9198 171.423 26.698C171.13 26.4761 170.689 26.3652 170.102 26.3652H168.99V29.1348H170.06ZM173.532 32.9181H172.63C172.444 32.9181 172.308 32.8482 172.22 32.7082L170.269 30.0871C170.21 30.0051 170.145 29.9471 170.075 29.913C170.009 29.8755 169.904 29.8567 169.761 29.8567H168.99V32.9181H167.978V25.5819H170.102C170.577 25.5819 170.988 25.6297 171.334 25.7253C171.68 25.8174 171.965 25.9522 172.189 26.1297C172.416 26.3072 172.584 26.5222 172.692 26.7748C172.801 27.0239 172.855 27.3038 172.855 27.6144C172.855 27.8737 172.813 28.1161 172.729 28.3413C172.645 28.5666 172.523 28.7697 172.362 28.9505C172.205 29.128 172.011 29.2799 171.78 29.4062C171.553 29.5325 171.294 29.628 171.004 29.6929C171.133 29.7645 171.245 29.8686 171.339 30.0051L173.532 32.9181Z" fill="#EFEDF5"/>
<path d="M183.947 25.5819V32.9181H183.438C183.358 32.9181 183.289 32.9045 183.234 32.8772C183.181 32.8499 183.129 32.8038 183.076 32.7389L178.728 27.2099C178.735 27.2953 178.741 27.3789 178.744 27.4608C178.748 27.5427 178.749 27.6195 178.749 27.6912V32.9181H177.858V25.5819H178.382C178.428 25.5819 178.466 25.5854 178.498 25.5922C178.529 25.5956 178.557 25.6041 178.582 25.6178C178.606 25.628 178.631 25.6451 178.655 25.669C178.679 25.6894 178.706 25.7168 178.734 25.7509L183.081 31.2748C183.074 31.186 183.067 31.1007 183.06 31.0188C183.057 30.9335 183.055 30.8533 183.055 30.7782V25.5819H183.947Z" fill="#EFEDF5"/>
<path d="M200.979 25.6046H201.708V32.9181H200.979V25.6046Z" fill="#EFEDF5"/>
<path d="M223.538 32.1092L223.533 32.9181H218.902V25.5819H223.533V26.3908H219.919V28.8276H222.845V29.6058H219.919V32.1092H223.538Z" fill="#EFEDF5"/>
<path d="M233.992 32.9181H232.985C232.908 32.9181 232.847 32.8993 232.801 32.8618C232.759 32.8208 232.724 32.7765 232.696 32.7287L230.682 29.6468C230.654 29.7287 230.623 29.7986 230.588 29.8567L228.627 32.7287C228.592 32.7765 228.553 32.8208 228.511 32.8618C228.473 32.8993 228.419 32.9181 228.349 32.9181H227.405L229.99 29.1502L227.509 25.5819H228.522C228.595 25.5819 228.649 25.5939 228.684 25.6177C228.719 25.6416 228.751 25.6758 228.779 25.7201L230.74 28.6587C230.765 28.587 230.801 28.5085 230.85 28.4232L232.702 25.7406C232.73 25.6928 232.763 25.6553 232.801 25.628C232.84 25.5973 232.885 25.5819 232.938 25.5819H233.908L231.417 29.1041L233.992 32.9181Z" fill="#EFEDF5"/>
<path d="M243.344 31.4027C243.4 31.4027 243.449 31.4249 243.491 31.4693L243.895 31.8942C243.587 32.2423 243.213 32.5137 242.772 32.7082C242.335 32.9027 241.806 33 241.183 33C240.645 33 240.155 32.9096 239.715 32.7287C239.274 32.5444 238.898 32.2884 238.587 31.9608C238.276 31.6297 238.035 31.2338 237.863 30.773C237.692 30.3123 237.606 29.8055 237.606 29.2526C237.606 28.6997 237.696 28.1928 237.874 27.7321C238.052 27.2713 238.302 26.8754 238.624 26.5444C238.949 26.2133 239.337 25.9573 239.788 25.7765C240.239 25.5922 240.737 25.5 241.283 25.5C241.818 25.5 242.29 25.5836 242.699 25.7509C243.108 25.9181 243.468 26.1451 243.779 26.4317L243.444 26.8874C243.423 26.9215 243.395 26.9505 243.36 26.9744C243.328 26.9949 243.285 27.0051 243.229 27.0051C243.166 27.0051 243.089 26.9727 242.998 26.9079C242.907 26.8396 242.788 26.7645 242.641 26.6826C242.494 26.6007 242.311 26.5273 242.09 26.4625C241.87 26.3942 241.599 26.3601 241.278 26.3601C240.889 26.3601 240.535 26.4266 240.213 26.5597C239.891 26.6894 239.613 26.8788 239.379 27.128C239.148 27.3771 238.968 27.6809 238.839 28.0392C238.71 28.3976 238.645 28.802 238.645 29.2526C238.645 29.7099 238.711 30.1177 238.844 30.4761C238.98 30.8345 239.164 31.1382 239.395 31.3874C239.629 31.6331 239.904 31.8208 240.218 31.9505C240.536 32.0802 240.879 32.1451 241.246 32.1451C241.47 32.1451 241.671 32.1331 241.849 32.1092C242.031 32.0819 242.197 32.041 242.347 31.9863C242.501 31.9317 242.643 31.8635 242.772 31.7816C242.905 31.6962 243.036 31.5956 243.166 31.4795C243.225 31.4283 243.285 31.4027 243.344 31.4027Z" fill="#EFEDF5"/>
<path d="M253.015 32.1092L253.009 32.9181H248.378V25.5819H253.009V26.3908H249.396V28.8276H252.322V29.6058H249.396V32.1092H253.015Z" fill="#EFEDF5"/>
<path d="M262 32.0836V32.9181H257.736V25.5819H258.748V32.0836H262Z" fill="#EFEDF5"/>
<path d="M57.0362 32.1092L57.031 32.9181H52.4V25.5819H57.031V26.3908H53.4175V28.8277H56.3439V29.6058H53.4175V32.1092H57.0362Z" fill="#EFEDF5"/>
<path d="M66.0217 32.0836V32.9181H61.7578V25.5819H62.77V32.0836H66.0217Z" fill="#EFEDF5"/>
<path d="M75.086 32.1092L75.0808 32.9181H70.4499V25.5819H75.0808V26.3908H71.4673V28.8277H74.3937V29.6058H71.4673V32.1092H75.086Z" fill="#EFEDF5"/>
<path d="M85.9176 25.5819L82.8548 32.9181H81.9422L78.8794 25.5819H79.6923C79.7832 25.5819 79.8566 25.6041 79.9126 25.6485C79.9685 25.6929 80.0105 25.7492 80.0384 25.8174L82.1572 30.9932C82.2027 31.1092 82.2464 31.2355 82.2883 31.372C82.3338 31.5086 82.374 31.6519 82.409 31.8021C82.4439 31.6519 82.4807 31.5086 82.5191 31.372C82.5576 31.2355 82.5995 31.1092 82.645 30.9932L84.7585 25.8174C84.7795 25.7594 84.8197 25.7065 84.8792 25.6587C84.9421 25.6075 85.0173 25.5819 85.1047 25.5819H85.9176Z" fill="#EFEDF5"/>
<path d="M93.638 30.1946L92.458 27.2099C92.423 27.1212 92.3863 27.0188 92.3479 26.9028C92.3094 26.7833 92.2727 26.657 92.2377 26.5239C92.1643 26.8004 92.0891 27.0307 92.0122 27.215L90.8322 30.1946H93.638ZM95.7568 32.9181H94.9701C94.8792 32.9181 94.8058 32.8959 94.7499 32.8516C94.6939 32.8072 94.652 32.7509 94.624 32.6826L93.9212 30.9113H90.549L89.8462 32.6826C89.8253 32.7441 89.785 32.7987 89.7256 32.8464C89.6662 32.8942 89.5928 32.9181 89.5053 32.9181H88.7187L91.7238 25.5819H92.7517L95.7568 32.9181Z" fill="#EFEDF5"/>
<path d="M104.394 26.4164H101.961V32.9181H100.948V26.4164H98.5096V25.5819H104.394V26.4164Z" fill="#EFEDF5"/>
<path d="M113.449 32.1092L113.444 32.9181H108.813V25.5819H113.444V26.3908H109.831V28.8277H112.757V29.6058H109.831V32.1092H113.449Z" fill="#EFEDF5"/>
<path d="M130.136 25.6046H130.865V32.9181H130.136V25.6046Z" fill="#EFEDF5"/>
<defs>
<linearGradient id="paint0_linear_502_1767" x1="25.2643" y1="36" x2="25.2643" y2="4.76471" gradientUnits="userSpaceOnUse">
<stop stop-color="#5D89FF"/>
<stop offset="1" stop-color="#3A59FE"/>
</linearGradient>
</defs>
</svg>
