<svg width="32" height="32" viewBox="0 0 32 32" fill="none" xmlns="http://www.w3.org/2000/svg">
<rect x="0.675" y="0.675977" width="30.6509" height="30.6509" rx="15.3254" fill="#A4FF00"/>
<rect x="0.675" y="0.675977" width="30.6509" height="30.6509" rx="15.3254" stroke="black" stroke-width="1.35"/>
<path d="M22.0742 9.22314H9.62977C8.77066 9.22314 8.07422 9.91959 8.07422 10.7787V20.112C8.07422 20.9711 8.77066 21.6676 9.62977 21.6676H22.0742C22.9333 21.6676 23.6298 20.9711 23.6298 20.112V10.7787C23.6298 9.91959 22.9333 9.22314 22.0742 9.22314Z" stroke="black" stroke-width="1.3" stroke-linecap="round" stroke-linejoin="round"/>
<path d="M23.6298 11.5564L16.6531 15.9897C16.413 16.1402 16.1354 16.22 15.852 16.22C15.5686 16.22 15.291 16.1402 15.0509 15.9897L8.07422 11.5564" stroke="black" stroke-width="1.3" stroke-linecap="round" stroke-linejoin="round"/>
</svg>
