<svg width="1280" height="412" viewBox="0 0 1280 412" fill="none" xmlns="http://www.w3.org/2000/svg">
<mask id="path-1-inside-1_0_3" fill="white">
<path fill-rule="evenodd" clip-rule="evenodd" d="M1280 20C1280 8.9543 1271.05 0 1260 0H20C8.95431 0 0 8.95431 0 20V392C0 403.046 8.95429 412 20 412H464C475.046 412 484 403.046 484 392V294C484 282.954 492.954 274 504 274H1260C1271.05 274 1280 265.046 1280 254V20Z"/>
</mask>
<path fill-rule="evenodd" clip-rule="evenodd" d="M1280 20C1280 8.9543 1271.05 0 1260 0H20C8.95431 0 0 8.95431 0 20V392C0 403.046 8.95429 412 20 412H464C475.046 412 484 403.046 484 392V294C484 282.954 492.954 274 504 274H1260C1271.05 274 1280 265.046 1280 254V20Z" fill="#000B43"/>
<path d="M20 1H1260V-1H20V1ZM1 392V20H-1V392H1ZM464 411H20V413H464V411ZM485 392V294H483V392H485ZM504 275H1260V273H504V275ZM1279 20V254H1281V20H1279ZM1260 275C1271.6 275 1281 265.598 1281 254H1279C1279 264.493 1270.49 273 1260 273V275ZM485 294C485 283.507 493.507 275 504 275V273C492.402 273 483 282.402 483 294H485ZM464 413C475.598 413 485 403.598 485 392H483C483 402.493 474.493 411 464 411V413ZM-1 392C-1 403.598 8.40201 413 20 413V411C9.50658 411 1 402.493 1 392H-1ZM1260 1C1270.49 1 1279 9.50659 1279 20H1281C1281 8.40202 1271.6 -1 1260 -1V1ZM20 -1C8.40202 -1 -1 8.40202 -1 20H1C1 9.50659 9.50659 1 20 1V-1Z" fill="#5D89FF" mask="url(#path-1-inside-1_0_3)"/>
</svg>
