<svg width="241" height="28" viewBox="0 0 241 28" fill="none" xmlns="http://www.w3.org/2000/svg">
<path fill-rule="evenodd" clip-rule="evenodd" d="M7.26591 21.6411L3.6333 28H28.363L24.7304 21.6411H7.26591Z" fill="white"/>
<path fill-rule="evenodd" clip-rule="evenodd" d="M12.3669 0L0 21.6411H7.267L15.9995 6.35918L12.3669 0Z" fill="white"/>
<path fill-rule="evenodd" clip-rule="evenodd" d="M19.6336 0L16.001 6.35918L24.7332 21.6411H32.0005L19.6336 0Z" fill="white"/>
<path fill-rule="evenodd" clip-rule="evenodd" d="M15.9984 12.5991C18.1709 12.5991 19.9319 14.3785 19.9319 16.5736C19.9319 18.7687 18.1709 20.548 15.9984 20.548C13.8259 20.548 12.0649 18.7687 12.0649 16.5736C12.0649 14.3785 13.8259 12.5991 15.9984 12.5991Z" fill="white"/>
<path d="M51.1367 7.55319C50.9565 4.64075 48.95 2.84656 45.8389 2.84656C42.4798 2.84656 40.2253 4.80407 40.2253 7.69332C40.2253 10.1163 41.6007 11.7008 44.2609 12.3299L46.9436 12.9587C48.4991 13.3314 49.198 14.1705 49.198 15.4986C49.198 17.1761 47.8229 18.2248 45.6587 18.2248C43.6071 18.2248 42.2996 17.1996 42.2545 15.5916H40C40.1353 18.4811 42.3444 20.2748 45.6587 20.2748C49.1305 20.2748 51.4073 18.3413 51.4073 15.3121C51.4073 12.9358 50.0547 11.4445 47.3944 10.8152L44.7118 10.1629C43.1787 9.7902 42.4349 8.97463 42.4349 7.623C42.4349 5.96894 43.7649 4.89706 45.8165 4.89706C47.6425 4.89706 48.7922 5.87569 48.9049 7.55319H51.1367Z" fill="white"/>
<path d="M52.6915 2.84684V19.9724H54.8106V13.7745C54.8106 11.8173 55.9153 10.2794 57.9669 10.2794C59.5449 10.2794 60.6044 11.2114 60.6044 13.5182V19.9956H62.7238V13.029C62.7238 10.1166 61.3711 8.27578 58.5531 8.27578C56.8398 8.27578 55.5095 9.11428 54.8106 10.3492V2.84684H52.6915Z" fill="white"/>
<path fill-rule="evenodd" clip-rule="evenodd" d="M63.9864 16.8267C63.9864 14.73 65.4969 13.4248 68.0893 13.2153L71.5611 12.9358V12.6092C71.5611 10.6988 70.4564 10.0231 68.9687 10.0231C67.1875 10.0231 66.1731 10.8387 66.1731 12.2135H64.3244C64.3244 9.83664 66.2182 8.27557 69.0589 8.27557C71.7867 8.27557 73.6353 9.76683 73.6353 12.8426V19.9954H71.8318L71.6062 18.1548C71.0426 19.4598 69.5322 20.2749 67.7511 20.2749C65.384 20.2749 63.9864 18.9006 63.9864 16.8267ZM71.5845 15.0792V14.4738L68.7665 14.7064C66.8954 14.8929 66.1288 15.6384 66.1288 16.7569C66.1288 17.9687 66.9854 18.5741 68.3605 18.5741C70.3672 18.5741 71.5845 17.2229 71.5845 15.0792Z" fill="white"/>
<path d="M80.8019 10.5128H81.7488V8.50891C81.3203 8.41566 81.0048 8.36903 80.6215 8.36903C79.1113 8.36903 78.0063 9.16115 77.5557 10.3492L77.4204 8.62534H75.4363V19.9956H77.5557V13.961C77.5557 11.7707 78.7955 10.5128 80.8019 10.5128Z" fill="white"/>
<path fill-rule="evenodd" clip-rule="evenodd" d="M81.48 14.3338C81.48 10.8386 83.4415 8.27576 86.7104 8.27576C88.4011 8.27576 89.8215 9.0447 90.5656 10.4424V2.84656H92.662V19.9956H90.7682L90.588 17.9219C89.8664 19.483 88.3786 20.2748 86.6202 20.2748C83.4189 20.2748 81.48 17.8052 81.48 14.3338ZM90.5434 14.264C90.5434 11.9337 89.2132 10.2565 87.0489 10.2565C84.8847 10.2565 83.6223 11.9337 83.6223 14.264C83.6223 16.6169 84.8847 18.2947 87.0489 18.2947C89.2132 18.2947 90.5434 16.6404 90.5434 14.264Z" fill="white"/>
<path fill-rule="evenodd" clip-rule="evenodd" d="M99.2656 8.27567C96.0645 8.27567 93.8776 10.7453 93.8776 14.3102C93.8776 17.8517 96.1096 20.2747 99.3558 20.2747C102.084 20.2747 103.933 18.9004 104.473 16.4537H102.49C102.129 17.7585 101.047 18.4576 99.4009 18.4576C97.3045 18.4576 96.0869 17.1294 95.9291 14.7299L104.451 14.7064V13.8909C104.451 10.5127 102.399 8.27567 99.2656 8.27567ZM102.333 13.2617H95.9753C96.2459 11.2578 97.4181 10.1163 99.2666 10.1163C101.138 10.1163 102.333 11.3742 102.333 13.2617Z" fill="white"/>
<path d="M115.408 8.60183V19.9955H113.514L113.288 18.2712C112.657 19.46 111.192 20.275 109.569 20.275C106.999 20.275 105.556 18.4814 105.556 15.6851V8.60183H107.675V14.9628C107.675 17.4095 108.689 18.3415 110.313 18.3415C112.252 18.3415 113.311 17.0599 113.311 14.6132V8.60183H115.408Z" fill="white"/>
<path d="M117.344 8.6017V19.9954H119.463V13.2388C119.463 11.4209 120.523 10.2795 122.124 10.2795C123.612 10.2795 124.559 11.2581 124.559 13.052V19.9954H126.655V13.2388C126.655 11.4209 127.715 10.2563 129.315 10.2563C130.803 10.2563 131.773 11.2815 131.773 13.0752V19.9954H133.847V12.5394C133.847 9.9067 132.314 8.27557 129.789 8.27557C128.075 8.27557 126.745 9.16095 126.227 10.5824C125.663 9.16095 124.446 8.27557 122.732 8.27557C121.177 8.27557 120.004 9.02133 119.441 10.093L119.238 8.6017H117.344Z" fill="white"/>
<path d="M141.733 13.9525L143.435 3.30353H145.574L143.895 13.9525C143.696 15.2405 143.903 16.2525 144.516 16.9885C145.145 17.7245 146.103 18.0925 147.391 18.0925C148.664 18.0925 149.691 17.7399 150.473 17.0345C151.27 16.3139 151.776 15.2865 151.991 13.9525L153.67 3.30353H155.832L154.107 14.0675C153.8 16.0149 153.057 17.5252 151.876 18.5985C150.711 19.6719 149.162 20.2085 147.23 20.2085C146.003 20.2085 144.938 19.9479 144.033 19.4265C143.144 18.8899 142.492 18.1539 142.078 17.2185C141.664 16.2679 141.549 15.1792 141.733 13.9525Z" fill="white"/>
<path d="M158.666 19.9325H156.596L158.39 8.68553H160.23L160.184 10.4795C160.69 9.75886 161.242 9.22986 161.84 8.89253C162.453 8.53986 163.166 8.36353 163.979 8.36353C164.838 8.36353 165.566 8.57053 166.164 8.98453C166.762 9.38319 167.199 9.93519 167.475 10.6405C167.751 11.3459 167.812 12.1509 167.659 13.0555L166.578 19.9325H164.508L165.52 13.5385C165.704 12.4805 165.597 11.6679 165.198 11.1005C164.799 10.5332 164.155 10.2495 163.266 10.2495C162.315 10.2495 161.51 10.5869 160.851 11.2615C160.207 11.9209 159.793 12.8332 159.609 13.9985L158.666 19.9325Z" fill="white"/>
<path d="M169.578 19.9325L171.372 8.68553H173.419L171.648 19.9325H169.578ZM172.821 5.97153C172.484 5.97153 172.2 5.86419 171.97 5.64953C171.74 5.41953 171.625 5.13586 171.625 4.79853C171.625 4.52253 171.702 4.26186 171.855 4.01653C172.009 3.77119 172.208 3.57186 172.453 3.41853C172.699 3.24986 172.959 3.16553 173.235 3.16553C173.588 3.16553 173.872 3.28053 174.086 3.51053C174.301 3.74053 174.408 4.01653 174.408 4.33853C174.408 4.61453 174.332 4.88286 174.178 5.14353C174.04 5.38886 173.849 5.58819 173.603 5.74153C173.358 5.89486 173.097 5.97153 172.821 5.97153Z" fill="white"/>
<path d="M177.803 19.9325L175.135 8.68553H177.228L178.654 15.0795C178.746 15.5242 178.831 15.9535 178.907 16.3675C178.984 16.7815 179.061 17.2339 179.137 17.7245C179.337 17.3105 179.536 16.8812 179.735 16.4365C179.95 15.9919 180.18 15.5395 180.425 15.0795L183.944 8.68553H186.221L179.85 19.9325H177.803Z" fill="white"/>
<path d="M190.742 20.2085C189.745 20.2085 188.871 20.0015 188.12 19.5875C187.384 19.1735 186.809 18.5909 186.395 17.8395C185.996 17.0882 185.797 16.2065 185.797 15.1945C185.797 13.9065 186.065 12.7489 186.602 11.7215C187.154 10.6942 187.89 9.88153 188.81 9.28353C189.745 8.68553 190.788 8.38653 191.938 8.38653C193.011 8.38653 193.916 8.62419 194.652 9.09953C195.388 9.57486 195.917 10.2265 196.239 11.0545C196.576 11.8825 196.66 12.8332 196.492 13.9065L196.377 14.6885L186.901 14.7115L187.154 13.3085H194.514C194.667 12.3425 194.491 11.5759 193.985 11.0085C193.494 10.4259 192.781 10.1345 191.846 10.1345C191.094 10.1345 190.412 10.3569 189.799 10.8015C189.185 11.2309 188.702 11.8212 188.35 12.5725C187.997 13.3085 187.821 14.1442 187.821 15.0795C187.821 16.1375 188.081 16.9655 188.603 17.5635C189.139 18.1615 189.875 18.4605 190.811 18.4605C191.547 18.4605 192.206 18.2842 192.789 17.9315C193.371 17.5789 193.785 17.0882 194.031 16.4595H196.101C195.84 17.2262 195.441 17.8932 194.905 18.4605C194.383 19.0279 193.762 19.4649 193.042 19.7715C192.336 20.0629 191.57 20.2085 190.742 20.2085Z" fill="white"/>
<path d="M205.974 8.59353L205.675 10.5025H204.732C204.088 10.5025 203.498 10.6405 202.961 10.9165C202.424 11.1772 201.98 11.5605 201.627 12.0665C201.29 12.5725 201.067 13.1859 200.96 13.9065L199.994 19.9325H197.924L199.718 8.68553H201.604L201.443 10.9395H201.259C201.535 10.2035 201.987 9.60553 202.616 9.14553C203.245 8.68553 203.981 8.45553 204.824 8.45553C205.008 8.45553 205.2 8.47086 205.399 8.50153C205.598 8.51686 205.79 8.54753 205.974 8.59353Z" fill="white"/>
<path d="M205.977 16.7125H208.001C208.016 17.2799 208.231 17.7322 208.645 18.0695C209.059 18.4069 209.603 18.5755 210.278 18.5755C210.983 18.5755 211.55 18.4145 211.98 18.0925C212.424 17.7705 212.647 17.3565 212.647 16.8505C212.647 16.4519 212.547 16.1452 212.348 15.9305C212.164 15.7005 211.826 15.5012 211.336 15.3325L209.473 14.7115C208.691 14.4355 208.093 14.0599 207.679 13.5845C207.265 13.1092 207.058 12.5112 207.058 11.7905C207.058 10.7632 207.441 9.94286 208.208 9.32953C208.99 8.70086 210.017 8.38653 211.29 8.38653C212.102 8.38653 212.792 8.53219 213.36 8.82353C213.942 9.11486 214.395 9.52119 214.717 10.0425C215.039 10.5639 215.2 11.1772 215.2 11.8825H213.176C213.16 11.2692 212.984 10.8092 212.647 10.5025C212.309 10.1805 211.811 10.0195 211.152 10.0195C210.508 10.0195 209.994 10.1652 209.611 10.4565C209.243 10.7325 209.059 11.1235 209.059 11.6295C209.059 12.3502 209.526 12.8792 210.462 13.2165L212.302 13.8375C213.13 14.1135 213.728 14.4815 214.096 14.9415C214.479 15.3862 214.671 15.9612 214.671 16.6665C214.671 17.3719 214.479 17.9929 214.096 18.5295C213.728 19.0509 213.206 19.4649 212.532 19.7715C211.857 20.0629 211.067 20.2085 210.163 20.2085C208.921 20.2085 207.909 19.8865 207.127 19.2425C206.36 18.5985 205.977 17.7552 205.977 16.7125Z" fill="white"/>
<path d="M216.522 19.9325L218.316 8.68553H220.363L218.592 19.9325H216.522ZM219.765 5.97153C219.427 5.97153 219.144 5.86419 218.914 5.64953C218.684 5.41953 218.569 5.13586 218.569 4.79853C218.569 4.52253 218.645 4.26186 218.799 4.01653C218.952 3.77119 219.151 3.57186 219.397 3.41853C219.642 3.24986 219.903 3.16553 220.179 3.16553C220.531 3.16553 220.815 3.28053 221.03 3.51053C221.244 3.74053 221.352 4.01653 221.352 4.33853C221.352 4.61453 221.275 4.88286 221.122 5.14353C220.984 5.38886 220.792 5.58819 220.547 5.74153C220.301 5.89486 220.041 5.97153 219.765 5.97153Z" fill="white"/>
<path d="M222.286 8.68553H228.68L228.404 10.4335H222.01L222.286 8.68553ZM224.724 19.9325H222.677L225 5.16653H227.07L224.724 19.9325Z" fill="white"/>
<path d="M231.292 8.68553L233.454 19.7025L231.982 21.4505L229.199 8.68553H231.292ZM226.945 24.9465L227.221 23.2215H228.601C228.907 23.2215 229.206 23.1832 229.498 23.1065C229.789 23.0452 230.065 22.8995 230.326 22.6695C230.602 22.4395 230.855 22.0945 231.085 21.6345L237.778 8.68553H240.032L232.649 22.4625C232.189 23.2905 231.652 23.9422 231.039 24.4175C230.441 24.9082 229.666 25.1535 228.716 25.1535C228.363 25.1535 228.049 25.1382 227.773 25.1075C227.481 25.0769 227.205 25.0232 226.945 24.9465Z" fill="white"/>
</svg>
