<svg width="460" height="460" viewBox="0 0 460 460" fill="none" xmlns="http://www.w3.org/2000/svg">
<g style="mix-blend-mode:overlay">
<path d="M355.481 230.319C355.482 230.107 355.482 229.895 355.481 229.684C355.482 229.789 355.482 229.895 355.482 230C355.482 230.106 355.482 230.213 355.481 230.319Z" fill="white" fill-opacity="0.2"/>
<path fill-rule="evenodd" clip-rule="evenodd" d="M230 460C357.025 460 460 357.025 460 230C460 102.975 357.025 0 230 0C102.975 0 0 102.975 0 230C0 357.025 102.975 460 230 460ZM230 355.482C160.698 355.482 104.518 299.302 104.518 230C104.518 160.698 160.698 104.518 230 104.518C285.765 104.518 333.034 140.895 349.373 191.214L448.743 158.926C463.752 205.12 463.752 254.88 448.743 301.074L349.372 268.787C333.034 319.105 285.765 355.482 230 355.482Z" fill="white" fill-opacity="0.2"/>
</g>
</svg>
