<svg width="32" height="32" viewBox="0 0 32 32" fill="none" xmlns="http://www.w3.org/2000/svg">
<rect x="0.675" y="0.676709" width="30.6509" height="30.6509" rx="15.3254" fill="#A4FF00"/>
<rect x="0.675" y="0.676709" width="30.6509" height="30.6509" rx="15.3254" stroke="black" stroke-width="1.35"/>
<path d="M14.2773 16.1113C14.6114 16.5578 15.0375 16.9273 15.5269 17.1947C16.0163 17.4621 16.5574 17.6211 17.1136 17.6609C17.6698 17.7007 18.2281 17.6205 18.7506 17.4256C19.2731 17.2307 19.7475 16.9257 20.1418 16.5313L22.4751 14.198C23.1835 13.4645 23.5755 12.4822 23.5666 11.4625C23.5578 10.4429 23.1488 9.46748 22.4277 8.74645C21.7067 8.02542 20.7313 7.61643 19.7117 7.60757C18.692 7.59871 17.7097 7.99069 16.9762 8.69908L15.6385 10.0291" stroke="black" stroke-width="1.3" stroke-linecap="round" stroke-linejoin="round"/>
<path d="M17.391 14.5556C17.057 14.1091 16.6308 13.7396 16.1415 13.4722C15.6521 13.2049 15.1109 13.0459 14.5547 13.006C13.9985 12.9662 13.4402 13.0464 12.9177 13.2413C12.3952 13.4362 11.9208 13.7412 11.5266 14.1356L9.19322 16.469C8.48483 17.2024 8.09285 18.1848 8.10171 19.2044C8.11057 20.2241 8.51956 21.1994 9.24059 21.9205C9.96162 22.6415 10.937 23.0505 11.9567 23.0594C12.9763 23.0682 13.9587 22.6762 14.6921 21.9678L16.0221 20.6378" stroke="black" stroke-width="1.3" stroke-linecap="round" stroke-linejoin="round"/>
</svg>
