<svg width="16" height="16" viewBox="0 0 16 16" fill="none" xmlns="http://www.w3.org/2000/svg">
<g id="Icon" clip-path="url(#clip0_151_179)">
<path id="Subtract" fill-rule="evenodd" clip-rule="evenodd" d="M8.00022 16.0002C12.4186 16.0002 16.0004 12.4184 16.0004 8C16.0004 3.5816 12.4186 -0.000213623 8.00022 -0.000213623C3.58182 -0.000213623 0 3.5816 0 8C0 12.4184 3.58182 16.0002 8.00022 16.0002ZM11.0197 10.982C11.2275 10.9411 11.3513 10.7357 11.248 10.5605C11.0203 10.1744 10.6616 9.835 10.2028 9.57639C9.61179 9.24336 8.88772 9.06282 8.14283 9.06282C7.39793 9.06282 6.67383 9.24336 6.08286 9.57639C5.624 9.835 5.2653 10.1744 5.03762 10.5605C4.93433 10.7357 5.05812 10.9411 5.26597 10.982C7.16348 11.3554 9.12215 11.3554 11.0197 10.982ZM10.0226 6.3797C10.0226 7.41795 9.18095 8.25962 8.1427 8.25962C7.10446 8.25962 6.26279 7.41795 6.26279 6.3797C6.26279 5.34146 7.10446 4.49979 8.1427 4.49979C9.18095 4.49979 10.0226 5.34146 10.0226 6.3797Z" fill="#121212"/>
</g>
<defs>
<clipPath id="clip0_151_179">
<rect width="16.0004" height="16.0004" fill="white"/>
</clipPath>
</defs>
</svg>
