<svg width="124" height="24" viewBox="0 0 124 24" fill="none" xmlns="http://www.w3.org/2000/svg">
<g id="Shardeum">
<path d="M15.1123 6.50043C14.8758 2.67855 12.2428 0.324097 8.1602 0.324097C3.75216 0.324097 0.793728 2.89286 0.793728 6.68432C0.793728 9.86393 2.59855 11.9432 6.08946 12.7687L9.60981 13.5939C11.6511 14.083 12.5682 15.184 12.5682 16.9269C12.5682 19.1283 10.7637 20.5044 7.92372 20.5044C5.23153 20.5044 3.51568 19.159 3.45648 17.049H0.498047C0.67565 20.8408 3.57455 23.1946 7.92372 23.1946C12.4796 23.1946 15.4675 20.6572 15.4675 16.6822C15.4675 13.5638 13.6924 11.6069 10.2015 10.781L6.68115 9.92512C4.66929 9.43597 3.69328 8.36574 3.69328 6.59204C3.69328 4.42148 5.43857 3.0149 8.13076 3.0149C10.5269 3.0149 12.0358 4.29911 12.1836 6.50043H15.1123Z" fill="white"/>
<path d="M17.1527 0.324462V22.7977H19.9335V14.6645C19.9335 12.096 21.3831 10.0779 24.0753 10.0779C26.146 10.0779 27.5364 11.301 27.5364 14.3281V22.8281H30.3176V13.6862C30.3176 9.8643 28.5425 7.44866 24.8446 7.44866C22.5962 7.44866 20.8506 8.54899 19.9335 10.1696V0.324462H17.1527Z" fill="white"/>
<path fill-rule="evenodd" clip-rule="evenodd" d="M31.9745 18.6696C31.9745 15.9183 33.9566 14.2055 37.3586 13.9306L41.9145 13.5639V13.1352C41.9145 10.6283 40.4648 9.74165 38.5125 9.74165C36.1752 9.74165 34.844 10.8119 34.844 12.616H32.418C32.418 9.49691 34.9032 7.44839 38.6309 7.44839C42.2105 7.44839 44.6364 9.4053 44.6364 13.4415V22.8279H42.2697L41.9737 20.4126C41.2341 22.1251 39.252 23.1946 36.9147 23.1946C33.8085 23.1946 31.9745 21.3912 31.9745 18.6696ZM41.9452 16.3765V15.5821L38.2473 15.8874C35.7919 16.1321 34.7858 17.1104 34.7858 18.5782C34.7858 20.1683 35.91 20.9627 37.7145 20.9627C40.3478 20.9627 41.9452 19.1897 41.9452 16.3765Z" fill="white"/>
<path d="M54.0408 10.3842H55.2834V7.75458C54.7212 7.63221 54.3071 7.57103 53.804 7.57103C51.8223 7.57103 50.3723 8.6105 49.781 10.1695L49.6034 7.90738H46.9998V22.8281H49.781V14.9092C49.781 12.0349 51.4078 10.3842 54.0408 10.3842Z" fill="white"/>
<path fill-rule="evenodd" clip-rule="evenodd" d="M54.9306 15.3983C54.9306 10.8118 57.5047 7.44863 61.7944 7.44863C64.0129 7.44863 65.877 8.45768 66.8533 10.2919V0.324097H69.6044V22.8281H67.1192L66.8827 20.1069C65.9358 22.1554 63.9835 23.1946 61.676 23.1946C57.475 23.1946 54.9306 19.9538 54.9306 15.3983ZM66.8242 15.3068C66.8242 12.2489 65.0786 10.0479 62.2386 10.0479C59.3985 10.0479 57.7419 12.2489 57.7419 15.3068C57.7419 18.3944 59.3985 20.5961 62.2386 20.5961C65.0786 20.5961 66.8242 18.4252 66.8242 15.3068Z" fill="white"/>
<path fill-rule="evenodd" clip-rule="evenodd" d="M78.27 7.44851C74.0693 7.44851 71.1995 10.6893 71.1995 15.3674C71.1995 20.0148 74.1285 23.1944 78.3884 23.1944C81.9683 23.1944 84.3942 21.391 85.104 18.1803H82.5008C82.0275 19.8925 80.6073 20.8099 78.4476 20.8099C75.6965 20.8099 74.0988 19.067 73.8917 15.9181L85.0746 15.8873V14.8171C85.0746 10.384 82.3824 7.44851 78.27 7.44851ZM82.295 13.9914H73.9522C74.3074 11.3618 75.8457 9.86396 78.2713 9.86396C80.727 9.86396 82.295 11.5146 82.295 13.9914Z" fill="white"/>
<path d="M99.4525 7.87652V22.828H96.9673L96.6717 20.5652C95.8432 22.1253 93.9203 23.1948 91.7903 23.1948C88.4178 23.1948 86.5244 20.841 86.5244 17.1716V7.87652H89.3052V16.2238C89.3052 19.4345 90.6364 20.6575 92.7667 20.6575C95.311 20.6575 96.7014 18.9757 96.7014 15.765V7.87652H99.4525Z" fill="white"/>
<path d="M101.994 7.87635V22.8279H104.775V13.9614C104.775 11.5759 106.165 10.078 108.266 10.078C110.218 10.078 111.461 11.3622 111.461 13.7163V22.8279H114.212V13.9614C114.212 11.5759 115.603 10.0476 117.703 10.0476C119.656 10.0476 120.928 11.393 120.928 13.7468V22.8279H123.65V13.0436C123.65 9.58886 121.638 7.44839 118.324 7.44839C116.076 7.44839 114.33 8.61023 113.65 10.4755C112.911 8.61023 111.313 7.44839 109.064 7.44839C107.023 7.44839 105.485 8.42701 104.745 9.83326L104.479 7.87635H101.994Z" fill="white"/>
</g>
</svg>
