<svg width="25" height="24" viewBox="0 0 25 24" fill="none" xmlns="http://www.w3.org/2000/svg">
<g clip-path="url(#clip0_2140_5503)">
<path d="M13.4554 1.70476L12.5 -1.38705L11.5446 1.70476L9.40168 8.63932H2.5H-0.456295L1.89294 10.434L7.51897 14.7319L5.36424 21.7048L4.44053 24.6939L6.92672 22.7947L12.5 18.5371L18.0733 22.7947L20.5595 24.6939L19.6358 21.7048L17.481 14.7319L23.1071 10.434L25.4563 8.63932H22.5H15.5983L13.4554 1.70476Z" fill="#FBFF1E" stroke="black" stroke-width="2"/>
<mask id="mask0_2140_5503" style="mask-type:alpha" maskUnits="userSpaceOnUse" x="-8" y="-1" width="21" height="28">
<path fill-rule="evenodd" clip-rule="evenodd" d="M12.5 -1H-0.50001V9.28133L-7.5 18.9685L3.03693 26.5825L11.4065 15H12.5V-1Z" fill="#D9D9D9"/>
</mask>
<g mask="url(#mask0_2140_5503)">
<path d="M13.9331 1.55714L12.5 -3.08058L11.0669 1.55714L9.03286 8.13932H2.5H-1.93444L1.58941 10.8313L6.93829 14.9175L4.88653 21.5571L3.50097 26.0409L7.23025 23.192L12.5 19.1663L17.7697 23.192L21.499 26.0409L20.1135 21.5571L18.0617 14.9175L23.4106 10.8313L26.9344 8.13932H22.5H15.9671L13.9331 1.55714Z" stroke="black" stroke-width="3"/>
</g>
</g>
<defs>
<clipPath id="clip0_2140_5503">
<rect width="24" height="24" fill="white" transform="translate(0.5)"/>
</clipPath>
</defs>
</svg>
