<svg width="1214" height="72" viewBox="0 0 1214 72" fill="none" xmlns="http://www.w3.org/2000/svg">
<g opacity="0.3">
<path d="M84.6738 32.3313L86.4132 26.88C86.758 25.7997 88.0619 25.3933 88.902 26.1043L91.3763 28.1985C92.2164 28.9095 93.5204 28.503 93.8651 27.4227L94.8804 24.2408C95.2251 23.1604 96.5291 22.754 97.3691 23.465L99.811 25.5318C100.66 26.25 101.977 25.8271 102.308 24.7305L103.529 20.6772" stroke="#3042FB" stroke-width="1.76319" stroke-linecap="round"/>
<path d="M1 43.9004L5.20544 47.5304C6.03924 48.2501 7.34781 47.8567 7.70236 46.7797L8.74565 43.6105C9.1002 42.5335 10.4088 42.1401 11.2426 42.8598L13.6961 44.9776C14.5299 45.6973 15.8384 45.3039 16.193 44.2269L17.2226 41.0993C17.5807 40.0114 18.9092 39.6241 19.739 40.3657L22.8045 43.1055" stroke="#FF4C0F" stroke-width="1.76319" stroke-linecap="round"/>
<path d="M21.9935 -11.7416L26.4064 -11.7469C27.4568 -11.7481 28.1735 -10.6564 27.8086 -9.61084L26.6262 -6.22254C26.2635 -5.18319 26.9698 -4.09592 28.0138 -4.08657L31.4388 -4.05589C32.4827 -4.04654 33.189 -2.95927 32.8263 -1.91992L31.6363 1.49004C31.2736 2.52939 31.9799 3.61665 33.0239 3.626L36.4489 3.65668C37.4928 3.66603 38.1991 4.7533 37.8364 5.79265L36.6464 9.20261C36.2837 10.242 36.99 11.3292 38.034 11.3386L41.4199 11.3689C42.4749 11.3784 43.1816 12.487 42.7981 13.5309L41.2942 17.6243" stroke="#3042FB" stroke-width="1.76319" stroke-linecap="round"/>
<path d="M93.5363 1.08375L89.293 -0.120337C88.2815 -0.407361 87.2946 0.450641 87.3635 1.55709L87.5862 5.13317C87.6547 6.23311 86.679 7.08961 85.6708 6.81453L82.372 5.91449C81.3638 5.63942 80.3881 6.49592 80.4566 7.59585L80.6807 11.1949C80.7492 12.2948 79.7735 13.1513 78.7653 12.8762L75.4665 11.9762C74.4583 11.7011 73.4826 12.5576 73.5511 13.6575L73.7753 17.2566C73.8438 18.3565 72.8681 19.213 71.8599 18.9379L68.5989 18.0482C67.58 17.7702 66.5981 18.6472 66.6854 19.7572L67.0273 24.1029" stroke="#FF4C0F" stroke-width="1.76319" stroke-linecap="round"/>
<path d="M94.6315 89.7416L90.2186 89.7469C89.1682 89.7481 88.4515 88.6564 88.8164 87.6108L89.9988 84.2225C90.3615 83.1832 89.6552 82.0959 88.6112 82.0866L85.1862 82.0559C84.1423 82.0465 83.436 80.9593 83.7987 79.9199L84.9887 76.51C85.3514 75.4706 84.6451 74.3833 83.6011 74.374L80.1761 74.3433C79.1322 74.334 78.4259 73.2467 78.7886 72.2073L79.9786 68.7974C80.3413 67.758 79.635 66.6708 78.591 66.6614L75.2051 66.6311C74.1501 66.6216 73.4434 65.513 73.8269 64.4691L75.3308 60.3757" stroke="#FF4C0F" stroke-width="1.76319" stroke-linecap="round"/>
<path d="M23.0965 76.9163L27.3398 78.1203C28.3513 78.4074 29.3383 77.5494 29.2693 76.4429L29.0466 72.8668C28.9781 71.7669 29.9538 70.9104 30.962 71.1855L34.2608 72.0855C35.269 72.3606 36.2447 71.5041 36.1762 70.4041L35.9521 66.8051C35.8836 65.7052 36.8593 64.8487 37.8675 65.1238L41.1663 66.0238C42.1745 66.2989 43.1502 65.4424 43.0817 64.3425L42.8575 60.7434C42.789 59.6435 43.7647 58.787 44.7729 59.0621L48.0339 59.9518C49.0528 60.2298 50.0347 59.3528 49.9474 58.2428L49.6055 53.8971" stroke="#3042FB" stroke-width="1.76319" stroke-linecap="round"/>
<ellipse cx="0.804362" cy="0.85399" rx="0.804362" ry="0.85399" transform="matrix(1 0 0 -1 75.166 25.9917)" fill="#FF4C0F"/>
<ellipse cx="0.804362" cy="0.85399" rx="0.804362" ry="0.85399" transform="matrix(1 0 0 -1 100.902 37.0935)" fill="white"/>
<ellipse cx="2.0109" cy="2.13498" rx="2.0109" ry="2.13498" transform="matrix(1 0 0 -1 81.5977 54.1733)" fill="#FF63C0"/>
<ellipse cx="2.0109" cy="2.13498" rx="2.0109" ry="2.13498" transform="matrix(1 0 0 -1 59.8828 8.91162)" fill="white"/>
<ellipse cx="0.804362" cy="0.85399" rx="0.804362" ry="0.85399" transform="matrix(1 0 0 -1 42.9883 8.05786)" fill="#FF4C0F"/>
<ellipse cx="1.20654" cy="1.28099" rx="1.20654" ry="1.28099" transform="matrix(1 0 0 -1 32.5332 24.2837)" fill="white"/>
<ellipse cx="2.0109" cy="2.13498" rx="2.0109" ry="2.13498" transform="matrix(1 0 0 -1 24.4902 12.3279)" fill="#FF63C0"/>
<ellipse cx="0.804362" cy="0.85399" rx="0.804362" ry="0.85399" transform="matrix(1 0 0 -1 19.6641 38.8015)" fill="#3042FB"/>
<ellipse cx="2.0109" cy="2.13498" rx="2.0109" ry="2.13498" transform="matrix(1 0 0 -1 8.40234 34.5315)" fill="white"/>
<ellipse cx="0.804362" cy="0.85399" rx="0.804362" ry="0.85399" transform="matrix(1 0 0 -1 25.293 54.1733)" fill="#FF4C0F"/>
<ellipse cx="153.793" cy="53.3193" rx="0.804362" ry="0.85399" fill="#FF4C0F"/>
<ellipse cx="143.74" cy="37.5205" rx="1.20654" ry="1.28099" fill="white"/>
<ellipse cx="136.501" cy="50.3303" rx="2.0109" ry="2.13498" fill="#FF63C0"/>
<ellipse cx="130.468" cy="22.5757" rx="0.804362" ry="0.85399" fill="#3042FB"/>
<ellipse cx="120.413" cy="28.1267" rx="2.0109" ry="2.13498" fill="white"/>
<ellipse cx="136.097" cy="7.20384" rx="0.804362" ry="0.85399" fill="#FF4C0F"/>
<ellipse cx="159.207" cy="7.20387" rx="0.804362" ry="0.85399" transform="rotate(180 159.207 7.20387)" fill="#FF4C0F"/>
<ellipse cx="169.26" cy="23.0027" rx="1.20654" ry="1.28099" transform="rotate(180 169.26 23.0027)" fill="white"/>
<ellipse cx="176.499" cy="10.1929" rx="2.0109" ry="2.13498" transform="rotate(180 176.499 10.1929)" fill="#FF63C0"/>
<ellipse cx="182.532" cy="37.9475" rx="0.804362" ry="0.85399" transform="rotate(180 182.532 37.9475)" fill="#3042FB"/>
<ellipse cx="192.587" cy="32.3965" rx="2.0109" ry="2.13498" transform="rotate(180 192.587 32.3965)" fill="white"/>
<ellipse cx="176.903" cy="53.3194" rx="0.804362" ry="0.85399" transform="rotate(180 176.903 53.3194)" fill="#FF4C0F"/>
<ellipse cx="0.804362" cy="0.85399" rx="0.804362" ry="0.85399" transform="matrix(0.87899 0.476841 0.476841 -0.87899 311.58 28.6072)" fill="#FF4C0F"/>
<ellipse cx="1.20654" cy="1.28099" rx="1.20654" ry="1.28099" transform="matrix(0.87899 0.476841 0.476841 -0.87899 294.654 37.884)" fill="white"/>
<ellipse cx="2.0109" cy="2.13498" rx="2.0109" ry="2.13498" transform="matrix(0.87899 0.476841 0.476841 -0.87899 293.285 23.5398)" fill="#FF63C0"/>
<ellipse cx="0.804362" cy="0.85399" rx="0.804362" ry="0.85399" transform="matrix(0.87899 0.476841 0.476841 -0.87899 276.42 44.5085)" fill="#3042FB"/>
<ellipse cx="2.0109" cy="2.13498" rx="2.0109" ry="2.13498" transform="matrix(0.87899 0.476841 0.476841 -0.87899 268.557 35.3853)" fill="white"/>
<ellipse cx="0.804362" cy="0.85399" rx="0.804362" ry="0.85399" transform="matrix(0.87899 0.476841 0.476841 -0.87899 274.037 60.7043)" fill="#FF4C0F"/>
<ellipse cx="0.804362" cy="0.85399" rx="0.804362" ry="0.85399" transform="matrix(-0.87899 -0.476841 -0.476841 0.87899 320.785 42.6509)" fill="#FF4C0F"/>
<ellipse cx="1.20654" cy="1.28099" rx="1.20654" ry="1.28099" transform="matrix(-0.87899 -0.476841 -0.476841 0.87899 337.711 33.374)" fill="white"/>
<ellipse cx="2.0109" cy="2.13498" rx="2.0109" ry="2.13498" transform="matrix(-0.87899 -0.476841 -0.476841 0.87899 339.08 47.7183)" fill="#FF63C0"/>
<ellipse cx="0.804362" cy="0.85399" rx="0.804362" ry="0.85399" transform="matrix(-0.87899 -0.476841 -0.476841 0.87899 355.945 26.7495)" fill="#3042FB"/>
<ellipse cx="2.0109" cy="2.13498" rx="2.0109" ry="2.13498" transform="matrix(-0.87899 -0.476841 -0.476841 0.87899 363.809 35.8728)" fill="white"/>
<ellipse cx="0.804362" cy="0.85399" rx="0.804362" ry="0.85399" transform="matrix(-0.87899 -0.476841 -0.476841 0.87899 358.328 10.5537)" fill="#FF4C0F"/>
<ellipse cx="462.694" cy="43.018" rx="0.804362" ry="0.85399" transform="rotate(-28.4793 462.694 43.018)" fill="#FF4C0F"/>
<ellipse cx="446.326" cy="33.9247" rx="1.20654" ry="1.28099" transform="rotate(-28.4793 446.326 33.9247)" fill="white"/>
<ellipse cx="446.071" cy="48.636" rx="2.0109" ry="2.13498" transform="rotate(-28.4793 446.071 48.636)" fill="#FF63C0"/>
<ellipse cx="427.534" cy="27.1166" rx="0.804362" ry="0.85399" transform="rotate(-28.4793 427.534 27.1166)" fill="#3042FB"/>
<ellipse cx="421.342" cy="36.7905" rx="2.0109" ry="2.13498" transform="rotate(-28.4793 421.342 36.7905)" fill="white"/>
<ellipse cx="425.151" cy="10.9208" rx="0.804362" ry="0.85399" transform="rotate(-28.4793 425.151 10.9208)" fill="#FF4C0F"/>
<ellipse cx="0.804362" cy="0.85399" rx="0.804362" ry="0.85399" transform="matrix(-0.87899 -0.476841 -0.476841 0.87899 320.785 42.6509)" fill="#FF4C0F"/>
<ellipse cx="1.20654" cy="1.28099" rx="1.20654" ry="1.28099" transform="matrix(-0.87899 -0.476841 -0.476841 0.87899 337.711 33.374)" fill="white"/>
<ellipse cx="2.0109" cy="2.13498" rx="2.0109" ry="2.13498" transform="matrix(-0.87899 -0.476841 -0.476841 0.87899 339.08 47.7183)" fill="#FF63C0"/>
<ellipse cx="0.804362" cy="0.85399" rx="0.804362" ry="0.85399" transform="matrix(-0.87899 -0.476841 -0.476841 0.87899 355.945 26.7495)" fill="#3042FB"/>
<ellipse cx="2.0109" cy="2.13498" rx="2.0109" ry="2.13498" transform="matrix(-0.87899 -0.476841 -0.476841 0.87899 363.809 35.8728)" fill="white"/>
<ellipse cx="0.804362" cy="0.85399" rx="0.804362" ry="0.85399" transform="matrix(-0.87899 -0.476841 -0.476841 0.87899 358.328 10.5537)" fill="#FF4C0F"/>
<ellipse cx="0.804362" cy="0.85399" rx="0.804362" ry="0.85399" transform="matrix(-0.87899 -0.476841 -0.476841 0.87899 510.785 42.6509)" fill="#FF4C0F"/>
<ellipse cx="1.20654" cy="1.28099" rx="1.20654" ry="1.28099" transform="matrix(-0.87899 -0.476841 -0.476841 0.87899 527.711 33.374)" fill="white"/>
<ellipse cx="2.0109" cy="2.13498" rx="2.0109" ry="2.13498" transform="matrix(-0.87899 -0.476841 -0.476841 0.87899 529.08 47.7183)" fill="#FF63C0"/>
<ellipse cx="0.804362" cy="0.85399" rx="0.804362" ry="0.85399" transform="matrix(-0.87899 -0.476841 -0.476841 0.87899 545.945 26.7495)" fill="#3042FB"/>
<ellipse cx="2.0109" cy="2.13498" rx="2.0109" ry="2.13498" transform="matrix(-0.87899 -0.476841 -0.476841 0.87899 553.809 35.8728)" fill="white"/>
<ellipse cx="0.804362" cy="0.85399" rx="0.804362" ry="0.85399" transform="matrix(-0.87899 -0.476841 -0.476841 0.87899 548.328 10.5537)" fill="#FF4C0F"/>
<ellipse cx="579.671" cy="18.2401" rx="0.804362" ry="0.85399" transform="rotate(151.521 579.671 18.2401)" fill="#FF4C0F"/>
<ellipse cx="596.04" cy="27.3334" rx="1.20654" ry="1.28099" transform="rotate(151.521 596.04 27.3334)" fill="white"/>
<ellipse cx="596.294" cy="12.6221" rx="2.0109" ry="2.13498" transform="rotate(151.521 596.294 12.6221)" fill="#FF63C0"/>
<ellipse cx="614.831" cy="34.1414" rx="0.804362" ry="0.85399" transform="rotate(151.521 614.831 34.1414)" fill="#3042FB"/>
<ellipse cx="621.023" cy="24.4675" rx="2.0109" ry="2.13498" transform="rotate(151.521 621.023 24.4675)" fill="white"/>
<ellipse cx="617.214" cy="50.3372" rx="0.804362" ry="0.85399" transform="rotate(151.521 617.214 50.3372)" fill="#FF4C0F"/>
<ellipse cx="682.694" cy="43.018" rx="0.804362" ry="0.85399" transform="rotate(-28.4793 682.694 43.018)" fill="#FF4C0F"/>
<ellipse cx="666.326" cy="33.9247" rx="1.20654" ry="1.28099" transform="rotate(-28.4793 666.326 33.9247)" fill="white"/>
<ellipse cx="666.071" cy="48.636" rx="2.0109" ry="2.13498" transform="rotate(-28.4793 666.071 48.636)" fill="#FF63C0"/>
<ellipse cx="647.534" cy="27.1166" rx="0.804362" ry="0.85399" transform="rotate(-28.4793 647.534 27.1166)" fill="#3042FB"/>
<ellipse cx="641.342" cy="36.7905" rx="2.0109" ry="2.13498" transform="rotate(-28.4793 641.342 36.7905)" fill="white"/>
<ellipse cx="645.151" cy="10.9208" rx="0.804362" ry="0.85399" transform="rotate(-28.4793 645.151 10.9208)" fill="#FF4C0F"/>
<ellipse cx="762.694" cy="43.018" rx="0.804362" ry="0.85399" transform="rotate(-28.4793 762.694 43.018)" fill="#FF4C0F"/>
<ellipse cx="746.326" cy="33.9247" rx="1.20654" ry="1.28099" transform="rotate(-28.4793 746.326 33.9247)" fill="white"/>
<ellipse cx="746.071" cy="48.636" rx="2.0109" ry="2.13498" transform="rotate(-28.4793 746.071 48.636)" fill="#FF63C0"/>
<ellipse cx="727.534" cy="27.1166" rx="0.804362" ry="0.85399" transform="rotate(-28.4793 727.534 27.1166)" fill="#3042FB"/>
<ellipse cx="721.342" cy="36.7905" rx="2.0109" ry="2.13498" transform="rotate(-28.4793 721.342 36.7905)" fill="white"/>
<ellipse cx="725.151" cy="10.9208" rx="0.804362" ry="0.85399" transform="rotate(-28.4793 725.151 10.9208)" fill="#FF4C0F"/>
<ellipse cx="769.671" cy="18.2401" rx="0.804362" ry="0.85399" transform="rotate(151.521 769.671 18.2401)" fill="#FF4C0F"/>
<ellipse cx="786.04" cy="27.3334" rx="1.20654" ry="1.28099" transform="rotate(151.521 786.04 27.3334)" fill="white"/>
<ellipse cx="786.294" cy="12.6221" rx="2.0109" ry="2.13498" transform="rotate(151.521 786.294 12.6221)" fill="#FF63C0"/>
<ellipse cx="804.831" cy="34.1414" rx="0.804362" ry="0.85399" transform="rotate(151.521 804.831 34.1414)" fill="#3042FB"/>
<ellipse cx="811.023" cy="24.4675" rx="2.0109" ry="2.13498" transform="rotate(151.521 811.023 24.4675)" fill="white"/>
<ellipse cx="807.214" cy="50.3372" rx="0.804362" ry="0.85399" transform="rotate(151.521 807.214 50.3372)" fill="#FF4C0F"/>
<ellipse cx="872.694" cy="43.018" rx="0.804362" ry="0.85399" transform="rotate(-28.4793 872.694 43.018)" fill="#FF4C0F"/>
<ellipse cx="856.326" cy="33.9247" rx="1.20654" ry="1.28099" transform="rotate(-28.4793 856.326 33.9247)" fill="white"/>
<ellipse cx="856.071" cy="48.636" rx="2.0109" ry="2.13498" transform="rotate(-28.4793 856.071 48.636)" fill="#FF63C0"/>
<ellipse cx="837.534" cy="27.1166" rx="0.804362" ry="0.85399" transform="rotate(-28.4793 837.534 27.1166)" fill="#3042FB"/>
<ellipse cx="831.342" cy="36.7905" rx="2.0109" ry="2.13498" transform="rotate(-28.4793 831.342 36.7905)" fill="white"/>
<ellipse cx="835.151" cy="10.9208" rx="0.804362" ry="0.85399" transform="rotate(-28.4793 835.151 10.9208)" fill="#FF4C0F"/>
<ellipse cx="899.671" cy="18.2401" rx="0.804362" ry="0.85399" transform="rotate(151.521 899.671 18.2401)" fill="#FF4C0F"/>
<ellipse cx="916.04" cy="27.3334" rx="1.20654" ry="1.28099" transform="rotate(151.521 916.04 27.3334)" fill="white"/>
<ellipse cx="916.294" cy="12.6221" rx="2.0109" ry="2.13498" transform="rotate(151.521 916.294 12.6221)" fill="#FF63C0"/>
<ellipse cx="934.831" cy="34.1414" rx="0.804362" ry="0.85399" transform="rotate(151.521 934.831 34.1414)" fill="#3042FB"/>
<ellipse cx="941.023" cy="24.4675" rx="2.0109" ry="2.13498" transform="rotate(151.521 941.023 24.4675)" fill="white"/>
<ellipse cx="937.214" cy="50.3372" rx="0.804362" ry="0.85399" transform="rotate(151.521 937.214 50.3372)" fill="#FF4C0F"/>
<ellipse cx="992.694" cy="43.018" rx="0.804362" ry="0.85399" transform="rotate(-28.4793 992.694 43.018)" fill="#FF4C0F"/>
<ellipse cx="976.326" cy="33.9247" rx="1.20654" ry="1.28099" transform="rotate(-28.4793 976.326 33.9247)" fill="white"/>
<ellipse cx="976.071" cy="48.636" rx="2.0109" ry="2.13498" transform="rotate(-28.4793 976.071 48.636)" fill="#FF63C0"/>
<ellipse cx="957.534" cy="27.1166" rx="0.804362" ry="0.85399" transform="rotate(-28.4793 957.534 27.1166)" fill="#3042FB"/>
<ellipse cx="951.342" cy="36.7905" rx="2.0109" ry="2.13498" transform="rotate(-28.4793 951.342 36.7905)" fill="white"/>
<ellipse cx="955.151" cy="10.9208" rx="0.804362" ry="0.85399" transform="rotate(-28.4793 955.151 10.9208)" fill="#FF4C0F"/>
<ellipse cx="1019.67" cy="18.2401" rx="0.804362" ry="0.85399" transform="rotate(151.521 1019.67 18.2401)" fill="#FF4C0F"/>
<ellipse cx="1036.04" cy="27.3334" rx="1.20654" ry="1.28099" transform="rotate(151.521 1036.04 27.3334)" fill="white"/>
<ellipse cx="1036.29" cy="12.6221" rx="2.0109" ry="2.13498" transform="rotate(151.521 1036.29 12.6221)" fill="#FF63C0"/>
<ellipse cx="1054.83" cy="34.1414" rx="0.804362" ry="0.85399" transform="rotate(151.521 1054.83 34.1414)" fill="#3042FB"/>
<ellipse cx="1061.02" cy="24.4675" rx="2.0109" ry="2.13498" transform="rotate(151.521 1061.02 24.4675)" fill="white"/>
<ellipse cx="1057.21" cy="50.3372" rx="0.804362" ry="0.85399" transform="rotate(151.521 1057.21 50.3372)" fill="#FF4C0F"/>
<ellipse cx="1142.69" cy="43.018" rx="0.804362" ry="0.85399" transform="rotate(-28.4793 1142.69 43.018)" fill="#FF4C0F"/>
<ellipse cx="1126.33" cy="33.9247" rx="1.20654" ry="1.28099" transform="rotate(-28.4793 1126.33 33.9247)" fill="white"/>
<ellipse cx="1126.07" cy="48.636" rx="2.0109" ry="2.13498" transform="rotate(-28.4793 1126.07 48.636)" fill="#FF63C0"/>
<ellipse cx="1107.53" cy="27.1166" rx="0.804362" ry="0.85399" transform="rotate(-28.4793 1107.53 27.1166)" fill="#3042FB"/>
<ellipse cx="1101.34" cy="36.7905" rx="2.0109" ry="2.13498" transform="rotate(-28.4793 1101.34 36.7905)" fill="white"/>
<ellipse cx="1105.15" cy="10.9208" rx="0.804362" ry="0.85399" transform="rotate(-28.4793 1105.15 10.9208)" fill="#FF4C0F"/>
<ellipse cx="0.804362" cy="0.85399" rx="0.804362" ry="0.85399" transform="matrix(0.87899 0.476841 0.476841 -0.87899 1211.58 18.6072)" fill="#FF4C0F"/>
<ellipse cx="1.20654" cy="1.28099" rx="1.20654" ry="1.28099" transform="matrix(0.87899 0.476841 0.476841 -0.87899 1194.65 27.884)" fill="white"/>
<ellipse cx="2.0109" cy="2.13498" rx="2.0109" ry="2.13498" transform="matrix(0.87899 0.476841 0.476841 -0.87899 1193.29 13.5398)" fill="#FF63C0"/>
<ellipse cx="0.804362" cy="0.85399" rx="0.804362" ry="0.85399" transform="matrix(0.87899 0.476841 0.476841 -0.87899 1176.42 34.5085)" fill="#3042FB"/>
<ellipse cx="2.0109" cy="2.13498" rx="2.0109" ry="2.13498" transform="matrix(0.87899 0.476841 0.476841 -0.87899 1168.56 25.3853)" fill="white"/>
<ellipse cx="0.804362" cy="0.85399" rx="0.804362" ry="0.85399" transform="matrix(0.87899 0.476841 0.476841 -0.87899 1174.04 50.7043)" fill="#FF4C0F"/>
</g>
</svg>
