<svg width="44" height="45" viewBox="0 0 44 45" fill="none" xmlns="http://www.w3.org/2000/svg">
<rect x="-0.000366211" y="0.246582" width="43.9998" height="44" rx="8" fill="#2B2B2B"/>
<path d="M33.2677 11.9337C33.2677 11.9337 35.6207 11.0162 35.4246 13.2445C35.3593 14.162 34.771 17.3733 34.3135 20.8468L32.7448 31.1363C32.7448 31.1363 32.6141 32.6436 31.4375 32.9058C30.261 33.1679 28.4963 31.9883 28.1694 31.7261C27.908 31.5295 23.2673 28.5803 21.6332 27.1385C21.1756 26.7452 20.6528 25.9588 21.6985 25.0412L28.5616 18.4875C29.3459 17.701 30.1303 15.866 26.8622 18.0943L17.7115 24.3204C17.7115 24.3204 16.6657 24.9757 14.7049 24.3859L10.4563 23.0751C10.4563 23.0751 8.8876 22.0921 11.5674 21.109C18.1037 18.0287 26.1432 14.8829 33.2677 11.9337Z" fill="white"/>
</svg>
