<svg width="44" height="45" viewBox="0 0 44 45" fill="none" xmlns="http://www.w3.org/2000/svg">
<rect y="0.246582" width="43.9998" height="44" rx="8" fill="#2B2B2B"/>
<path fill-rule="evenodd" clip-rule="evenodd" d="M32.9648 13.0723C34.2061 13.4043 35.1744 14.3763 35.5101 15.6176C36.3881 19.159 36.3309 25.8544 35.5286 29.4511C35.1966 30.6924 34.2245 31.6607 32.9832 31.9964C29.4788 32.8633 13.7824 32.7564 10.4808 31.9964C9.23948 31.6644 8.27114 30.6924 7.93545 29.4511C7.10729 26.0757 7.16446 18.9377 7.917 15.6361C8.24901 14.3948 9.22104 13.4264 10.4624 13.0907C15.1473 12.1132 31.2974 12.4286 32.9648 13.0723ZM18.9464 18.2184L26.4718 22.5344L18.9464 26.8504V18.2184Z" fill="white"/>
</svg>
