<svg width="25" height="24" viewBox="0 0 25 24" fill="none" xmlns="http://www.w3.org/2000/svg">
                <rect x="0.5" width="24.0006" height="24.0006" rx="12.0003" fill="#A4FF00" />
                <circle cx="12.5" cy="12" r="11.53" stroke="black" fill="none"/>
                <g clip-path="url(#clip0_233_816)">
                  <path
                    d="M11.833 12.5834C12.0835 12.9183 12.4031 13.1954 12.7702 13.3959C13.1372 13.5964 13.5431 13.7157 13.9602 13.7455C14.3774 13.7754 14.7961 13.7152 15.188 13.5691C15.5798 13.4229 15.9357 13.1941 16.2313 12.8984L17.9813 11.1484C18.5126 10.5983 18.8066 9.86151 18.8 9.09677C18.7933 8.33203 18.4866 7.60049 17.9458 7.05972C17.405 6.51894 16.6735 6.2122 15.9088 6.20555C15.144 6.19891 14.4073 6.49289 13.8572 7.02419L12.8538 8.02169"
                    stroke="black"
                    stroke-width="1.16667"
                    stroke-linecap="round"
                    stroke-linejoin="round"
                  />
                  <path
                    d="M14.1663 11.4167C13.9158 11.0818 13.5962 10.8047 13.2291 10.6042C12.8621 10.4036 12.4562 10.2844 12.0391 10.2545C11.6219 10.2246 11.2032 10.2848 10.8113 10.431C10.4195 10.5772 10.0636 10.8059 9.76796 11.1017L8.01796 12.8517C7.48667 13.4018 7.19268 14.1386 7.19933 14.9033C7.20597 15.668 7.51272 16.3996 8.05349 16.9404C8.59426 17.4811 9.3258 17.7879 10.0905 17.7945C10.8553 17.8012 11.592 17.5072 12.1421 16.9759L13.1396 15.9784"
                    stroke="black"
                    stroke-width="1.16667"
                    stroke-linecap="round"
                    stroke-linejoin="round"
                  />
                </g>
                <defs>
                  <clipPath id="clip0_233_816">
                    <rect width="14" height="14" fill="white" transform="translate(6 5)" />
                  </clipPath>
                </defs>
              </svg>