<svg width="25" height="24" viewBox="0 0 25 24" fill="none" xmlns="http://www.w3.org/2000/svg">
    <rect x="0.5" y="0.00128174" width="24.0006" height="24.0006" rx="12.0003" fill="white" />
    <path
        d="M17.0785 16.4922C17.4092 16.4178 17.6062 16.0443 17.4419 15.7257C17.0796 15.0233 16.5089 14.4061 15.7787 13.9357C14.8384 13.33 13.6862 13.0016 12.501 13.0016C11.3157 13.0016 10.1636 13.33 9.22322 13.9357C8.4931 14.4061 7.92234 15.0233 7.56005 15.7257C7.39571 16.0443 7.59268 16.4178 7.9234 16.4922C10.9427 17.1715 14.0593 17.1715 17.0785 16.4922Z"
        fill="white" />
    <path
        d="M12.501 12.0016C14.1578 12.0016 15.501 10.6585 15.501 9.00165C15.501 7.34479 14.1578 6.00165 12.501 6.00165C10.8441 6.00165 9.50098 7.34479 9.50098 9.00165C9.50098 10.6585 10.8441 12.0016 12.501 12.0016Z"
        fill="white" />
    <path
        d="M17.666 9.08337H8.33268C7.68835 9.08337 7.16602 9.60571 7.16602 10.25V16.0834C7.16602 16.7277 7.68835 17.25 8.33268 17.25H17.666C18.3103 17.25 18.8327 16.7277 18.8327 16.0834V10.25C18.8327 9.60571 18.3103 9.08337 17.666 9.08337Z"
        stroke="#3A4CFF" stroke-width="1.16667" stroke-linecap="round" stroke-linejoin="round" />
    <path
        d="M15.3327 17.25V7.91667C15.3327 7.60725 15.2098 7.3105 14.991 7.09171C14.7722 6.87292 14.4754 6.75 14.166 6.75H11.8327C11.5233 6.75 11.2265 6.87292 11.0077 7.09171C10.7889 7.3105 10.666 7.60725 10.666 7.91667V17.25"
        stroke="#3A4CFF" stroke-width="1.16667" stroke-linecap="round" stroke-linejoin="round" />
</svg>